<svg preserveAspectRatio="none" width="100%" height="100%" overflow="visible" style="display: block;" viewBox="0 0 91.2264 147.185" fill="none" xmlns="http://www.w3.org/2000/svg">
<path id="Vector" d="M17.527 82.1708C16.168 77.9364 15.3582 73.3125 15.1056 68.6217C14.853 63.9309 15.1537 59.1611 15.9996 54.6285C16.4205 52.3652 16.9777 50.1567 17.6673 48.0516C18.3568 45.9466 19.1265 44.0058 20.1127 42.2596C20.6018 41.3896 21.135 40.5804 21.7042 39.8382C21.9768 39.4853 22.2615 39.1446 22.5541 38.8282C22.7145 38.6518 22.8748 38.4875 23.0392 38.3294C23.1514 38.2198 23.5122 37.8974 22.9951 38.3537C22.4779 38.81 22.8508 38.4875 22.9791 38.3902C24.2138 37.4472 25.6169 36.8996 27.004 37.1673C28.2788 37.4107 29.4775 38.3294 30.3514 39.753C31.1692 41.0854 31.6904 42.7829 31.959 44.5533C32.2396 46.4089 32.2476 48.3558 32.0231 50.2236C31.7746 52.2922 31.2093 54.2026 30.4637 55.973C28.7639 60.0067 26.2704 63.0731 23.9211 66.1942C21.4517 69.4796 19.1025 72.9657 16.8936 76.6587C14.6847 80.3517 12.588 84.2698 10.6597 88.34C8.73147 92.4103 6.95554 96.6447 5.34797 101.025C3.74041 105.406 2.07271 110.249 1.01437 115.189C0.0161531 119.849 -0.432848 124.942 0.545321 129.705C1.34309 133.599 3.03485 137.262 5.51234 139.032C8.35464 141.064 11.5417 140.054 14.1996 137.858C15.7109 136.611 17.1501 135.224 18.461 133.526C19.5996 132.054 20.6419 130.417 21.616 128.701C23.4601 125.471 25.0517 121.906 26.3706 118.134C27.6895 114.361 28.7358 110.389 29.5055 106.288C30.2752 102.187 30.7804 97.9224 30.9888 93.6453C31.1973 89.3682 31.1211 85.0668 30.7443 80.8263C30.3674 76.5857 29.6939 72.4121 28.7118 68.4088C28.2347 66.468 27.6895 64.5758 27.0721 62.7263C27.0922 62.7811 26.0779 63.4868 26.0298 63.6389C24.326 69.0902 23.0392 74.8274 22.1813 80.7168C21.3234 86.6061 20.8944 92.6415 20.8864 98.6707C20.8784 104.7 21.2913 110.699 22.1252 116.576C22.959 122.453 24.2058 128.19 25.8655 133.642C26.6632 136.258 27.5051 138.935 28.6276 141.265C29.6458 143.382 31.0329 145.256 32.8289 145.475C33.5545 145.566 34.2841 145.372 34.9496 144.921C35.4066 144.617 35.8396 144.21 36.2685 143.826C36.6013 143.528 36.926 143.218 37.2266 142.847C38.4854 141.308 39.3834 139.136 40.077 136.945C40.9028 134.329 41.4039 131.518 41.9331 128.732C42.5665 125.374 43.1598 121.991 43.705 118.596C44.7914 111.824 45.7054 104.992 46.4351 98.111C47.1647 91.23 47.7179 84.3063 48.0907 77.3584C48.4636 70.3861 48.652 63.3955 48.66 56.3989C48.66 54.7015 48.652 52.9979 48.6319 51.3005C48.6319 51.3613 48.1589 51.702 48.1068 51.7507C47.9825 51.8602 47.8622 51.9637 47.7379 52.0732C47.7139 52.0914 47.5896 52.1766 47.5856 52.2131C47.0204 60.1041 46.4551 68.0011 45.8899 75.8921C45.3246 83.7831 44.7674 91.5767 44.2061 99.4251C43.8894 103.848 43.5727 108.277 43.256 112.7C43.264 112.615 43.717 112.305 43.7812 112.25C43.9055 112.141 44.0257 112.037 44.15 111.928C44.1901 111.891 44.2743 111.849 44.3023 111.788C45.8898 108.478 46.7959 104.59 47.1727 100.551C47.5495 96.5109 47.4333 92.1243 47.1446 87.9446C46.856 83.7649 46.3669 79.3844 45.97 75.1012C45.6493 71.6333 45.497 68.1532 45.6213 64.6488C45.7455 61.1444 46.0943 57.8408 46.7838 54.5859C47.4253 51.5621 48.3714 48.6418 49.7544 46.2447C50.4239 45.0826 51.1976 44.0483 52.0595 43.2209C52.1076 43.1722 52.1557 43.1297 52.2039 43.0871C52.2319 43.0566 51.3339 43.8293 51.7067 43.5251C51.839 43.4156 51.9713 43.3183 52.1076 43.2209C52.3401 43.0506 52.5767 42.8985 52.8172 42.7585C53.3464 42.4543 53.8876 42.211 54.4408 42.0345C57.1268 41.201 59.9169 42.1258 62.3223 44.0118C64.8679 46.0074 66.9485 49.0312 68.6202 52.5356C70.3761 56.2225 71.687 60.3414 72.8937 64.4907C73.1904 65.5067 73.479 66.5288 73.7677 67.5448C73.7677 67.5448 74.2527 67.1311 74.2928 67.0946C74.3409 67.052 74.818 66.6992 74.81 66.6322C74.377 62.9088 73.2585 59.4531 71.6389 56.5875C70.0193 53.7219 67.9267 51.4648 65.6657 49.8829C63.4047 48.3011 60.7869 47.2972 58.2212 47.066C55.6555 46.8348 53.0497 47.3398 50.6324 48.6844C49.2252 49.4692 47.9184 50.5826 46.6395 51.7568C45.3607 52.931 44.2181 54.2269 43.1438 55.7297C40.991 58.7291 39.2471 62.3673 37.9242 66.3098C36.6013 70.2522 35.6311 74.7362 35.1019 79.2079C34.5728 83.6797 34.4445 88.3218 34.7451 92.8726C35.0979 98.2448 35.9839 103.532 37.2186 108.588C38.4534 113.644 40.1171 118.724 41.9692 123.469C43.8213 128.215 45.9059 132.802 48.0947 137.237C49.125 139.324 50.1834 141.362 51.4702 143.108C52.6448 144.702 53.9958 146.15 55.5232 146.826C56.2167 147.136 56.9464 147.27 57.664 147.13C58.4537 146.978 59.1232 146.461 59.8047 145.864C60.4862 145.268 61.1717 144.617 61.6889 143.638C62.1259 142.81 62.4426 141.849 62.663 140.851C63.1441 138.691 63.2403 136.367 63.2403 134.11C63.2403 131.086 63.1601 128.057 63.116 125.033C63.0198 118.602 62.9236 112.171 62.8274 105.74C62.7312 99.3095 62.635 92.8787 62.5388 86.4479C62.4426 80.0171 62.3463 73.5863 62.2501 67.1555C62.1539 60.7247 62.0577 54.2938 61.9615 47.863C61.8653 41.4322 61.7691 35.0501 61.6769 28.6436C61.5847 22.2371 61.4844 15.782 61.3882 9.35115C61.3401 6.23613 61.296 3.1211 61.2479 0.00608402L60.2056 0.918688C60.406 9.32681 60.6105 17.7349 60.8109 26.1431C61.0114 34.5512 61.2158 42.9593 61.4163 51.3674C61.6167 59.7755 61.8212 68.135 62.0216 76.5188C62.2221 84.9026 62.4265 93.2864 62.627 101.67C62.7272 105.874 62.8274 110.078 62.9316 114.282C63.0078 117.458 63.0359 120.628 63.3886 123.767C63.6813 126.39 64.1503 129.018 64.9641 131.378C65.6777 133.447 66.708 135.363 68.1432 136.337C69.6786 137.383 71.4746 137.225 72.9538 136.051C73.8639 135.333 74.7659 134.53 75.5235 133.471C76.2131 132.51 76.7984 131.385 77.3115 130.198C78.422 127.643 79.1756 124.82 79.8732 121.96C80.7912 118.182 81.6692 114.38 82.503 110.559C84.1747 102.917 85.6821 95.1907 87.021 87.397C88.36 79.6034 89.5306 71.7489 90.5328 63.8397C90.7734 61.9354 91.0059 60.025 91.2264 58.1146C91.2264 58.1268 91.054 58.2606 91.07 58.2424C90.9457 58.3458 90.8255 58.4553 90.7012 58.5648C90.5769 58.6743 90.4567 58.7778 90.3324 58.8873C90.3083 58.9116 90.1881 58.9907 90.18 59.0272C89.27 66.8634 88.1956 74.651 86.9569 82.3838C85.7182 90.1166 84.315 97.7824 82.7476 105.375C81.9658 109.172 81.14 112.95 80.2781 116.704C79.8451 118.584 79.4041 120.452 78.9552 122.319C78.5903 123.828 78.2255 125.343 77.7886 126.815C77.0189 129.407 76.0688 131.975 74.7338 133.995C74.4211 134.469 74.0844 134.907 73.7276 135.303C73.6314 135.406 73.5311 135.509 73.4309 135.607C73.0942 135.941 74.2728 134.907 73.9761 135.132C73.928 135.169 73.8839 135.205 73.8358 135.242C73.6273 135.4 73.4149 135.534 73.1944 135.649C72.3806 136.081 71.5026 136.209 70.6487 136.039C67.2773 135.37 65.6056 130.21 64.8318 125.739C64.3829 123.159 64.1543 120.488 64.0742 117.829C63.9539 113.759 63.8777 109.683 63.7775 105.607C63.5771 97.3018 63.3766 88.991 63.1802 80.6863C62.9838 72.3817 62.7793 64.0709 62.5829 55.7662C62.3864 47.5101 62.186 39.2541 61.9895 30.9981C61.7931 22.7421 61.5887 14.3826 61.3922 6.07794C61.3441 4.05196 61.296 2.02598 61.2479 0C61.2479 0.0608402 60.7749 0.401546 60.7227 0.450218C60.6626 0.504974 60.2016 0.815259 60.2056 0.912604C60.3018 7.23999 60.394 13.5735 60.4902 19.9008C60.5864 26.2282 60.6786 32.5617 60.7749 38.8891C60.8711 45.2165 60.9633 51.5499 61.0595 57.8773C61.1557 64.2047 61.2479 70.4895 61.3401 76.7926C61.4323 83.0956 61.5285 89.4534 61.6247 95.7808C61.721 102.108 61.8132 108.442 61.9094 114.769C62.0056 121.096 62.1018 127.381 62.19 133.684C62.2501 137.773 62.19 143.054 59.8167 145.773C59.7325 145.871 59.6443 145.962 59.5562 146.053C59.1793 146.436 60.5624 145.232 60.0653 145.597C59.8809 145.731 59.6884 145.852 59.496 145.944C59.1633 146.108 58.8225 146.205 58.4737 146.248C57.7722 146.327 57.0626 146.157 56.3971 145.834C54.8858 145.098 53.5548 143.638 52.3923 142.032C51.1455 140.31 50.1192 138.314 49.109 136.27C48.0306 134.08 46.9763 131.859 45.962 129.596C43.9375 125.075 42.0694 120.391 40.4819 115.487C38.9184 110.656 37.6275 105.613 36.7696 100.393C35.9879 95.6348 35.559 90.7432 35.6431 85.8334C35.7193 81.3312 36.1924 76.8351 37.0703 72.5277C37.9483 68.2202 39.179 64.2656 40.8467 60.6456C42.5144 57.0256 44.5789 53.8862 47.0083 51.4891C47.1526 51.3431 47.301 51.2032 47.4493 51.0632C47.4934 51.0267 47.5335 50.9841 47.5776 50.9476C47.774 50.7651 47.0805 51.3735 47.2849 51.2032C47.3691 51.1301 47.4533 51.0632 47.5415 50.9902C47.8302 50.7529 48.1268 50.5339 48.4235 50.3271C49.0007 49.9255 49.5941 49.5787 50.1994 49.2806C51.4021 48.6844 52.6448 48.295 53.8996 48.0881C56.4252 47.6805 59.0029 48.0212 61.4523 49.0372C63.9018 50.0533 66.1588 51.6838 68.1472 53.9836C70.1356 56.2833 71.671 59.0515 72.7013 62.3734C73.2104 64.0161 73.5712 65.7561 73.7797 67.5388L74.822 66.6262C73.6153 62.3734 72.3966 58.0964 70.7891 54.1478C69.1815 50.1993 67.3214 46.8835 64.8519 44.4073C62.5428 42.0893 59.7887 40.5987 56.9945 40.8238C55.7677 40.9212 54.5531 41.3653 53.4266 42.1136C52.8453 42.503 52.2961 42.9836 51.7468 43.4704C51.2618 43.8962 50.7847 44.3404 50.3357 44.8575C48.672 46.774 47.4373 49.4266 46.5674 52.2922C45.6213 55.4072 45.0801 58.7838 44.7914 62.1726C44.5028 65.5614 44.4707 69.2119 44.6752 72.7163C44.9197 76.8717 45.4449 80.9966 45.8137 85.1277C46.1825 89.2587 46.4872 93.7974 46.3429 98.1536C46.2066 102.279 45.6413 106.41 44.3464 110.072C44.0257 110.979 43.6649 111.849 43.264 112.676L44.3063 111.764C44.8716 103.873 45.4369 95.9755 46.0021 88.0845C46.5674 80.1935 47.1246 72.3999 47.6858 64.5515C48.0025 60.1284 48.3192 55.6992 48.6359 51.2762L47.5936 52.1888C47.6738 59.082 47.5776 65.9812 47.305 72.8684C47.0324 79.7555 46.5754 86.6183 45.95 93.4506C45.3206 100.283 44.5148 107.073 43.5366 113.808C42.5585 120.543 41.436 127.174 40.097 133.727C39.6119 136.106 38.9545 138.436 38.0525 140.517C37.6275 141.496 37.1425 142.427 36.5732 143.23C36.2886 143.632 35.9839 143.985 35.6592 144.313C35.3745 144.599 36.6694 143.48 36.1924 143.839C36.1002 143.905 36.0079 143.972 35.9117 144.033C35.7393 144.143 35.559 144.24 35.3786 144.313C33.787 144.988 32.1634 144.149 30.9568 142.512C29.5977 140.675 28.7158 138.156 27.8899 135.741C26.09 130.46 24.6949 124.862 23.7087 119.113C22.7225 113.364 22.1492 107.48 21.9808 101.555C21.8125 95.6105 22.053 89.6359 22.7065 83.7709C23.3599 77.9059 24.4303 72.1504 25.9136 66.6505C26.2744 65.312 26.6592 63.9918 27.0681 62.6837L26.0258 63.5963C27.3006 67.4171 28.2748 71.4569 28.9443 75.6123C29.6138 79.7676 29.9706 83.996 30.0427 88.2549C30.1149 92.5137 29.8944 96.8394 29.3933 101.056C28.8922 105.272 28.1144 109.379 27.0601 113.333C26.0058 117.288 24.6748 121.096 23.0833 124.619C21.4918 128.142 19.5354 131.677 17.3185 134.512C16.6811 135.327 16.0116 136.094 15.3141 136.781C15.1297 136.964 14.4962 137.481 15.1898 136.927C15.0134 137.067 14.837 137.213 14.6566 137.347C14.2718 137.633 13.8789 137.901 13.478 138.132C12.0589 138.953 10.5234 139.373 9.00408 139.111C6.16979 138.631 3.8727 135.795 2.5177 132.078C1.0304 128.002 0.761803 123.305 1.28697 118.766C1.89231 113.528 3.41569 108.63 5.00721 103.933C6.59874 99.2365 8.19828 95.1481 10.0384 90.9866C11.8664 86.8373 13.8548 82.8462 15.9836 79.0437C18.1203 75.2229 20.4013 71.5846 22.8147 68.1593C25.228 64.734 27.6935 61.9293 29.8102 58.3336C30.8445 56.5753 31.7585 54.6406 32.3999 52.4808C32.9131 50.7408 33.1817 48.8365 33.2097 46.9382C33.2619 43.3122 32.3919 39.388 30.2752 37.3985C29.1327 36.3216 27.7657 35.9444 26.4427 36.2304C24.9033 36.565 23.5523 37.7331 22.2454 38.9499C19.6557 41.3531 17.8397 45.1009 16.5288 49.1893C15.2178 53.2778 14.3559 58.0051 14.0793 62.6715C13.8027 67.338 14.0673 72.1322 14.8931 76.6709C15.29 78.8611 15.8232 80.9966 16.4806 83.0409C16.4726 83.0165 17.539 82.1769 17.523 82.1283L17.527 82.1708Z" fill="var(--fill-0, white)"/>
</svg>
