<svg preserveAspectRatio="none" width="100%" height="100%" overflow="visible" style="display: block;" viewBox="0 0 42.1045 113.455" fill="none" xmlns="http://www.w3.org/2000/svg">
<path id="Vector" d="M27.3812 35.9716C27.9859 27.7526 28.6622 18.7625 26.311 11.0086C24.4851 4.99276 20.7853 -0.184662 16.2542 0.00505483C14.0304 0.0968531 12.0731 1.56562 10.2312 3.38323C8.38929 5.20083 7.00887 7.55087 5.81143 10.1885C3.21367 15.9229 1.84516 22.7282 0.973934 29.5274C0.102709 36.3266 -0.203606 43.8968 0.134541 51.1061C0.472687 58.3153 1.42347 65.4756 2.94314 72.3176C4.46281 79.1596 6.53545 85.6222 9.1531 91.583C11.8304 97.6784 15.0687 103.468 18.9912 107.746C22.7386 111.834 27.4687 114.624 32.0914 112.972C33.0939 112.611 34.0685 112.072 34.9915 111.369C36.0377 110.567 37.08 109.643 38.0189 108.56C39.6022 106.736 40.919 104.294 41.5992 101.412C41.9374 99.9917 42.1045 98.4923 42.1045 96.9807C42.1045 97.048 41.639 97.3846 41.5833 97.4336C41.46 97.5437 41.3407 97.6478 41.2173 97.7579C41.1975 97.7763 41.0662 97.8681 41.0662 97.8987C41.0662 100.934 40.3501 103.829 39.1487 106.216C38.54 107.421 37.82 108.492 37.0323 109.416C36.8254 109.661 36.6106 109.894 36.3918 110.114C36.2963 110.212 36.2048 110.304 36.1093 110.395L36.0536 110.451C35.8309 110.659 35.9701 110.536 36.4714 110.083C36.3998 110.145 36.3281 110.206 36.2565 110.261C35.7911 110.634 35.3097 110.971 34.8164 111.258C32.8552 112.403 30.7626 112.788 28.6781 112.378C26.3548 111.925 24.135 110.64 22.1061 108.872C17.9728 105.267 14.5873 99.802 11.7429 94.0126C8.98602 88.4067 6.73437 82.2195 5.01977 75.7019C3.30517 69.1842 2.1117 62.2381 1.50304 55.2247C0.894376 48.2114 0.858568 41.1613 1.42347 34.1846C1.70592 30.6779 2.13956 27.1957 2.72833 23.7808C3.3171 20.3659 3.98543 17.2754 4.96009 14.2215C5.93475 11.1677 7.08446 8.41989 8.55241 5.9903C9.24462 4.852 10.0005 3.8055 10.8319 2.90588C11.0348 2.68556 11.2456 2.47749 11.4605 2.27553L10.9115 2.76512C10.9513 2.7284 10.991 2.6978 11.0308 2.6672C11.0905 2.61824 11.1462 2.5754 11.2059 2.52645C11.3371 2.42241 11.4684 2.32449 11.5997 2.23269C12.0333 1.9267 12.4829 1.66966 12.9443 1.46771C14.9255 0.586443 17.0657 0.776159 18.9673 2.00626C20.9405 3.27919 22.5954 5.53131 23.8446 8.1751C26.9078 14.6499 27.1584 22.8934 26.7646 30.5983C26.6572 32.6975 26.506 34.7966 26.3508 36.8896C26.3588 36.8039 26.8083 36.4918 26.872 36.4367C26.9953 36.3266 27.1146 36.2225 27.238 36.1124C27.2618 36.094 27.3852 36.0083 27.3891 35.9716H27.3812Z" fill="var(--fill-0, white)"/>
</svg>
