<svg preserveAspectRatio="none" width="100%" height="100%" overflow="visible" style="display: block;" viewBox="0 0 227 98" fill="none" xmlns="http://www.w3.org/2000/svg">
<g id="Ebene_6" clip-path="url(#clip0_12_3)">
<path id="Vector" d="M44.5521 37.0058C42.1928 34.9488 39.5905 32.9198 36.5128 32.0935C35.1254 31.7208 33.6676 31.6047 32.2626 31.9423C31.0019 32.2447 29.7906 32.8776 28.7447 33.6372C27.6989 34.3967 26.8643 35.3742 26.4101 36.5557C25.9558 37.7372 25.9875 39.0453 26.4735 40.2197C27.4982 42.6952 30.1181 44.1053 32.3647 45.2938C34.974 46.6722 37.5199 48.149 39.8264 50.0022C42.1329 51.8553 44.1365 53.9932 45.5803 56.539C46.8621 58.7965 47.5945 61.279 47.6015 63.8811C47.6086 66.2933 47.0381 68.7407 45.8303 70.8399C45.2493 71.8526 44.5133 72.7774 43.633 73.5475C43.4076 73.7444 43.1752 73.9307 42.9358 74.103C42.8125 74.191 42.6893 74.2753 42.566 74.3562C42.5132 74.3914 42.4569 74.423 42.404 74.4582C42.2561 74.5567 42.5202 74.3949 42.5167 74.3949C42.4886 74.423 42.4076 74.4547 42.3688 74.4723C41.7843 74.7747 41.1645 75.0138 40.5272 75.1861C37.8052 75.9175 34.8437 75.3971 32.3964 74.0433C29.8223 72.6227 27.9313 70.2667 26.8643 67.5486C25.7974 64.8305 25.5262 61.7396 26.0298 58.8387C26.5087 56.0924 27.6883 53.4376 29.4948 51.3032C29.9455 50.7722 30.4315 50.2729 30.9561 49.8193C31.4808 49.3657 32.083 48.9648 32.6746 48.5675C32.6464 48.5886 32.4105 48.7152 32.6182 48.6027C32.657 48.5816 32.6957 48.564 32.7309 48.5429C32.8084 48.5042 32.8823 48.4655 32.9598 48.4268C33.1288 48.3424 33.3014 48.2616 33.4774 48.1877C33.7627 48.0647 34.0549 47.9557 34.3507 47.8572C34.9529 47.6603 35.5726 47.5196 36.1994 47.4352C38.6644 47.0977 41.2702 47.5794 43.4076 48.8629C44.4675 49.4993 45.4113 50.3397 46.1261 51.3524C47.0135 52.6042 47.4748 54.0741 47.8903 55.5333C48.3058 56.9926 48.7002 58.6382 49.5805 59.9534C50.3235 61.0575 51.4292 62.0139 52.7216 62.4007C53.3167 62.5801 53.9541 62.6222 54.5597 62.4675C54.859 62.3902 55.1337 62.2671 55.4013 62.1159C55.6971 61.9506 56.0035 61.7889 56.2746 61.5849C57.3521 60.7797 57.8205 59.4189 58.1022 58.1565C58.4684 56.5003 58.6621 54.7914 58.8311 53.1071C59.0142 51.3067 59.1234 49.5028 59.1586 47.6954C59.229 44.0947 59.0037 40.487 58.486 36.9214C58.236 35.1879 57.912 33.4649 57.5247 31.7559C57.5247 31.7665 57.243 31.9142 57.2183 31.9282C57.1761 31.9529 56.9225 32.0583 56.9155 32.1076C56.5775 34.9734 56.3908 37.8568 56.3556 40.7437C56.3204 43.6306 56.4366 46.4893 56.7007 49.3516C56.9648 52.2139 57.3803 55.0868 57.9402 57.9174C58.5001 60.748 59.2009 63.5259 60.0495 66.2687C60.8981 69.0114 61.8947 71.7401 63.0321 74.3949C63.1729 74.7254 63.3173 75.0525 63.4617 75.383C63.4476 75.3513 64.085 75.0806 64.0709 75.0314C63.4546 72.482 62.8349 69.9292 62.2187 67.3798C62.2327 67.4396 61.5919 67.6611 61.6095 67.7315C62.2257 70.2808 62.8454 72.8337 63.4617 75.383L64.0709 75.0314C62.8983 72.3941 61.8665 69.6936 60.9827 66.9473C60.0988 64.2011 59.3593 61.4337 58.7677 58.6242C58.1761 55.8146 57.7219 52.9453 57.4191 50.076C57.1197 47.2207 56.9648 44.3479 56.9648 41.4751C56.9648 38.6022 57.1092 35.7048 57.412 32.8319C57.4507 32.4733 57.4895 32.1181 57.5317 31.763L56.9225 32.1146C57.7254 35.6415 58.236 39.2316 58.4508 42.8429C58.6656 46.4542 58.5846 50.1076 58.2008 53.7189C58.0247 55.3821 57.8381 57.0735 57.4543 58.7051C57.1444 60.0166 56.6197 61.279 55.4823 62.0772C55.2957 62.2073 56.0105 61.7959 55.8028 61.8908C55.7499 61.9155 55.7006 61.9401 55.6478 61.9647C55.5739 61.9963 55.4999 62.0245 55.426 62.0526C55.271 62.1089 55.1091 62.1475 54.9471 62.1757C54.6442 62.2284 54.3344 62.2354 54.028 62.2003C53.3906 62.13 52.7779 61.8909 52.2286 61.5603C50.9996 60.8254 50.1052 59.6826 49.5453 58.3816C48.8939 56.8695 48.577 55.2485 48.0488 53.6943C47.5945 52.3581 46.9571 51.1133 45.9817 50.083C44.2668 48.2721 41.823 47.2524 39.3616 47.0344C38.0974 46.9218 36.8121 47.0168 35.5832 47.3368C34.3542 47.6568 33.1323 48.2721 32.009 48.9648C29.6427 50.4206 27.8292 52.657 26.6777 55.1676C25.5262 57.6783 24.9875 60.7058 25.2445 63.5752C25.5016 66.4445 26.5826 69.465 28.5264 71.7471C30.3646 73.9061 32.995 75.3654 35.8015 75.7698C37.1819 75.9702 38.601 75.9104 39.9497 75.5412C41.154 75.2142 42.2914 74.6199 43.3196 73.9202C45.288 72.5805 46.6613 70.534 47.429 68.3046C48.1967 66.0753 48.4079 63.4697 47.9924 61.068C47.5241 58.371 46.2141 55.8779 44.5309 53.74C42.6998 51.4122 40.4039 49.4853 37.9495 47.8431C36.7135 47.0168 35.4318 46.2608 34.1218 45.5575C32.907 44.9035 31.6675 44.2916 30.5089 43.5391C29.4138 42.8253 28.3574 41.9814 27.6214 40.8878C26.8855 39.7943 26.5474 38.5495 26.7341 37.2836C26.9207 36.0177 27.5897 34.9136 28.4771 34.038C28.706 33.813 28.949 33.602 29.2025 33.4086C29.3363 33.3066 29.4737 33.2082 29.6145 33.1168C29.6814 33.071 29.7518 33.0288 29.8188 32.9831C29.942 32.9023 29.5758 33.1132 29.7096 33.0464C29.7554 33.0218 29.8011 32.9972 29.8469 32.9761C30.4561 32.6667 31.1005 32.4311 31.7661 32.2799C34.7522 31.6118 37.8157 32.9058 40.2701 34.5198C41.566 35.3707 42.7667 36.3553 43.9358 37.3715C43.9957 37.4243 44.4922 36.9742 44.545 37.0199L44.5521 37.0058Z" fill="var(--fill-0, white)"/>
<path id="Vector_2" d="M53.2603 22.6381V23.1937C53.2603 23.1937 53.3625 23.1374 53.3519 23.1445C53.4258 23.1023 53.4963 23.0636 53.5667 23.0214C53.6371 22.9792 53.7111 22.937 53.7815 22.8948L53.8273 22.8667C53.8273 22.8667 53.8555 22.8491 53.8695 22.8421V22.2865C53.8695 22.2865 53.7674 22.3427 53.778 22.3357C53.704 22.3779 53.6336 22.4166 53.5632 22.4588C53.4928 22.501 53.4188 22.5432 53.3484 22.5854L53.3026 22.6135C53.3026 22.6135 53.2744 22.6311 53.2603 22.6381Z" fill="var(--fill-0, white)"/>
<path id="Vector_3" d="M70.2438 57.2458C69.8071 58.4413 69.374 59.6369 68.9374 60.8324L69.5466 60.4808C67.8 56.4933 66.5041 52.3159 65.6837 48.0436C64.8632 43.7712 64.5181 39.4075 64.666 35.0613C64.7188 33.5071 64.909 31.8403 65.7153 30.4795C65.902 30.1666 66.1203 29.8747 66.3844 29.6215C66.5147 29.4949 66.652 29.3789 66.7999 29.2769C66.8387 29.2488 66.8844 29.2242 66.9267 29.1925C66.4513 29.5442 66.5077 29.4211 66.7154 29.3262C66.7999 29.2875 66.888 29.2523 66.9795 29.2207C67.7859 28.9323 68.6733 29.0097 69.4585 29.3226C71.2474 30.04 72.2721 31.7208 72.7686 33.5071C73.0397 34.4776 73.1806 35.4797 73.3144 36.4784C73.4658 37.6282 73.6172 38.7816 73.7722 39.9314C74.3884 44.5976 75.0047 49.2672 75.6209 53.9334C75.9167 56.1768 76.1737 58.4273 76.5153 60.6672C76.7477 62.1933 77.1139 63.7369 77.8076 65.1259C78.4274 66.3636 79.3782 67.5064 80.748 67.9178C81.491 68.1394 82.2903 68.1429 83.0333 67.9213C83.3855 67.8159 83.7129 67.6647 84.0299 67.4853C84.4031 67.2779 84.7764 67.0669 85.1215 66.8137C86.4842 65.8115 87.435 64.296 88.1358 62.784C88.9738 60.9801 89.6112 59.0637 90.1324 57.1438C91.1993 53.195 91.6677 49.0879 91.5374 45.0019C91.4071 40.916 90.6746 36.8441 89.3436 32.9796C89.0196 32.0443 88.664 31.1195 88.2696 30.2088C88.2766 30.2263 87.7062 30.5112 87.6604 30.5604C84.8292 33.5774 83.7798 37.7231 83.9172 41.7739C83.9876 43.8802 84.3573 45.976 84.9454 47.9978C85.5793 50.1674 86.4948 52.2315 87.5336 54.2358C89.819 58.6347 92.6853 62.7031 94.9707 67.102C96.0165 69.1134 96.9532 71.195 97.587 73.3787C98.1575 75.3443 98.5026 77.3767 98.5765 79.4197C98.7139 83.3123 97.8018 87.3737 95.2031 90.3836C94.8862 90.7493 94.5481 91.0974 94.1925 91.4245L94.8017 91.0728C92.7382 87.996 91.0866 84.6485 89.8823 81.1427C88.678 77.6369 87.928 73.98 87.6568 70.2878C87.5019 68.2027 87.5054 66.1069 87.6568 64.0217C87.6568 64.0534 87.3857 64.1729 87.3505 64.194C87.3118 64.2187 87.0512 64.3277 87.0477 64.3734C86.7695 68.069 86.9843 71.7928 87.6709 75.4322C88.3576 79.0716 89.5056 82.6231 91.0937 85.9706C91.9881 87.8624 93.0234 89.6839 94.1889 91.4209C94.1925 91.428 94.7559 91.1115 94.7981 91.0693C97.7455 88.3617 99.0554 84.441 99.1857 80.5168C99.3231 76.2726 98.1822 72.1445 96.3687 68.3328C94.2382 63.853 91.3895 59.7705 88.9844 55.4419C87.847 53.3954 86.7871 51.2926 86.0124 49.0809C85.3152 47.0906 84.8327 45.016 84.6214 42.9168C84.2235 38.9081 84.8574 34.6534 87.3047 31.3516C87.6005 30.9507 87.9245 30.5674 88.266 30.2017L87.6568 30.5534C89.2731 34.3123 90.3014 38.3139 90.7204 42.3823C91.1395 46.4507 90.9669 50.5823 90.1887 54.598C89.8013 56.5917 89.2696 58.5574 88.5865 60.4738C87.9703 62.1968 87.2836 63.9303 86.1955 65.4177C85.699 66.0964 85.1215 66.7258 84.4383 67.2146C84.3538 67.2743 84.2623 67.3306 84.1778 67.3904C84.625 67.0774 84.4982 67.211 84.3573 67.2814C84.308 67.306 84.2587 67.3306 84.213 67.3517C84.0299 67.4361 83.8397 67.5099 83.646 67.5662C83.2622 67.6822 82.8608 67.7385 82.4593 67.7315C80.998 67.7104 79.7866 66.8805 78.9732 65.7131C78.1034 64.4613 77.6421 62.9493 77.3323 61.4724C77.1492 60.6004 77.04 59.7213 76.9238 58.8387C76.7688 57.6642 76.6139 56.4898 76.459 55.3153C75.8463 50.6773 75.2335 46.0392 74.6208 41.4012C74.4659 40.2268 74.3109 39.0523 74.156 37.8779C74.0116 36.7913 73.8884 35.7013 73.7018 34.6217C73.3778 32.7616 72.7721 30.8171 71.2122 29.6215C70.5396 29.1081 69.7332 28.7424 68.881 28.6862C68.0289 28.6299 67.3 28.9569 66.571 29.3824C65.9337 29.7551 65.4372 30.2509 65.0674 30.8944C64.6765 31.5801 64.4441 32.3467 64.2962 33.1132C64.1378 33.922 64.0814 34.7413 64.0533 35.5641C64.0181 36.6436 64.0145 37.7267 64.0427 38.8062C64.0955 40.9652 64.2716 43.1242 64.5639 45.2657C65.1519 49.5767 66.2224 53.8209 67.7507 57.8928C68.1204 58.8809 68.5183 59.8549 68.9409 60.8219C68.9268 60.7902 69.5254 60.5371 69.5501 60.4703C69.9867 59.2747 70.4199 58.0792 70.8565 56.8836C70.8389 56.9363 70.5995 57.0278 70.5502 57.0559C70.4903 57.0911 70.272 57.1684 70.2473 57.2352L70.2438 57.2458Z" fill="var(--fill-0, white)"/>
<path id="Vector_4" d="M111.366 38.2436C110.944 41.3977 111 44.6046 111.517 47.7447C112.035 50.8847 113.003 53.9439 114.398 56.8027C115.183 58.4132 116.106 59.9569 117.148 61.4161C117.148 61.4161 117.726 61.1137 117.757 61.0645C119.469 58.5925 120.736 55.8287 121.529 52.9312C122.321 50.0338 122.634 46.9816 122.437 43.9752C122.328 42.2838 122.053 40.6065 121.617 38.9714C121.634 39.0382 121.025 39.2316 121.008 39.3231C120.356 42.4526 120.117 45.6595 120.289 48.8488C120.462 52.0381 121.036 55.2063 122.008 58.2479C122.557 59.9674 123.229 61.6412 124.022 63.2622C124.008 63.2376 124.606 62.9739 124.631 62.9106C125.265 61.272 125.899 59.6298 126.532 57.9912C126.511 58.044 126.279 58.1354 126.226 58.1635C126.166 58.1987 125.948 58.2761 125.923 58.3429C125.289 59.9815 124.656 61.6236 124.022 63.2622L124.631 62.9106C123.226 60.0413 122.198 56.9926 121.574 53.8596C120.951 50.7265 120.722 47.5161 120.909 44.3268C121.015 42.5264 121.25 40.7366 121.62 38.9714L121.011 39.3231C121.782 42.2276 122.039 45.2551 121.8 48.251C121.56 51.2469 120.824 54.2217 119.617 56.9856C118.94 58.5398 118.113 60.0237 117.148 61.4161L117.757 61.0645C115.902 58.48 114.444 55.6177 113.426 52.6042C112.408 49.5907 111.824 46.4331 111.711 43.2543C111.648 41.4645 111.736 39.6677 111.972 37.8919C111.968 37.9271 111.701 38.0431 111.665 38.0642C111.623 38.0888 111.37 38.1908 111.363 38.2436H111.366Z" fill="var(--fill-0, white)"/>
<path id="Vector_5" d="M124.892 44.4006C125.631 48.6695 126.374 52.9383 127.114 57.2036C127.853 61.4689 128.596 65.7412 129.335 70.0065C129.751 72.4011 130.167 74.7922 130.582 77.1869L131.191 76.8352C130.314 72.6649 129.441 68.498 128.564 64.3277C127.688 60.1573 126.814 55.9905 125.937 51.8201C125.501 49.7455 125.064 47.6743 124.631 45.5997C124.198 43.5251 123.832 41.5313 124.191 39.4954C124.458 37.9833 125.223 36.503 126.441 35.5395C126.504 35.4903 126.571 35.4375 126.638 35.3918C126.712 35.3391 127.089 35.1105 126.719 35.3215C126.349 35.5325 126.73 35.325 126.821 35.2863C126.913 35.2476 127.008 35.2055 127.106 35.1703C127.466 35.0402 127.842 34.9593 128.226 34.9312C129.019 34.8714 129.811 35.0367 130.536 35.3602C132.068 36.0388 133.293 37.2942 134.318 38.5846C135.456 40.0193 136.47 41.57 137.417 43.1383C139.333 46.31 140.917 49.6786 142.136 53.1774C142.748 54.9391 143.269 56.7324 143.696 58.5468C144.048 60.0553 144.336 61.5779 144.424 63.1286C144.579 65.8256 144.238 68.9024 142.35 70.9946C142.132 71.2372 141.893 71.4658 141.636 71.6698C141.495 71.7823 141.347 71.8913 141.195 71.9933C141.125 72.039 141.055 72.0812 140.984 72.1269L141.312 71.937C141.273 71.9581 141.238 71.9792 141.199 71.9968C141.136 72.0284 141.072 72.0601 141.005 72.0917C140.301 72.4222 139.533 72.6086 138.759 72.6578C137.178 72.7598 135.589 72.3238 134.206 71.5783C131.11 69.9116 129.321 66.7188 127.98 63.5998C127.638 62.8016 127.318 61.9963 126.997 61.1911C127.008 61.2192 126.374 61.5076 126.388 61.5427C127.691 64.8305 129.082 68.3714 131.843 70.7309C134.241 72.7774 137.875 73.8499 140.783 72.2429C141.428 71.8878 142.055 71.515 142.593 71.0087C143.083 70.548 143.491 70.0136 143.822 69.4298C144.52 68.1991 144.858 66.7891 144.991 65.3896C145.305 62.13 144.555 58.8633 143.667 55.7478C142.625 52.0873 141.185 48.5394 139.389 45.1848C138.491 43.5075 137.501 41.8759 136.427 40.3076C135.42 38.8343 134.36 37.3574 132.987 36.1971C131.734 35.1386 130.149 34.351 128.466 34.6253C127.684 34.7518 127.011 35.1316 126.342 35.536C125.673 35.9404 125.156 36.4608 124.723 37.0761C123.67 38.5635 123.363 40.3745 123.451 42.1643C123.557 44.2952 124.11 46.3979 124.546 48.4796C125.444 52.7484 126.339 57.0172 127.237 61.286C128.135 65.5549 129.029 69.8237 129.927 74.0925C130.142 75.1228 130.36 76.1566 130.575 77.1869C130.561 77.1165 131.198 76.9161 131.184 76.8352C130.445 72.5664 129.702 68.2976 128.962 64.0323C128.223 59.767 127.48 55.4947 126.74 51.2293C126.325 48.8347 125.909 46.4436 125.494 44.049C125.494 44.0631 125.212 44.2072 125.187 44.2213C125.159 44.2389 124.881 44.3725 124.885 44.4006H124.892Z" fill="var(--fill-0, white)"/>
<path id="Vector_6" d="M151.943 35.441C153.418 38.4545 154.668 41.577 155.675 44.7804C156.682 47.9838 157.446 51.2293 157.964 54.5312C158.256 56.4019 158.471 58.2831 158.605 60.1714C158.605 60.1503 158.883 60.0166 158.911 59.9991C158.95 59.978 159.214 59.8619 159.214 59.8197C159.337 55.9025 159.457 51.9854 159.58 48.0682C159.7 44.165 159.823 40.2619 159.943 36.3623L160.151 29.7411L159.542 30.0927L163.542 44.0314C164.876 48.6765 166.207 53.3216 167.542 57.9701C168.292 60.5898 169.046 63.206 169.796 65.8256C169.785 65.7869 170.359 65.5373 170.405 65.474C171.944 63.4451 173.24 61.2368 174.278 58.9125C175.321 56.5777 176.102 54.1303 176.624 51.6267C177.145 49.1231 177.398 46.5843 177.388 44.0349C177.377 41.4786 177.099 38.9222 176.546 36.4256C175.993 33.929 175.173 31.5203 174.078 29.2242C173.94 28.9394 173.8 28.6545 173.659 28.3767C173.669 28.4014 173.071 28.6651 173.049 28.7284C171.599 32.853 170.828 37.2062 170.757 41.5735C170.722 43.729 170.856 45.8916 171.159 48.026C171.313 49.1055 171.511 50.1815 171.75 51.2469C171.972 52.228 172.208 53.2161 172.546 54.162C173.071 55.6283 174.074 57.2634 175.838 57.2282C176.564 57.2141 177.194 56.8379 177.789 56.4581C178.384 56.0784 178.842 55.5157 179.198 54.9145C179.606 54.2253 179.891 53.4657 180.082 52.6886C180.289 51.8377 180.339 50.9691 180.36 50.0971C180.409 48.1209 180.233 46.1412 179.842 44.2037C179.06 40.3182 177.419 36.6014 175.039 33.4262C174.747 33.0394 174.444 32.6596 174.134 32.2869C174.134 32.2869 173.521 32.5999 173.525 32.6385C173.557 33.5739 173.588 34.5092 173.616 35.4446C173.616 35.4199 173.895 35.2898 173.923 35.2723C173.958 35.2512 174.226 35.1316 174.226 35.0929C174.194 34.1576 174.162 33.2222 174.134 32.2869L173.525 32.6385C176.025 35.6133 177.835 39.1437 178.842 42.8921C179.346 44.7663 179.645 46.6933 179.733 48.6308C179.81 50.3643 179.81 52.1752 179.24 53.8349C178.993 54.5558 178.652 55.2591 178.184 55.8639C177.969 56.1417 177.729 56.3983 177.455 56.6128C177.381 56.6726 177.3 56.7254 177.222 56.7816C177.088 56.8766 176.909 56.8766 177.557 56.5917C177.507 56.6128 177.462 56.6375 177.416 56.6586C177.261 56.7254 177.103 56.7816 176.937 56.8168C176.229 56.975 175.476 56.7992 174.881 56.3913C174.219 55.9342 173.768 55.2274 173.44 54.503C173.064 53.6697 172.831 52.78 172.606 51.8974C172.345 50.8636 172.123 49.8228 171.944 48.7714C171.588 46.6827 171.398 44.5694 171.37 42.4526C171.313 38.2049 171.912 33.9466 173.166 29.8853C173.324 29.3754 173.49 28.869 173.666 28.3662L173.057 28.7178C174.219 30.9823 175.113 33.3805 175.729 35.8489C176.345 38.3174 176.694 40.8773 176.772 43.4301C176.849 45.976 176.655 48.5323 176.205 51.0395C175.754 53.5466 175.032 56.0256 174.053 58.3851C173.074 60.7445 171.849 62.9809 170.37 65.0485C170.187 65.3052 170 65.5584 169.806 65.8116L170.416 65.4599C169.081 60.8149 167.75 56.1698 166.415 51.5212L162.415 37.5825L160.161 29.727C160.179 29.7903 159.556 29.9907 159.552 30.0786C159.429 33.9958 159.309 37.913 159.186 41.8302C159.063 45.7474 158.943 49.6365 158.823 53.5361C158.753 55.7443 158.686 57.949 158.615 60.1573L159.225 59.8057C158.985 56.4581 158.496 53.1317 157.76 49.858C157.024 46.5843 156.048 43.3915 154.841 40.276C154.154 38.5108 153.393 36.7772 152.562 35.0789C152.566 35.0894 151.943 35.4129 151.953 35.4305L151.943 35.441Z" fill="var(--fill-0, white)"/>
<path id="Vector_7" d="M181.265 36.1373C182.885 38.7499 182.3 41.9533 182.12 44.8437C182.025 46.3768 182.029 47.9592 182.515 49.4325C182.913 50.6456 183.652 51.6689 184.744 52.3475C185.684 52.9312 186.867 53.2548 187.962 52.9488C188.501 52.7976 189.029 52.4847 189.48 52.1682C189.977 51.8166 190.35 51.3313 190.607 50.7828C191.149 49.6224 191.195 48.2862 191.195 47.0273C191.195 45.2586 191.188 43.4899 191.188 41.7177C191.181 38.1732 191.177 34.6323 191.17 31.0878C191.17 30.6483 191.17 30.2088 191.17 29.7692L190.561 30.1208C191.153 33.0535 191.903 35.9509 192.818 38.8027C193.727 41.6368 194.794 44.4253 196.012 47.1399C196.702 48.6765 197.438 50.192 198.224 51.683C198.213 51.6654 198.805 51.3911 198.833 51.3313C200.386 48.0822 201.657 44.6995 202.622 41.2289C203.587 37.7583 204.256 34.1822 204.604 30.585C204.801 28.5666 204.897 26.5377 204.893 24.5088C204.893 24.5334 204.618 24.6635 204.587 24.6811C204.551 24.7022 204.284 24.8182 204.284 24.8604C204.291 28.4611 203.981 32.0619 203.361 35.6063C202.741 39.1508 201.808 42.6706 200.576 46.0709C199.886 47.9767 199.1 49.8509 198.224 51.683L198.833 51.3313C197.442 48.6835 196.195 45.9584 195.107 43.1734C194.023 40.3991 193.093 37.5649 192.325 34.6886C191.889 33.0605 191.508 31.4219 191.174 29.7692C191.174 29.7833 190.892 29.9274 190.867 29.9415C190.832 29.9626 190.565 30.0787 190.565 30.1208C190.572 33.5774 190.575 37.0304 190.582 40.487C190.582 42.1994 190.589 43.9119 190.589 45.6243C190.589 47.0203 190.674 48.455 190.406 49.8334C190.293 50.4241 190.107 51.0113 189.79 51.5282C189.639 51.7779 189.455 52.0065 189.248 52.2069C189.146 52.3053 189.036 52.3968 188.924 52.4812C188.881 52.5128 188.836 52.5374 188.797 52.5691C188.67 52.6675 189.174 52.3616 189.121 52.3827C189.04 52.4144 188.966 52.4565 188.885 52.4882C187.86 52.8961 186.698 52.6921 185.74 52.2034C184.688 51.6654 183.849 50.7863 183.374 49.7033C182.768 48.3319 182.656 46.8128 182.698 45.3325C182.779 42.4842 183.497 39.4426 182.36 36.7069C182.226 36.3834 182.064 36.074 181.881 35.7786C181.874 35.7681 181.272 36.1302 181.272 36.1302L181.265 36.1373Z" fill="var(--fill-0, white)"/>
<path id="Vector_8" d="M0.0457775 15.9641C0.147896 21.0558 0.250015 26.1474 0.352134 31.2426C0.454253 36.3377 0.556373 41.3696 0.658492 46.4331C0.760611 51.4966 0.86273 56.5601 0.964849 61.6236C1.06697 66.6871 1.16909 71.7506 1.27121 76.8141C1.3522 80.8649 1.33107 85.074 2.70439 88.9419C3.34176 90.7388 4.31013 92.4126 5.66584 93.7663C6.94761 95.0463 8.52518 95.9887 10.2225 96.6146C13.7579 97.9191 17.6525 97.9508 21.3675 97.7363C23.586 97.6062 25.8009 97.3776 28.0123 97.1772C30.5265 96.9521 33.0373 96.7271 35.5515 96.4985C40.6363 96.0414 45.7176 95.5843 50.8024 95.1272C55.8873 94.67 60.9122 94.2199 65.9654 93.7628C71.0185 93.3057 76.0751 92.8556 81.1283 92.3985C86.1814 91.9414 91.2381 91.4913 96.2912 91.0342C101.376 90.577 106.457 90.1199 111.542 89.6628C116.627 89.2057 121.652 88.7556 126.705 88.2985C131.758 87.8448 136.815 87.3912 141.868 86.9341C146.921 86.477 151.978 86.0269 157.031 85.5698C162.084 85.1127 167.197 84.6555 172.282 84.1984C177.367 83.7413 182.392 83.2912 187.445 82.8341C192.498 82.377 197.554 81.9269 202.608 81.4698C207.661 81.0126 212.717 80.5625 217.771 80.1054C220.225 79.8839 222.679 79.6659 225.134 79.4443C225.222 79.4373 225.363 79.3178 225.44 79.272C225.479 79.251 225.743 79.1349 225.743 79.0927C225.866 73.8288 225.989 68.5613 226.113 63.2974C226.236 58.0334 226.359 52.766 226.482 47.502C226.606 42.2522 226.729 37.0023 226.849 31.7489C226.947 27.5399 227.102 23.3132 226.662 19.1147C226.261 15.296 225.363 11.421 223.299 8.12975C221.236 4.83846 218.13 2.48956 214.485 1.28346C210.795 0.0632939 206.819 -0.0140653 202.981 0.3446C198.886 0.724363 194.864 1.62806 190.867 2.56692C185.881 3.74137 180.881 4.85956 175.87 5.92149C170.859 6.98342 165.894 7.98206 160.887 8.93147C155.879 9.88087 150.812 10.7846 145.759 11.632C140.706 12.4794 135.646 13.2671 130.575 14.002C125.504 14.7369 120.483 15.4085 115.43 16.0309C110.377 16.6533 105.253 17.2265 100.158 17.7399C95.0622 18.2532 89.9598 18.7139 84.8503 19.1183C79.7409 19.5226 74.6596 19.8708 69.5606 20.1626C64.4617 20.4545 59.3558 20.6936 54.2534 20.8764C49.1509 21.0593 44.0133 21.1859 38.8897 21.2562C33.7662 21.3265 28.6461 21.3441 23.5226 21.3019C18.399 21.2597 13.3353 21.1648 8.24347 21.0171C5.76796 20.9432 3.29246 20.8588 0.820473 20.7569C0.743004 20.7569 0.581022 20.8905 0.514116 20.9292C0.447211 20.9679 0.28875 21.112 0.211281 21.1085C5.33132 21.3124 10.4514 21.4637 15.5714 21.5586C20.6949 21.6535 25.815 21.6887 30.9385 21.6711C36.0621 21.6535 41.154 21.5797 46.2634 21.4496C51.3729 21.3195 56.4753 21.1366 61.5778 20.8975C66.6943 20.6584 71.8108 20.363 76.9203 20.0114C82.0297 19.6598 87.1392 19.2519 92.2381 18.7912C97.3124 18.3306 102.38 17.8172 107.443 17.2476C112.535 16.6744 117.62 16.0485 122.694 15.3663C127.768 14.6842 132.839 13.9457 137.903 13.1546C142.967 12.3634 147.96 11.523 152.974 10.6263C158.017 9.72616 163.049 8.7662 168.07 7.75701C173.092 6.74783 178.103 5.67887 183.099 4.55716C185.6 3.99806 188.096 3.42138 190.586 2.83416C192.554 2.37 194.523 1.91991 196.509 1.54367C200.453 0.79469 204.502 0.284822 208.523 0.597775C212.302 0.893147 216.045 2.00782 219.045 4.39189C222.045 6.77596 223.986 10.2114 225.021 13.8895C226.056 17.5676 226.327 21.7239 226.342 25.6727C226.349 27.9161 226.278 30.156 226.225 32.3994C226.165 35.0332 226.102 37.6634 226.042 40.2971C225.919 45.561 225.796 50.8285 225.672 56.0924C225.549 61.3564 225.429 66.564 225.306 71.7999C225.246 74.3457 225.186 76.888 225.127 79.4338L225.736 79.0822C220.651 79.5393 215.57 79.9964 210.485 80.4535C205.4 80.9107 200.375 81.3607 195.322 81.8179C190.269 82.275 185.212 82.7251 180.159 83.1822C175.106 83.6358 170.049 84.0894 164.996 84.5465C159.943 85.0037 154.83 85.4608 149.745 85.9179C144.692 86.3715 139.635 86.8251 134.582 87.2822C129.529 87.7394 124.473 88.1895 119.419 88.6466C114.366 89.1037 109.31 89.5538 104.256 90.0109C99.2033 90.468 94.0903 90.9252 89.0055 91.3823C83.9207 91.8394 78.8957 92.2895 73.8426 92.7466C68.7895 93.2037 63.7328 93.6538 58.6797 94.1109C53.6266 94.5681 48.5699 95.0181 43.5168 95.4753C38.4637 95.9324 33.3507 96.3895 28.2658 96.8466C24.1987 97.2123 20.0893 97.7081 16.001 97.3424C12.3846 97.0225 8.71885 95.9359 6.13066 93.267C3.36641 90.4153 2.44733 86.4032 2.11633 82.5668C1.93322 80.4465 1.91209 78.3156 1.86983 76.1882C1.81701 73.6424 1.76772 71.0966 1.71489 68.5508C1.61278 63.4873 1.51066 58.4238 1.40854 53.3602C1.30642 48.2967 1.2043 43.2332 1.10218 38.1697C1.00006 33.1062 0.897943 28.0427 0.795824 22.9792C0.746525 20.5213 0.697226 18.0634 0.647927 15.6055C0.647927 15.6301 0.373263 15.7602 0.34157 15.7778C0.306357 15.7989 0.0387348 15.9184 0.0387348 15.9571H0.0457775V15.9641Z" fill="var(--fill-0, white)"/>
</g>
<defs>
<clipPath id="clip0_12_3">
<rect width="227" height="98" fill="white"/>
</clipPath>
</defs>
</svg>
