<svg preserveAspectRatio="xMidYMid meet" width="100%" height="100%" overflow="visible" style="display: block;" viewBox="0 0 294 271" fill="none" xmlns="http://www.w3.org/2000/svg">
<g id="Ebene_5" clip-path="url(#clip0_12_13)">
<path id="Vector" d="M54.513 0.592445C54.5492 0.592445 54.6759 0.513452 54.6895 0.509502C54.8297 0.442359 54.9655 0.371265 55.1058 0.300172C55.246 0.229079 55.3818 0.161935 55.5221 0.0908415C55.5583 0.0710934 55.6533 0 55.694 0C55.6578 0 55.5311 0.0789926 55.5175 0.0829423C55.3773 0.150086 55.2415 0.221179 55.1012 0.292273C54.961 0.363366 54.8252 0.43051 54.6849 0.501603C54.6487 0.521351 54.5537 0.592445 54.513 0.592445Z" fill="var(--fill-0, white)"/>
<path id="Vector_2" d="M4.98658 45.5037L1.31678 42.4269C1.31678 42.4269 0.140276 42.968 0.140276 43.0194C0.280552 46.9809 0.529428 50.9423 0.89143 54.892C1.25343 58.8416 1.71951 62.7873 2.29871 66.7211C2.87792 70.6549 3.56572 74.573 4.3576 78.4752C5.14948 82.3775 6.04996 86.2323 7.05452 90.0832C8.05907 93.9341 9.18128 97.7929 10.403 101.608C10.5524 102.082 10.7062 102.556 10.8646 103.026C10.8601 103.01 11.4076 102.758 11.4574 102.734C11.5117 102.706 12.0501 102.473 12.0411 102.434C11.308 99.3451 10.5705 96.2565 9.83741 93.1718C9.84193 93.1915 9.29441 93.4364 9.24463 93.4641C9.19033 93.4917 8.65185 93.7247 8.6609 93.7642C9.39396 96.8529 10.1315 99.9415 10.8646 103.026L12.0411 102.434C10.7922 98.6223 9.65188 94.7833 8.61565 90.9245C7.57942 87.0657 6.65179 83.1832 5.83276 79.2849C5.01373 75.3866 4.29878 71.4686 3.69242 67.5426C3.08607 63.6167 2.59737 59.7026 2.21274 55.7688C1.82811 51.835 1.54756 47.8616 1.38013 43.9002C1.35751 43.4104 1.33941 42.9167 1.32131 42.4269L0.144801 43.0194C1.36656 44.0463 2.58832 45.0692 3.8146 46.0961C3.84175 46.1198 4.35308 45.8315 4.40738 45.8039C4.45715 45.7802 4.973 45.484 4.9911 45.5037H4.98658Z" fill="var(--fill-0, white)"/>
<path id="Vector_3" d="M7.89165 85.5411C5.58841 82.7685 4.47978 79.3599 4.4843 75.9475C4.48883 72.535 5.57483 69.0948 7.62014 66.1761C8.63375 64.7345 9.88266 63.4153 11.3488 62.3094C11.7062 62.0408 12.0773 61.7801 12.4574 61.5353C12.661 61.4049 12.8692 61.2785 13.0819 61.1561C13.1814 61.0968 13.281 61.0416 13.3805 60.9863C13.4303 60.9586 13.4801 60.931 13.5344 60.9033C13.566 60.8875 13.5977 60.8678 13.6294 60.852C13.8737 60.7256 13.7108 60.8085 13.1407 61.0968C13.1226 61.0692 13.2267 61.1403 13.2402 61.1561C13.2855 61.2114 13.2855 61.3773 13.3036 61.4484L13.4077 61.9342L13.6158 62.9018L14.0502 64.9398C15.1815 70.2402 16.3127 75.5406 17.444 80.841C18.5752 86.1415 19.7065 91.4419 20.8377 96.7423C21.4034 99.3925 21.969 102.043 22.5346 104.693C22.9238 106.514 23.5301 108.362 24.8876 109.827C25.4442 110.428 26.1592 110.969 27.028 111.17C28.0597 111.407 28.9511 111.068 29.8335 110.625C30.381 110.349 30.915 110.088 31.3449 109.677C31.725 109.318 32.0191 108.903 32.2725 108.473C32.8291 107.521 33.2137 106.482 33.6028 105.467C35.2862 101.087 36.3269 96.5211 36.7432 91.9158C37.1595 87.3105 36.9423 82.6855 36.1097 78.1356C35.2771 73.5856 33.8291 69.1225 31.7702 64.8806C31.2679 63.8458 30.7295 62.8228 30.1548 61.8196C30.1774 61.8591 29.0326 62.3094 28.9783 62.4121C27.39 65.4691 26.2406 68.692 25.5347 71.9899C24.8288 75.2879 24.5709 78.6609 24.7609 82.0101C24.951 85.3594 25.5845 88.6929 26.6705 91.9079C27.1909 93.4443 27.7746 94.9926 28.5755 96.4342C29.3267 97.785 30.2724 99.0646 31.4082 100.198C33.4037 102.197 36.3314 104.014 39.5261 103.484C40.2682 103.362 40.9651 103.113 41.6212 102.793C42.395 102.414 43.1778 102.043 43.8385 101.521C44.9109 100.672 45.6304 99.5386 46.101 98.3537C47.1417 95.7351 47.0467 92.8795 46.6621 90.1661C46.2412 87.2197 45.3498 84.3246 44.0466 81.5836C42.7434 78.8425 41.0284 76.2397 38.9605 73.8779C36.8925 71.516 34.4762 69.395 31.7612 67.6019C31.096 67.1595 30.4082 66.7409 29.7068 66.342C29.657 66.3143 29.1774 66.6026 29.114 66.6342C28.9737 66.7053 28.838 66.7725 28.6977 66.8436C28.6706 66.8554 28.5303 66.9107 28.5258 66.9344C28.3945 67.9416 28.2678 68.9487 28.1366 69.9559C28.1457 69.9006 28.657 69.6991 28.7294 69.6636C28.8697 69.5925 29.0054 69.5254 29.1457 69.4543C29.1728 69.4424 29.3131 69.3871 29.3176 69.3634C29.4489 68.3563 29.5756 67.3491 29.7068 66.342L28.5303 66.9344C31.3313 68.534 33.8698 70.4693 36.078 72.6614C38.2862 74.8534 40.1868 77.318 41.6936 79.9445C43.2004 82.571 44.3091 85.3318 44.9878 88.1913C45.6666 91.0508 46.0059 93.7879 45.5625 96.5487C45.3543 97.8324 44.9652 99.116 44.2638 100.265C43.9335 100.806 43.5353 101.316 43.0602 101.762C42.8249 101.983 42.5714 102.189 42.2999 102.378C42.1551 102.477 42.0058 102.572 41.852 102.659C41.4085 102.923 42.8294 102.197 42.4493 102.363C42.3452 102.406 42.2411 102.453 42.137 102.497C40.766 103.034 39.2365 103.121 37.793 102.765C36.3495 102.41 34.9739 101.636 33.8381 100.731C32.5892 99.74 31.5394 98.567 30.6661 97.311C29.7928 96.055 29.1004 94.6174 28.5258 93.1797C27.2814 90.0516 26.4714 86.7931 26.1049 83.4992C25.7383 80.2052 25.8017 76.8954 26.2995 73.6251C26.7972 70.3548 27.7203 67.1358 29.0733 64.0591C29.4081 63.3007 29.7656 62.5543 30.1502 61.8157L28.9737 62.4081C30.6706 65.3901 32.0598 68.5024 33.1232 71.6977C34.1866 74.8929 34.9242 78.1435 35.345 81.4374C35.7658 84.7314 35.8699 88.0886 35.6436 91.4103C35.4174 94.7319 34.8653 98.0377 33.9829 101.276C33.544 102.888 33.0236 104.484 32.4173 106.055C32.1277 106.81 31.8336 107.564 31.4851 108.299C31.1774 108.951 30.8109 109.594 30.2905 110.135C30.1729 110.258 30.0416 110.376 29.9059 110.483C29.838 110.538 29.7701 110.59 29.6977 110.637C29.657 110.665 29.6163 110.692 29.571 110.72C29.0552 111.04 30.7385 110.191 30.2634 110.376C29.9421 110.503 29.6118 110.598 29.2588 110.633C28.6434 110.696 28.028 110.578 27.485 110.321C26.2723 109.744 25.4623 108.631 24.8876 107.572C24.1727 106.245 23.8605 104.851 23.5528 103.417L22.331 97.6981C21.512 93.8669 20.6975 90.0397 19.8784 86.2086C19.0594 82.3775 18.2449 78.5503 17.4259 74.7191C16.6068 70.888 15.7969 67.0924 14.9824 63.277L14.3805 60.4649L14.3579 60.4728C13.2176 61.0139 12.0818 61.5866 11.0456 62.2699C10.1813 62.8426 9.37585 63.4864 8.6428 64.1894C7.17217 65.5955 5.99114 67.2267 5.1178 68.9685C3.35757 72.4876 2.81457 76.5004 3.7422 80.2644C4.26257 82.3696 5.25356 84.3799 6.70609 86.1257C6.73776 86.1652 7.85997 85.5056 7.8826 85.5332L7.89165 85.5411Z" fill="var(--fill-0, white)"/>
<path id="Vector_4" d="M40.318 67.6414C40.5895 72.2822 41.3949 76.8954 42.7163 81.3979C43.3724 83.6334 44.1597 85.8413 45.0647 88.0057C45.5172 89.0839 45.9969 90.1503 46.5082 91.2049C46.9336 92.0778 47.4268 92.919 48.0513 93.6971C49.1192 95.0281 50.7617 96.4855 52.7799 96.3828C53.2369 96.3592 53.6849 96.2525 54.0967 96.0787C54.6578 95.8457 55.2234 95.5613 55.7393 95.2533C56.4633 94.8188 56.9565 94.1671 57.2733 93.4641C58.0425 91.7657 57.943 89.8739 57.943 88.0847C57.943 85.5846 57.943 83.0844 57.943 80.5883C57.943 75.6236 57.9475 70.655 57.952 65.6903C57.952 65.0662 57.952 64.4422 57.952 63.8142L56.7755 64.4066C57.3049 69.79 58.2099 75.1457 59.4905 80.4303C60.1331 83.0884 60.8752 85.7307 61.7033 88.3493C62.1105 89.629 62.5313 90.9047 62.9884 92.1725C63.3232 93.0928 63.7576 93.9933 64.3233 94.8267C65.3504 96.3355 67.0699 97.7889 69.251 97.2952C69.8347 97.1609 70.3461 96.8766 70.8619 96.6119C71.3144 96.3828 71.7443 96.1538 72.1063 95.8181C72.8032 95.1782 73.233 94.3409 73.5317 93.5036C73.8484 92.611 74.0204 91.6828 74.129 90.7586C74.2919 89.3565 74.4503 87.9504 74.6086 86.5443C74.9254 83.7677 75.2421 80.9911 75.5589 78.2185C76.1969 72.6337 76.835 67.0489 77.473 61.4642C77.5499 60.7769 77.6314 60.0936 77.7083 59.4064C77.7038 59.4617 77.1879 59.6631 77.1155 59.6987C76.9752 59.7698 76.8395 59.8369 76.6992 59.908C76.672 59.9199 76.5318 59.9791 76.5272 59.9989C75.9028 65.4849 75.2738 70.9709 74.6494 76.457C74.3371 79.1822 74.0249 81.9114 73.7172 84.6366C73.5634 85.9914 73.4095 87.3461 73.2511 88.7008C73.1154 89.8976 73.0204 91.1061 72.8122 92.2989C72.5136 93.9973 71.9253 95.8654 70.242 96.9082L71.0927 96.4776L70.9977 96.5171C70.9388 96.5408 70.8755 96.5645 70.8121 96.5843C70.7081 96.6198 70.5995 96.6514 70.4909 96.6791C70.2375 96.7423 69.9795 96.7778 69.7171 96.7897C69.242 96.8134 68.7623 96.7462 68.3188 96.5961C67.4003 96.2881 66.6582 95.664 66.0744 94.9847C64.5993 93.2705 63.9884 91.1417 63.3187 89.1195C62.4725 86.568 61.7214 83.9968 61.0517 81.4058C59.7304 76.2555 58.762 71.0381 58.1556 65.789C58.0787 65.1294 58.0108 64.4698 57.943 63.8063C57.943 63.8379 57.4045 64.0709 57.3502 64.0986C57.2099 64.1697 57.0742 64.2368 56.9339 64.3079C56.9113 64.3197 56.7619 64.379 56.7619 64.3987C56.7619 69.2647 56.7574 74.1346 56.7529 79.0005C56.7529 81.4493 56.7529 83.902 56.7529 86.3508C56.7529 87.5673 56.7529 88.7838 56.7529 90.0002C56.7529 90.8257 56.7122 91.6551 56.5583 92.4727C56.4045 93.2903 56.1692 94.0328 55.7121 94.7161C55.4995 95.036 55.237 95.3283 54.9248 95.5771C54.8478 95.6364 54.7709 95.6956 54.6895 95.747C54.2867 96.0116 53.9655 95.9839 55.3456 95.4389C55.1103 95.5297 54.884 95.6206 54.6352 95.6798C52.712 96.134 50.9699 94.9886 49.807 93.7682C48.3409 92.2357 47.5218 90.3597 46.7073 88.5191C45.7706 86.3942 44.9516 84.2298 44.2548 82.0338C42.8746 77.6734 41.9787 73.1946 41.594 68.6841C41.5488 68.1351 41.5081 67.5861 41.4764 67.0371C41.4764 67.0726 40.9424 67.2978 40.8836 67.3294C40.8203 67.361 40.2954 67.5703 40.2999 67.6295L40.318 67.6414Z" fill="var(--fill-0, white)"/>
<path id="Vector_5" d="M110.967 35.1083C111.655 38.7617 112.347 42.4111 113.035 46.0645L115.103 57.0208C115.791 60.6584 116.474 64.2921 117.162 67.9297C117.85 71.5673 118.542 75.2326 119.23 78.886C119.918 82.5394 120.61 86.1888 121.298 89.8423L121.556 91.2049C121.551 91.1812 122.094 90.9403 122.149 90.9126C122.203 90.885 122.741 90.6598 122.732 90.6124C122.044 86.959 121.352 83.3096 120.664 79.6562C119.977 76.0027 119.284 72.3533 118.596 68.6999C117.909 65.0465 117.225 61.4286 116.538 57.791C115.85 54.1534 115.157 50.4881 114.47 46.8347C113.782 43.1813 113.089 39.5319 112.402 35.8784L112.144 34.5158C112.148 34.5395 111.605 34.7805 111.551 34.8081C111.497 34.8357 110.958 35.0609 110.967 35.1083Z" fill="var(--fill-0, white)"/>
<path id="Vector_6" d="M108.958 64.375C113.411 63.4034 117.863 62.4318 122.321 61.4602L126.153 60.6229C126.348 60.5794 126.57 60.4215 126.746 60.3306C126.886 60.2595 127.022 60.1924 127.162 60.1213C127.212 60.0976 127.28 60.0423 127.334 60.0304C122.882 61.0021 118.429 61.9737 113.972 62.9453L110.139 63.7826C109.945 63.826 109.723 63.984 109.546 64.0749C109.406 64.146 109.27 64.2131 109.13 64.2842C109.08 64.3079 109.012 64.3632 108.958 64.375Z" fill="var(--fill-0, white)"/>
<path id="Vector_7" d="M138.126 59.0154C137.113 58.3558 135.873 58.0793 134.62 58.1741C133.126 58.2887 131.859 58.9048 130.592 59.5565C129.443 60.1489 128.434 60.9112 127.683 61.8828C126.782 63.048 126.352 64.458 126.198 65.8443C125.846 68.9645 126.809 72.1124 127.646 75.118C128.411 77.8551 129.316 80.6396 131.063 83.037C131.868 84.1429 132.855 85.1896 134.058 85.9874C135.117 86.6865 136.335 87.196 137.611 87.508C138.887 87.82 140.181 87.9267 141.475 87.7885C142.095 87.7213 142.706 87.5949 143.289 87.4014C144.045 87.1526 144.742 86.7734 145.43 86.414C146.593 85.8057 147.498 84.9329 148.054 83.8507C148.701 82.5907 148.842 81.1768 148.724 79.8102C148.606 78.4436 148.208 77.002 147.724 75.6433C147.24 74.2847 146.674 73.0129 146.014 71.745C144.688 69.2133 142.995 66.8238 141.004 64.6476C139.013 62.4713 136.71 60.5083 134.167 58.8298C133.543 58.419 132.905 58.024 132.248 57.6449C132.199 57.6172 131.719 57.9055 131.656 57.9371C131.592 57.9687 131.117 58.265 131.072 58.2373C133.633 59.7184 135.986 61.476 138.068 63.4469C140.149 65.4177 141.982 67.6295 143.48 69.9875C144.977 72.3454 146.158 74.8337 146.946 77.4246C147.733 80.0156 148.095 82.9659 146.353 85.2725C146.005 85.7307 145.579 86.1454 145.09 86.493C144.977 86.5759 144.855 86.6549 144.733 86.726C144.665 86.7694 144.597 86.805 144.525 86.8484C144.176 87.0499 145.633 86.331 145.158 86.5285C144.878 86.647 144.597 86.7576 144.303 86.8524C143.14 87.2118 141.878 87.3066 140.651 87.2079C138.054 86.9985 135.615 85.9479 133.85 84.2772C131.733 82.2748 130.502 79.7075 129.619 77.1284C129.171 75.8092 128.805 74.4742 128.447 73.1353C128.045 71.6266 127.656 70.1139 127.452 68.5774C127.09 65.868 127.303 62.807 129.425 60.6426C129.841 60.2161 130.316 59.829 130.837 59.4933C130.968 59.4064 131.104 59.3235 131.239 59.2484C131.271 59.2326 131.303 59.2129 131.334 59.1971C131.579 59.0588 131.914 58.9601 130.705 59.5091C130.782 59.4735 130.859 59.438 130.936 59.4024C131.23 59.2721 131.533 59.1615 131.846 59.0667C132.977 58.7231 134.221 58.6204 135.38 58.9087C135.954 59.0509 136.484 59.2879 136.964 59.5999C137.004 59.6276 137.497 59.3393 137.556 59.3077C137.615 59.2761 138.104 58.9838 138.14 59.0075L138.126 59.0154Z" fill="var(--fill-0, white)"/>
<path id="Vector_8" d="M190.454 51.0924C188.237 51.1398 186.042 51.6059 184.046 52.4471C182.051 53.2884 179.96 54.4299 178.417 55.9347C176.974 57.3368 175.965 59.047 175.553 60.8994C175.141 62.7517 175.295 64.6002 175.969 66.342C176.643 68.0837 177.843 69.628 179.517 70.7102C181.191 71.7924 183.105 72.3059 185.096 72.377C186.078 72.4125 187.065 72.3296 188.019 72.1242C189.042 71.903 189.965 71.5239 190.875 71.0697C191.784 70.6155 192.734 70.102 193.495 69.4029C194.137 68.8144 194.644 68.1193 195.001 67.3689C196.382 64.4856 195.644 60.7295 192.848 58.6718C192.504 58.419 192.133 58.1978 191.743 58.0082C191.685 57.9806 191.219 58.265 191.151 58.3005C191.105 58.3203 190.562 58.5928 190.567 58.6007C193.128 62.6609 195.232 66.9344 196.866 71.3461C198.486 75.7302 199.64 80.2447 200.305 84.8104C200.97 89.3762 201.151 94.0012 200.825 98.5946C200.744 99.7519 200.631 100.905 200.486 102.058C200.364 103.038 200.219 104.017 199.952 104.977C199.698 105.882 199.345 106.774 198.784 107.572C198.513 107.955 198.196 108.311 197.83 108.623C197.662 108.765 197.486 108.895 197.3 109.018C197.223 109.069 197.142 109.116 197.065 109.164C196.802 109.318 196.554 109.306 197.716 108.84C197.558 108.903 197.409 108.97 197.246 109.03C195.359 109.685 193.363 109.18 191.725 108.251C189.811 107.169 188.268 105.605 186.992 103.974C186.318 103.109 185.739 102.201 185.16 101.284C184.503 100.242 183.852 99.1989 183.223 98.1444C181.988 96.0669 180.843 93.9459 179.947 91.7381C179.051 89.5302 178.422 87.3382 178.214 85.0553C178.042 83.1792 178.186 81.2795 178.648 79.4468C179.549 75.8843 181.748 72.4441 185.359 70.4772C185.408 70.4496 185.454 70.4259 185.503 70.3982L184.96 70.6747C185.015 70.651 185.069 70.6234 185.123 70.5997C185.255 70.5404 185.39 70.4812 185.526 70.4259C185.825 70.2995 186.128 70.1849 186.436 70.0783C187.001 69.8808 187.576 69.7149 188.16 69.5688C189.341 69.2805 190.549 69.0909 191.766 68.9487C194.223 68.6683 196.698 68.5853 199.16 68.3405C201.486 68.1074 203.834 67.7322 205.979 66.8791C207.015 66.4683 208.011 65.9588 208.97 65.4296C209.767 64.9912 210.522 64.4896 211.219 63.9406C214.074 61.6932 216.047 58.6244 216.898 55.362C217.749 52.0996 217.459 48.5607 215.69 45.5669C213.853 42.4585 209.527 39.3383 205.278 40.5785C204.789 40.7207 204.341 40.9261 203.893 41.1473C203.35 41.4158 202.789 41.6805 202.291 42.0122C201.554 42.5099 200.952 43.1458 200.49 43.8488C199.49 45.3813 199.097 47.1744 198.934 48.9162C198.748 50.8634 198.816 52.8579 199.042 54.8011C199.282 56.847 199.821 58.9285 201.115 60.6782C202.205 62.1514 203.794 63.2573 205.667 63.8774C207.54 64.4975 209.477 64.6239 211.396 64.4185C213.459 64.1934 215.332 63.5377 217.12 62.6332C218.047 62.1672 218.948 61.6735 219.749 61.0494C220.55 60.4254 221.328 59.6513 221.975 58.8534C224.645 55.5713 225.622 51.4321 225.582 47.4627C225.532 42.6402 223.948 37.952 222.477 33.3467C221.002 28.7257 219.586 24.0098 219.717 19.1715C219.781 16.9005 220.206 14.6373 221.124 12.5045L219.948 13.097C222.527 17.801 224.559 22.7301 226.002 27.7896C227.446 32.8491 228.324 38.0626 228.586 43.284C228.736 46.2146 228.69 49.1532 228.455 52.0798L229.632 51.4874C223.464 50.8949 217.495 48.9162 212.409 45.8157C210.979 44.9429 209.622 43.9791 208.35 42.9404L207.174 43.5328C214.047 42.1939 220.921 40.851 227.794 39.5121C234.668 38.1732 241.541 36.8303 248.415 35.4914C252.275 34.741 256.135 33.9866 259.994 33.2361C260.189 33.1967 260.415 33.0308 260.587 32.9439C260.727 32.8728 260.863 32.8056 261.004 32.7345C261.049 32.7108 261.121 32.6556 261.175 32.6437C254.302 33.9826 247.428 35.3255 240.555 36.6644C233.681 38.0034 226.808 39.3462 219.934 40.6852C216.075 41.4356 212.215 42.19 208.355 42.9404C208.16 42.9799 207.934 43.1458 207.762 43.2327C207.712 43.2564 207.201 43.5526 207.178 43.5328C211.708 47.2376 217.305 49.9075 223.315 51.2623C225.002 51.6414 226.722 51.9179 228.46 52.0838C228.487 52.0838 228.631 52.0008 228.636 52.0008C228.776 51.9337 228.912 51.8626 229.052 51.7915C229.193 51.7204 229.328 51.6533 229.469 51.5822C229.491 51.5703 229.636 51.5111 229.641 51.4913C230.057 46.2897 229.867 41.0564 229.084 35.8863C228.297 30.7044 226.912 25.5897 224.957 20.6487C223.858 17.876 222.582 15.1547 221.129 12.5085C221.156 12.5559 219.998 12.9943 219.952 13.1009C218.043 17.5561 218.319 22.4339 219.337 27.0313C220.4 31.838 222.31 36.463 223.464 41.2539C224.477 45.4603 224.862 49.8285 223.613 54.031C223.048 55.9347 222.152 57.7752 220.853 59.3867C220.206 60.1884 219.464 60.9428 218.631 61.5984C218.274 61.8789 217.898 62.1435 217.504 62.3844C217.296 62.5108 217.088 62.6293 216.871 62.7478C216.491 62.9571 217.717 62.3331 217.396 62.4832C217.342 62.5108 217.283 62.5345 217.228 62.5622C217.12 62.6135 217.007 62.6609 216.894 62.7083C213.45 64.1776 209.083 64.4303 205.644 62.811C203.789 61.9381 202.391 60.532 201.522 58.8614C200.531 56.9576 200.214 54.8367 200.083 52.7671C199.97 50.9068 199.943 49.0189 200.246 47.1704C200.522 45.4998 201.074 43.7817 202.287 42.4348C202.576 42.111 202.902 41.8147 203.264 41.5541C203.45 41.4198 203.644 41.2973 203.848 41.1789C204.319 40.9024 202.762 41.6923 203.318 41.4474C203.477 41.3803 203.635 41.3171 203.798 41.2618C204.73 40.9419 205.744 40.8392 206.735 40.9379C208.844 41.1473 210.767 42.19 212.246 43.4775C215.124 45.9777 216.328 49.5916 216.156 53.0751C215.984 56.5587 214.617 59.6868 212.319 62.3449C211.165 63.676 209.776 64.8569 208.187 65.789C207.997 65.8996 207.803 66.0062 207.608 66.1129C207.323 66.2669 208.45 65.7021 208.092 65.868C208.047 65.8877 208.006 65.9075 207.961 65.9312C207.834 65.9904 207.703 66.0497 207.577 66.105C207.129 66.2985 206.672 66.4723 206.205 66.6263C205.11 66.9857 203.975 67.2385 202.825 67.4242C198.002 68.218 192.92 67.8349 188.241 69.2686C187.01 69.6478 185.879 70.181 184.757 70.7576C183.856 71.2197 183.006 71.7411 182.236 72.3651C180.711 73.5974 179.526 75.1299 178.68 76.7848C176.883 80.296 176.585 84.2535 177.395 88.0017C178.395 92.6109 180.829 96.8568 183.377 100.941C184.526 102.781 185.671 104.602 187.227 106.213C188.603 107.635 190.295 109.014 192.345 109.638C193.237 109.91 194.201 110.009 195.133 109.855C195.608 109.776 196.065 109.634 196.495 109.444C197.101 109.18 197.707 108.879 198.269 108.544C200.033 107.493 200.821 105.649 201.237 103.895C201.468 102.923 201.594 101.932 201.712 100.949C201.848 99.7953 201.952 98.642 202.024 97.4848C202.169 95.2019 202.187 92.9111 202.083 90.6243C201.875 86.0506 201.178 81.4967 200.011 77.0336C198.839 72.5587 197.196 68.1785 195.092 63.9722C194.078 61.9421 192.956 59.9515 191.734 58.0122L190.558 58.6046C193.648 60.1094 194.952 63.4587 194.341 66.4012C194.024 67.9179 193.191 69.3239 191.875 70.3627C191.517 70.6431 191.133 70.888 190.734 71.1171C190.418 71.2987 191.739 70.6352 191.323 70.8208C191.277 70.8406 191.237 70.8603 191.191 70.8801C191.078 70.9314 190.961 70.9788 190.843 71.0262C190.626 71.1131 190.409 71.1881 190.187 71.2592C189.304 71.5397 188.372 71.7095 187.436 71.7648C185.549 71.8793 183.617 71.5555 181.933 70.7932C180.25 70.0309 178.82 68.7552 177.897 67.2662C175.987 64.1855 176.042 60.2556 178.033 57.2144C179.073 55.6227 180.589 54.2798 182.345 53.2805C182.44 53.2292 182.535 53.1778 182.626 53.1225C183.006 52.9093 181.942 53.4543 182.245 53.3121C182.309 53.2805 182.372 53.2529 182.435 53.2213C182.689 53.1067 182.947 52.9961 183.205 52.8935C183.675 52.7078 184.16 52.538 184.653 52.3958C185.648 52.0996 186.68 51.8942 187.725 51.7797C188.241 51.7244 188.757 51.6928 189.273 51.6809C189.309 51.6809 189.431 51.6059 189.449 51.598C189.59 51.5308 189.725 51.4597 189.866 51.3886C190.006 51.3176 190.142 51.2504 190.282 51.1793C190.318 51.1596 190.413 51.0885 190.454 51.0885V51.0924Z" fill="var(--fill-0, white)"/>
<path id="Vector_9" d="M43.5081 134.445C41.1144 129.686 37.3767 125.464 32.7205 122.229C31.4127 121.317 30.0281 120.487 28.5891 119.745C28.5348 119.717 28.0642 120.002 27.9963 120.037C27.8561 120.108 27.7203 120.175 27.58 120.247C27.5484 120.262 27.4171 120.31 27.4081 120.337C25.942 125.263 26.2859 130.405 27.3447 135.362C28.4036 140.319 30.2227 145.457 31.8562 150.449C33.4897 155.442 35.2183 160.718 36.9016 165.857C38.5849 170.991 40.2637 176.126 41.947 181.264C43.6303 186.403 45.3227 191.565 47.006 196.719C47.2141 197.351 47.4178 197.983 47.6259 198.615L48.8024 198.023C45.6892 195.724 42.6755 193.319 39.784 190.811C36.8925 188.303 34.1096 185.696 31.4489 182.994C28.7882 180.293 26.2768 177.524 23.8831 174.661C22.684 173.227 21.4939 171.777 20.3852 170.288C19.3445 168.89 18.3264 167.219 18.7743 165.497C18.9237 164.929 19.2314 164.399 19.6658 163.957C19.8784 163.74 20.1137 163.542 20.3717 163.369C20.5119 163.27 20.6658 163.187 20.8106 163.096C20.9916 162.985 19.6658 163.645 20.1771 163.42C20.2721 163.377 20.3671 163.337 20.4622 163.301C21.779 162.792 23.2767 162.63 24.7021 162.788C26.4578 162.978 28.1004 163.712 29.5982 164.494C31.2544 165.359 32.82 166.355 34.5305 167.144C37.5803 168.558 41.0782 169.096 44.5082 168.784C46.205 168.63 47.8838 168.27 49.4676 167.709C50.2278 167.441 50.9654 167.121 51.6803 166.769C52.5401 166.347 53.3953 165.916 54.2008 165.415C56.961 163.689 59.0154 161.208 60.1783 158.436C61.3413 155.663 61.6218 152.645 60.9159 149.778C60.7394 149.071 60.5041 148.376 60.21 147.696C60.21 147.704 59.6625 147.965 59.6172 147.989C59.4769 148.06 59.3412 148.127 59.2009 148.198C59.1738 148.21 59.0335 148.269 59.029 148.289C58.4814 152.973 58.7484 157.725 59.7846 162.346C60.8209 166.967 62.6037 171.406 65.088 175.553C66.4907 177.895 68.1152 180.135 69.9479 182.24C69.9388 182.232 71.1063 181.73 71.1244 181.647C71.9253 177.595 72.4683 173.503 72.7488 169.4C73.0294 165.296 73.043 161.177 72.7986 157.073C72.6583 154.762 72.4366 152.456 72.1334 150.161C72.1334 150.193 71.595 150.426 71.5407 150.453C71.4818 150.485 70.9479 150.702 70.9569 150.753C71.5814 155.608 72.862 160.395 74.7399 164.996C76.6177 169.597 79.0748 173.958 82.0749 178.049C83.7718 180.364 85.6452 182.58 87.6724 184.677C87.6814 184.689 88.7901 184.163 88.8489 184.084L93.6454 177.595C93.6318 177.615 93.4735 177.674 93.4689 177.678C93.3287 177.745 93.1929 177.816 93.0526 177.887C92.9124 177.959 92.7766 178.026 92.6363 178.097C92.5911 178.12 92.4915 178.152 92.4644 178.188C90.867 180.352 89.2652 182.512 87.6679 184.677L88.8444 184.084C85.2379 180.348 82.1337 176.248 79.5997 171.892C77.0657 167.535 75.1245 162.982 73.7896 158.266C73.0339 155.6 72.4773 152.89 72.1244 150.161L70.9479 150.753C71.4909 154.837 71.7714 158.949 71.785 163.061C71.7986 167.172 71.5542 171.284 71.0474 175.372C70.7624 177.67 70.3913 179.961 69.9433 182.24L71.1198 181.647C67.8573 177.895 65.2554 173.717 63.3866 169.301C61.5313 164.909 60.391 160.284 60.038 155.612C59.8389 152.973 59.8932 150.323 60.2009 147.693L59.0244 148.285C60.2191 151.034 60.4046 154.071 59.6851 156.939C58.9656 159.806 57.3502 162.504 54.961 164.569C54.3546 165.091 53.703 165.572 53.0107 166.007C52.8252 166.125 52.6351 166.236 52.4451 166.347C52.1962 166.489 51.4133 166.84 52.4451 166.37C52.0514 166.552 51.6577 166.73 51.2504 166.888C49.7074 167.492 48.0603 167.907 46.386 168.116C43.0239 168.539 39.5125 168.148 36.4355 166.876C34.6979 166.157 33.1232 165.181 31.4987 164.293C29.9602 163.452 28.304 162.614 26.5031 162.286C25.1048 162.034 23.6071 162.105 22.2496 162.504C21.4034 162.752 20.6341 163.159 19.8739 163.558C19.3219 163.846 18.8105 164.194 18.4033 164.636C17.3354 165.806 17.2947 167.33 17.8739 168.693C18.2268 169.526 18.7562 170.292 19.3128 171.027C19.8694 171.762 20.4531 172.496 21.0414 173.223C23.3627 176.114 25.8198 178.922 28.3945 181.644C30.9693 184.365 33.716 187.039 36.5577 189.594C39.3994 192.15 42.3316 194.583 45.3815 196.925C46.1236 197.493 46.8702 198.054 47.6214 198.611C47.6621 198.639 48.8024 198.031 48.7979 198.019C47.11 192.868 45.4222 187.718 43.7389 182.564C42.0556 177.41 40.3632 172.263 38.6799 167.109C36.9966 161.955 35.3178 156.84 33.6345 151.701C32.7974 149.146 31.9557 146.595 31.1277 144.039C30.2996 141.484 29.5665 139.114 28.9466 136.618C27.7248 131.689 27.0597 126.558 28.1185 121.558C28.2497 120.946 28.4036 120.341 28.5801 119.741L27.4036 120.333C32.5259 122.98 36.879 126.732 39.9967 131.155C40.8746 132.4 41.6529 133.699 42.3226 135.034C42.3045 135.002 43.5217 134.489 43.4991 134.442L43.5081 134.445Z" fill="var(--fill-0, white)"/>
<path id="Vector_10" d="M109.564 155.161C107.429 151.085 105.162 146.808 101.234 143.786C99.537 142.479 97.5912 141.507 95.3876 141.033C93.3784 140.599 91.2336 140.544 89.2199 140.986C88.1882 141.211 87.247 141.586 86.3239 142.045C85.3601 142.526 84.4279 143.02 83.6587 143.731C81.9347 145.327 81.2876 147.523 81.3826 149.671C81.4867 152.069 82.36 154.403 83.3329 156.627C84.1655 158.53 85.1203 160.398 86.238 162.192C88.3828 165.624 91.2336 168.989 95.2156 170.932C97.1387 171.872 99.3017 172.421 101.51 172.469C103.718 172.516 105.958 172.01 107.935 171.098C110.094 170.103 112.062 168.914 113.7 167.322C115.338 165.73 116.533 164.008 117.42 162.101C119.515 157.594 119.167 152.558 117.782 147.933C116.262 142.846 113.515 138.146 110.831 133.47C108.148 128.794 105.601 124.251 104.302 119.239C103.99 118.039 103.763 116.826 103.623 115.602C103.623 115.633 103.085 115.866 103.03 115.894C102.89 115.965 102.754 116.032 102.614 116.103C102.587 116.115 102.447 116.174 102.442 116.194C102.143 119.472 102.125 122.766 102.379 126.045C102.632 129.323 103.153 132.558 103.935 135.761C104.718 138.964 105.754 142.116 107.044 145.192C108.334 148.269 109.863 151.263 111.637 154.146C113.411 157.029 115.415 159.802 117.651 162.433C117.931 162.764 118.221 163.096 118.51 163.424C118.501 163.416 119.682 162.906 119.687 162.831C119.963 158.38 120.239 153.929 120.515 149.482C120.791 145.034 121.067 140.579 121.343 136.132C121.497 133.636 121.651 131.14 121.809 128.643L120.633 129.236C121.004 132.265 121.375 135.295 121.954 138.296C122.533 141.298 123.298 144.244 124.465 147.1C125.493 149.612 126.827 152.017 128.561 154.217C130.185 156.279 132.14 158.155 134.407 159.691C136.674 161.228 139.149 162.357 141.869 162.997C142.208 163.076 142.547 163.147 142.891 163.211C142.914 163.215 143.072 163.124 143.068 163.128C143.208 163.061 143.344 162.989 143.484 162.918C143.624 162.847 143.76 162.78 143.9 162.709C143.928 162.693 144.045 162.614 144.072 162.618C141.317 162.105 138.724 161.062 136.43 159.64C134.135 158.218 132.086 156.405 130.389 154.411C128.692 152.416 127.203 150.019 126.117 147.598C124.845 144.766 123.99 141.804 123.361 138.814C122.732 135.824 122.33 132.791 121.959 129.761C121.913 129.386 121.868 129.015 121.823 128.639C121.823 128.671 121.284 128.904 121.23 128.932C121.09 129.003 120.954 129.07 120.814 129.141C120.791 129.153 120.646 129.212 120.642 129.232C120.366 133.683 120.09 138.134 119.814 142.582C119.538 147.029 119.262 151.484 118.986 155.931C118.832 158.428 118.678 160.924 118.52 163.42L119.696 162.827C117.397 160.225 115.32 157.472 113.483 154.604C111.646 151.737 110.062 148.775 108.714 145.722C107.365 142.669 106.266 139.529 105.42 136.337C104.573 133.146 103.99 129.907 103.668 126.645C103.347 123.383 103.297 120.104 103.528 116.838C103.555 116.423 103.591 116.013 103.628 115.598L102.451 116.19C103.017 121.183 105.148 125.891 107.596 130.385C110.044 134.88 112.945 139.422 115.008 144.185C117.026 148.846 118.37 153.957 117.452 158.945C116.728 162.879 114.384 166.659 110.936 169.277C110.519 169.593 110.085 169.893 109.637 170.17C109.411 170.312 109.18 170.446 108.945 170.577C108.877 170.616 108.804 170.648 108.736 170.687C108.664 170.731 109.555 170.288 109.207 170.45C109.071 170.513 108.935 170.577 108.795 170.64C107.804 171.074 106.754 171.406 105.668 171.615C103.533 172.026 101.293 171.927 99.1976 171.378C94.9894 170.269 91.7404 167.429 89.324 164.328C88.0299 162.67 86.9348 160.892 85.9755 159.071C84.9528 157.128 84.0343 155.118 83.3646 153.06C82.6541 150.88 82.2152 148.51 82.8849 146.279C83.1836 145.287 83.6994 144.343 84.437 143.541C84.7357 143.214 85.0705 142.913 85.437 142.641C85.609 142.511 85.7855 142.388 85.971 142.274C86.0751 142.206 86.1791 142.143 86.2877 142.084C86.3466 142.052 86.4009 142.021 86.4597 141.989C85.7809 142.321 85.5728 142.428 85.8262 142.309C85.8579 142.293 85.885 142.282 85.9167 142.266C89.5095 140.638 94.1839 141.073 97.6184 142.807C101.962 144.999 104.682 149.008 106.827 152.827C107.37 153.795 107.886 154.77 108.402 155.75C108.388 155.722 109.601 155.201 109.578 155.157L109.564 155.161Z" fill="var(--fill-0, white)"/>
<path id="Vector_11" d="M144.783 149.817C147.615 147.191 150.557 144.442 152.091 141.029C152.751 139.556 153.118 138.004 152.987 136.416C152.873 134.991 152.412 133.577 151.611 132.328C150.81 131.08 149.756 130.101 148.362 129.465C146.968 128.829 145.366 128.647 143.855 128.94C143.118 129.082 142.434 129.346 141.778 129.666C140.973 130.065 140.167 130.46 139.461 130.99C138.253 131.898 137.321 133.071 136.647 134.327C135.973 135.583 135.502 137.072 135.375 138.518C135.249 139.963 135.488 141.511 135.954 142.949C136.918 145.947 138.9 148.656 141.475 150.793C144.05 152.93 147.285 154.545 150.756 155.311C154.226 156.078 158.154 155.947 161.697 155.023C163.494 154.553 165.204 153.886 166.833 153.076C168.575 152.211 170.245 151.279 171.756 150.125C174.662 147.906 176.906 145.094 178.254 141.934C179.68 138.589 180.128 134.951 179.684 131.408C179.463 129.627 179.015 127.869 178.349 126.175C177.684 124.481 176.852 122.861 175.748 121.384C174.743 120.041 173.34 118.686 171.453 118.37C170.548 118.22 169.625 118.343 168.797 118.686C168.263 118.908 167.747 119.184 167.245 119.453C166.883 119.642 166.544 119.863 166.231 120.116C164.702 121.356 164.059 123.102 163.928 124.883C163.788 126.835 164.114 128.817 164.381 130.749C164.856 134.224 165.67 138.059 168.453 140.745C170.693 142.902 174.417 144.347 177.743 143.466C178.711 143.21 179.612 142.732 180.458 142.258C181.155 141.867 181.766 141.365 182.259 140.785C183.3 139.556 183.798 138.044 184.015 136.547C184.246 134.943 184.16 133.324 183.974 131.72C183.757 129.848 183.44 127.984 183.019 126.139C182.182 122.446 180.947 118.825 179.336 115.333C177.725 111.842 175.748 108.481 173.426 105.309C172.299 103.773 171.091 102.28 169.806 100.838C169.811 100.846 168.625 101.363 168.63 101.43C168.865 105.621 169.603 109.784 170.802 113.844C172.001 117.904 173.657 121.862 175.725 125.65C177.793 129.437 180.277 133.055 183.119 136.44C185.96 139.825 189.173 142.969 192.703 145.816C196.232 148.66 200.079 151.204 204.192 153.376C204.703 153.645 205.219 153.909 205.739 154.17C205.798 154.198 206.264 153.913 206.332 153.878C206.472 153.807 206.608 153.739 206.748 153.668C206.771 153.656 206.907 153.574 206.92 153.577C202.744 151.5 198.825 149.043 195.214 146.275C191.603 143.506 188.314 140.425 185.377 137.104C182.44 133.782 179.865 130.211 177.693 126.467C175.521 122.723 173.756 118.801 172.444 114.768C171.132 110.736 170.272 106.589 169.915 102.406C169.869 101.885 169.833 101.363 169.806 100.842L168.63 101.434C171.195 104.318 173.458 107.402 175.381 110.645C177.304 113.888 178.892 117.28 180.119 120.772C181.345 124.263 182.209 127.85 182.689 131.475C183.087 134.477 183.363 137.882 181.63 140.631C181.232 141.263 180.721 141.835 180.105 142.313C179.96 142.428 179.806 142.534 179.648 142.633C179.549 142.696 179.454 142.755 179.349 142.815C178.901 143.067 180.426 142.309 179.861 142.554C179.481 142.72 179.078 142.846 178.671 142.941C177.082 143.304 175.386 143.135 173.861 142.645C172.336 142.155 170.802 141.278 169.657 140.184C168.349 138.936 167.467 137.36 166.86 135.769C166.213 134.074 165.865 132.305 165.607 130.535C165.34 128.671 165.041 126.767 165.077 124.883C165.114 123.118 165.562 121.333 166.919 119.97C167.213 119.674 167.544 119.401 167.906 119.168C167.996 119.109 168.091 119.054 168.186 118.998C168.526 118.793 167.1 119.52 167.467 119.358C167.521 119.334 167.58 119.31 167.634 119.287C167.847 119.2 168.064 119.125 168.286 119.066C169.132 118.844 170.037 118.864 170.874 119.113C172.63 119.634 173.897 121.001 174.829 122.34C175.856 123.809 176.662 125.409 177.277 127.044C178.517 130.338 178.951 133.873 178.499 137.321C178.046 140.769 176.752 144 174.562 146.816C173.53 148.139 172.318 149.355 170.96 150.434C170.299 150.963 169.603 151.457 168.874 151.919C168.485 152.167 168.087 152.404 167.679 152.63C167.498 152.732 167.313 152.827 167.132 152.926C167.747 152.586 167.566 152.712 167.417 152.78C167.363 152.803 167.308 152.831 167.254 152.855C167.132 152.914 167.005 152.969 166.883 153.025C163.652 154.478 160.019 155.288 156.376 155.236C152.733 155.185 149.421 154.28 146.412 152.705C143.403 151.129 140.896 148.956 139.113 146.358C137.33 143.759 136.294 140.856 136.552 137.929C136.796 135.22 138.108 132.415 140.434 130.559C140.701 130.346 140.982 130.144 141.28 129.963C141.366 129.911 141.452 129.86 141.538 129.809C142.018 129.536 140.579 130.267 140.977 130.085C141.158 130.006 141.335 129.927 141.52 129.86C142.181 129.615 142.887 129.461 143.606 129.414C145.122 129.315 146.647 129.678 147.896 130.429C150.484 131.981 151.783 134.856 151.837 137.526C151.905 140.879 149.846 143.98 147.538 146.535C146.312 147.89 144.964 149.154 143.606 150.414C143.638 150.386 143.756 150.343 143.783 150.331C143.923 150.264 144.059 150.193 144.199 150.122C144.376 150.031 144.642 149.952 144.783 149.821V149.817Z" fill="var(--fill-0, white)"/>
<path id="Vector_12" d="M213.712 93.1244C214.169 96.2051 214.853 99.2621 215.753 102.268C216.654 105.273 217.771 108.232 219.088 111.115C220.405 113.998 221.934 116.818 223.649 119.54C225.364 122.261 227.274 124.891 229.365 127.407C231.455 129.923 233.74 132.348 236.188 134.619C236.487 134.896 236.786 135.172 237.089 135.445C237.098 135.453 238.261 134.915 238.265 134.852C238.519 130.464 236.043 126.467 234.324 122.478C232.953 119.303 232.147 115.736 233.283 112.403C233.79 110.91 234.736 109.535 236.166 108.579C236.356 108.453 236.55 108.338 236.749 108.224C235.654 108.856 235.908 108.631 236.157 108.524C236.229 108.492 236.301 108.461 236.378 108.429C236.505 108.378 236.636 108.327 236.763 108.283C237.193 108.133 237.645 108.018 238.098 107.939C239.021 107.781 239.976 107.781 240.908 107.9C244.935 108.417 248.419 110.961 250.352 114.002C252.519 117.415 253.22 121.668 251.673 125.381C250.972 127.064 249.809 128.557 248.261 129.734C247.885 130.018 247.496 130.283 247.085 130.527C246.98 130.591 246.872 130.65 246.768 130.713C246.723 130.737 246.677 130.76 246.637 130.788C246.247 131.005 247.451 130.389 247.13 130.543C246.894 130.654 246.655 130.76 246.41 130.859C245.514 131.219 244.569 131.487 243.596 131.645C241.709 131.953 239.713 131.831 237.935 131.179C236.306 130.583 234.935 129.528 233.948 128.256C232.016 125.768 231.446 122.281 233.401 119.67C233.944 118.943 234.65 118.311 235.424 117.766C235.844 117.474 236.283 117.205 236.74 116.956C236.849 116.897 237.292 116.668 236.822 116.905C236.351 117.142 236.79 116.925 236.899 116.874C237.143 116.759 237.392 116.644 237.641 116.534C239.645 115.637 241.682 114.8 243.587 113.741C247.234 111.719 249.8 108.362 250.619 104.665C250.818 103.761 250.913 102.844 250.895 101.924C250.895 101.964 250.361 102.185 250.302 102.216C250.162 102.288 250.026 102.355 249.886 102.426C249.845 102.446 249.741 102.481 249.714 102.517C247.713 105.57 248.008 109.357 249.777 112.438C250.673 113.994 251.944 115.396 253.519 116.471C255.094 117.545 257.062 118.288 259.098 118.56C261.135 118.833 263.343 118.663 265.366 118.13C266.379 117.861 267.357 117.505 268.289 117.071C269.366 116.569 270.438 116.032 271.425 115.404C273.167 114.294 274.66 112.88 275.737 111.249C276.891 109.504 277.552 107.517 277.764 105.51C278.194 101.411 276.764 97.1886 273.972 93.8788C273.633 93.4799 273.275 93.0928 272.9 92.7215C272.846 92.6662 271.759 93.3535 271.723 93.314C274.235 96.2209 276.742 99.1357 279.122 102.126C281.493 105.108 283.737 108.169 285.706 111.368C287.674 114.567 289.298 117.75 290.511 121.143C291.674 124.405 292.425 127.79 292.652 131.203C292.878 134.615 292.588 137.972 291.642 141.247C290.715 144.45 289.145 147.495 286.959 150.193C284.868 152.776 282.271 155.027 279.389 156.935C278.656 157.42 277.9 157.887 277.131 158.333C276.746 158.554 276.361 158.771 275.972 158.981C275.778 159.083 275.588 159.186 275.393 159.289C275.343 159.316 275.18 159.399 275.316 159.328C275.479 159.245 275.203 159.383 275.167 159.399C273.551 160.185 271.877 160.884 270.171 161.512C266.239 162.954 262.126 163.989 257.967 164.798C253.809 165.608 249.379 166.22 245.057 166.761C244.008 166.892 242.958 167.022 241.903 167.148C241.858 167.152 241.754 167.219 241.727 167.231C241.587 167.298 241.451 167.37 241.311 167.441C241.17 167.512 241.035 167.579 240.894 167.65C240.849 167.674 240.772 167.733 240.722 167.741C245.139 167.2 249.555 166.659 253.935 165.908C258.316 165.158 262.583 164.218 266.737 162.875C270.393 161.694 273.868 160.161 277.176 158.364C280.307 156.666 283.212 154.636 285.688 152.246C288.163 149.857 290.262 146.978 291.629 143.901C292.995 140.824 293.751 137.309 293.878 133.9C294.005 130.492 293.548 126.957 292.638 123.588C291.728 120.219 290.249 116.739 288.475 113.512C286.701 110.286 284.493 107.015 282.172 103.946C279.823 100.846 277.307 97.8482 274.755 94.8741C274.14 94.1553 273.52 93.4364 272.9 92.7215L271.723 93.314C274.769 96.3315 276.561 100.309 276.656 104.333C276.701 106.3 276.334 108.275 275.511 110.108C274.687 111.94 273.515 113.418 271.977 114.725C271.216 115.369 270.384 115.949 269.497 116.451C269.388 116.514 269.275 116.573 269.167 116.633C268.787 116.838 269.94 116.257 269.565 116.431C269.515 116.455 269.47 116.479 269.42 116.498C269.162 116.617 268.904 116.731 268.642 116.838C268.162 117.032 267.669 117.209 267.167 117.359C265.221 117.952 263.13 118.216 261.071 118.054C259.013 117.893 257.126 117.332 255.451 116.356C253.777 115.381 252.478 114.129 251.474 112.675C249.51 109.827 248.818 106.19 250.261 103.05C250.438 102.663 250.65 102.288 250.886 101.924L249.709 102.517C249.777 106.403 247.84 110.254 244.564 112.884C244.152 113.216 243.713 113.528 243.261 113.82C243.026 113.971 242.786 114.113 242.541 114.251C242.446 114.302 242.356 114.358 242.261 114.405C242.202 114.437 242.139 114.468 242.08 114.504C241.917 114.591 242.718 114.188 242.32 114.381C241.374 114.836 240.401 115.242 239.437 115.661C238.324 116.147 237.234 116.668 236.161 117.225C235.283 117.679 234.433 118.177 233.677 118.777C232.27 119.899 231.315 121.348 231.061 123.007C230.826 124.556 231.175 126.151 231.921 127.561C232.668 128.971 233.867 130.263 235.378 131.136C236.994 132.064 238.944 132.463 240.867 132.392C242.94 132.313 244.845 131.689 246.628 130.796C247.6 130.31 248.542 129.805 249.392 129.165C250.157 128.588 250.84 127.929 251.415 127.206C254.039 123.904 254.198 119.504 252.727 115.791C251.315 112.237 248.342 109.144 244.243 107.801C242.415 107.205 240.383 107.007 238.496 107.509C237.419 107.797 236.41 108.323 235.473 108.856C234.704 109.294 234.034 109.847 233.487 110.491C231.188 113.204 231.242 117.016 232.084 120.164C232.618 122.158 233.568 124.054 234.455 125.946C235.41 127.996 236.36 130.073 236.822 132.257C237.043 133.308 237.139 134.37 237.08 135.437L238.256 134.844C235.781 132.613 233.464 130.243 231.333 127.755C229.202 125.267 227.242 122.664 225.478 119.966C223.713 117.268 222.138 114.472 220.767 111.605C219.396 108.737 218.228 105.795 217.274 102.801C216.314 99.7953 215.572 96.7344 215.056 93.6458C214.993 93.2705 214.934 92.8914 214.88 92.5162C214.88 92.5438 214.341 92.7808 214.287 92.8084C214.228 92.8361 213.694 93.0573 213.703 93.1086L213.712 93.1244Z" fill="var(--fill-0, white)"/>
<path id="Vector_13" d="M133.095 190.605C134.244 195.831 135.009 201.115 135.384 206.427C135.76 211.736 135.751 217.068 135.366 222.376C134.982 227.657 134.221 232.918 133.095 238.115C131.963 243.341 130.457 248.507 128.588 253.57C126.719 258.634 124.479 263.59 121.886 268.405C121.574 268.986 121.257 269.558 120.936 270.135L122.112 269.543C119.275 266.012 116.723 262.307 114.474 258.468C112.225 254.629 110.307 250.703 108.678 246.662C107.049 242.622 105.709 238.427 104.705 234.201C103.7 229.975 103.021 225.749 102.664 221.476C102.306 217.202 102.275 212.854 102.587 208.548C102.899 204.243 103.519 199.934 104.569 195.72C105.619 191.506 107.306 187.082 110.447 183.571C111.886 181.963 113.642 180.561 115.623 179.483C115.714 179.432 116.017 179.278 115.592 179.495C115.166 179.712 115.47 179.558 115.565 179.515C115.682 179.459 115.8 179.408 115.918 179.357C116.212 179.226 116.51 179.104 116.814 178.993C117.32 178.8 117.841 178.63 118.37 178.484C119.447 178.188 120.565 177.994 121.692 177.923C123.891 177.785 126.103 178.14 128.126 178.899C130.149 179.657 131.891 180.743 133.479 182.003C136.882 184.704 139.448 188.089 141.95 191.423C145.032 195.53 148.041 199.678 150.973 203.868C153.887 208.031 156.72 212.237 159.48 216.479C162.24 220.721 164.955 225.058 167.571 229.402C168.869 231.563 170.155 233.727 171.413 235.904C172.603 237.957 173.838 240.003 174.793 242.152C175.689 244.166 176.381 246.327 176.3 248.507C176.227 250.462 175.444 252.362 173.937 253.827C173.63 254.123 173.299 254.4 172.947 254.652C172.775 254.775 172.598 254.893 172.422 255.004C172.322 255.063 172.223 255.122 172.123 255.182C172.073 255.209 172.023 255.237 171.974 255.265C171.725 255.403 171.376 255.525 172.503 255.004C171.657 255.395 170.779 255.703 169.856 255.936C167.937 256.418 165.933 256.592 163.942 256.623C161.951 256.655 159.797 256.517 157.733 256.323C154.81 256.047 151.892 255.77 148.968 255.494C143.127 254.941 137.285 254.384 131.443 253.831C125.565 253.274 119.682 252.717 113.804 252.156C107.926 251.595 102.121 251.046 96.279 250.493C93.4327 250.225 90.5865 249.952 87.7403 249.684L87.3104 249.905C91.4779 247.788 95.6636 245.703 99.8719 243.649C104.125 241.571 108.402 239.521 112.696 237.503C116.99 235.485 121.343 233.478 125.692 231.512C130.04 229.545 134.348 227.637 138.701 225.749C143.113 223.833 147.538 221.95 151.987 220.097C156.389 218.261 160.815 216.456 165.249 214.686C169.688 212.913 174.141 211.171 178.612 209.461C183.083 207.751 187.567 206.072 192.069 204.425C196.572 202.778 201.088 201.163 205.617 199.579C210.147 197.995 214.694 196.443 219.256 194.922C220.369 194.551 221.477 194.184 222.591 193.816C223.011 193.678 223.351 193.362 223.767 193.224C219.152 194.744 214.55 196.297 209.961 197.884C205.373 199.472 200.803 201.088 196.241 202.739C191.685 204.389 187.142 206.072 182.616 207.79C178.091 209.508 173.58 211.254 169.087 213.035C164.593 214.816 160.118 216.625 155.656 218.47C151.24 220.295 146.837 222.155 142.452 224.043C138.068 225.931 133.619 227.886 129.23 229.857C124.841 231.828 120.47 233.826 116.121 235.856C111.795 237.874 107.492 239.924 103.207 242.002C98.8492 244.115 94.5052 246.263 90.1883 248.436C89.1204 248.973 88.057 249.51 86.9891 250.051C86.8896 250.102 86.7855 250.154 86.6859 250.205C86.6678 250.213 86.5819 250.272 86.5638 250.272C92.5187 250.837 98.4736 251.402 104.429 251.967C110.365 252.532 116.302 253.092 122.235 253.657C128.171 254.222 134.108 254.783 140.041 255.348C145.869 255.901 151.697 256.505 157.534 257.002C161.516 257.342 165.792 257.469 169.616 256.264C170.648 255.94 171.594 255.482 172.535 254.996C173.363 254.573 174.137 254.1 174.811 253.499C176.372 252.117 177.268 250.276 177.435 248.349C177.63 246.157 176.983 243.961 176.114 241.919C175.177 239.727 173.928 237.645 172.725 235.56C170.164 231.136 167.526 226.748 164.801 222.4C162.077 218.051 159.276 213.738 156.394 209.469C153.512 205.199 150.53 200.941 147.484 196.743C145.968 194.658 144.434 192.58 142.882 190.514C141.579 188.784 140.267 187.062 138.814 185.423C136.135 182.402 132.895 179.491 128.728 178.101C126.628 177.402 124.357 177.141 122.121 177.386C119.696 177.654 117.51 178.496 115.415 179.558C113.32 180.621 111.501 181.869 109.936 183.441C108.284 185.099 106.994 187.023 105.981 189.029C103.913 193.125 102.944 197.596 102.234 202.004C101.523 206.412 101.189 210.697 101.184 215.061C101.184 219.402 101.523 223.743 102.189 228.044C102.854 232.345 103.872 236.662 105.202 240.876C106.533 245.086 108.189 249.222 110.162 253.235C112.121 257.224 114.388 261.094 116.958 264.811C118.212 266.624 119.533 268.397 120.927 270.127C120.922 270.119 122.054 269.622 122.103 269.535C124.782 264.756 127.108 259.83 129.067 254.791C131.027 249.751 132.619 244.609 133.841 239.399C135.063 234.189 135.905 228.968 136.38 223.691C136.855 218.415 136.959 213.059 136.674 207.747C136.389 202.434 135.724 197.134 134.665 191.897C134.538 191.269 134.402 190.637 134.267 190.009C134.271 190.033 133.724 190.273 133.674 190.301C133.62 190.329 133.081 190.558 133.09 190.601L133.095 190.605Z" fill="var(--fill-0, white)"/>
<path id="Vector_14" d="M193.241 163.835C191.753 161.931 190.259 160.027 188.771 158.127L187.594 158.72C191.164 163.045 194.73 167.37 198.3 171.69C201.87 176.011 205.414 180.313 208.975 184.622C212.536 188.931 216.088 193.244 219.649 197.553C223.22 201.877 226.785 206.202 230.356 210.523C232.071 212.601 233.767 214.69 235.505 216.752C236.994 218.521 238.568 220.259 240.478 221.705C242.256 223.055 244.311 224.102 246.628 224.548C248.763 224.959 251.085 224.88 253.08 224.039C253.696 223.778 254.288 223.47 254.868 223.158C255.08 223.044 255.288 222.921 255.488 222.791C255.596 222.72 255.7 222.645 255.804 222.57C255.836 222.546 255.899 222.51 255.926 222.475C256.017 222.42 256.008 222.412 255.899 222.447C255.854 222.459 255.809 222.467 255.764 222.479C254.551 222.755 253.338 223.051 252.139 223.367C249.736 223.999 247.356 224.706 245.012 225.492C240.365 227.045 235.853 228.893 231.505 231.006C227.156 233.119 222.704 235.572 218.604 238.254C214.504 240.935 210.789 243.767 207.255 246.88C206.405 247.63 205.567 248.392 204.748 249.166C204.776 249.139 204.898 249.095 204.925 249.083C205.065 249.016 205.201 248.945 205.341 248.874C205.522 248.783 205.771 248.7 205.925 248.574C210.436 244.79 215.084 241.129 219.853 237.594C224.622 234.059 229.523 230.658 234.532 227.388C239.541 224.118 244.713 220.958 249.972 217.956C255.112 215.018 260.352 212.206 265.7 209.563C268.416 208.221 271.158 206.917 273.918 205.653C274.244 205.503 274.57 205.357 274.895 205.207C275.072 205.128 275.253 205.045 275.429 204.966C275.447 204.958 275.696 204.844 275.696 204.844C275.728 204.899 275.588 204.998 275.547 205.037C275.063 205.543 274.574 206.044 274.081 206.542C273.094 207.541 272.094 208.525 271.076 209.496C267.049 213.343 262.759 216.981 258.243 220.393C253.687 223.837 248.899 227.049 243.913 229.999C241.41 231.48 238.858 232.898 236.261 234.249C235.102 234.849 233.935 235.43 232.754 235.994C232.071 236.322 231.383 236.646 230.695 236.962C230.383 237.108 230.07 237.25 229.758 237.393C229.686 237.424 229.609 237.507 229.582 237.428C229.573 237.404 229.708 237.278 229.731 237.25C229.862 237.096 229.989 236.942 230.12 236.788C233.853 232.369 237.867 228.135 242.139 224.106C246.41 220.077 250.94 216.258 255.696 212.672C256.841 211.807 257.999 210.958 259.171 210.12C258.827 210.365 258.343 210.464 257.994 210.713C253.623 213.837 249.429 217.147 245.437 220.638C241.469 224.106 237.695 227.744 234.143 231.539C232.143 233.676 230.211 235.86 228.351 238.092L228.374 238.084C232.08 236.405 235.713 234.6 239.27 232.693C242.695 230.852 246.035 228.897 249.284 226.831C252.564 224.746 255.754 222.542 258.836 220.239C261.918 217.937 264.877 215.539 267.728 213.039C270.578 210.539 273.343 207.92 275.972 205.215C276.294 204.883 276.615 204.551 276.932 204.216L276.909 204.224C271.669 206.585 266.51 209.086 261.424 211.696C256.338 214.307 251.596 216.898 246.813 219.678C242.03 222.459 237.31 225.374 232.704 228.395C228.098 231.417 223.6 234.545 219.201 237.784C214.78 241.042 210.464 244.415 206.26 247.891C205.748 248.313 205.242 248.736 204.735 249.162L205.911 248.57C209.233 245.426 212.812 242.496 216.613 239.802C220.414 237.108 224.432 234.648 228.636 232.448C232.736 230.303 237.071 228.47 241.487 226.887C243.722 226.085 245.989 225.35 248.288 224.687C249.465 224.347 250.65 224.027 251.84 223.723C252.406 223.581 252.972 223.439 253.542 223.304C253.84 223.233 254.139 223.162 254.442 223.095C254.501 223.083 254.564 223.067 254.623 223.055C254.682 223.044 254.813 222.969 254.773 223.04C254.718 223.13 254.524 223.225 254.429 223.292C254.325 223.363 254.216 223.435 254.103 223.502C253.935 223.604 253.401 223.877 254.148 223.502C254.895 223.127 254.361 223.391 254.171 223.47C254.026 223.529 253.881 223.585 253.732 223.636C253.248 223.806 252.745 223.932 252.239 224.023C251.184 224.209 250.094 224.232 249.026 224.126C246.781 223.905 244.695 223.119 242.876 221.961C240.89 220.701 239.247 219.086 237.749 217.4C236.071 215.512 234.509 213.541 232.912 211.601C229.455 207.411 225.993 203.22 222.536 199.03C219.057 194.812 215.577 190.593 212.097 186.379C208.64 182.189 205.178 177.998 201.721 173.807C198.241 169.589 194.762 165.371 191.282 161.157C190.445 160.142 189.608 159.127 188.771 158.116C188.739 158.08 187.612 158.728 187.594 158.708C189.083 160.612 190.576 162.515 192.065 164.415C192.092 164.447 193.228 163.807 193.241 163.823V163.835Z" fill="var(--fill-0, white)"/>
<path id="Vector_15" d="M176.304 159.423C180.282 158.033 184.255 156.642 188.232 155.252C192.21 153.862 196.219 152.46 200.21 151.066L201.676 150.552L202.409 150.295C202.409 150.295 202.563 150.236 202.567 150.24C202.567 150.24 202.418 150.355 202.4 150.37L202.061 150.631C201.255 151.251 200.45 151.867 199.644 152.487C198.033 153.724 196.422 154.964 194.816 156.2C191.594 158.676 188.377 161.149 185.155 163.625C181.933 166.102 178.689 168.598 175.453 171.082L174.268 171.995C174.422 171.876 174.68 171.793 174.861 171.702C175.055 171.604 175.259 171.513 175.444 171.402C180.834 168.195 186.105 164.842 191.259 161.35C196.409 157.859 201.436 154.229 206.332 150.465C209.097 148.34 211.816 146.176 214.491 143.968C214.364 144.071 214.124 144.146 213.979 144.221C213.762 144.327 213.55 144.438 213.337 144.549C209.301 146.701 205.373 149.016 201.576 151.48C197.78 153.945 194.074 156.591 190.531 159.368C188.531 160.932 186.58 162.543 184.68 164.198C184.707 164.186 184.734 164.174 184.761 164.159C186.748 163.191 188.73 162.227 190.716 161.26C190.988 161.129 191.255 160.991 191.522 160.857C191.576 160.829 191.938 160.639 191.73 160.742C189.743 161.71 187.761 162.673 185.775 163.641L185.856 163.602C189.214 160.683 192.725 157.894 196.377 155.256C200.015 152.626 203.789 150.141 207.685 147.811C209.907 146.484 212.169 145.204 214.468 143.98L213.314 144.56C208.572 148.471 203.694 152.25 198.685 155.896C193.676 159.541 188.54 163.053 183.282 166.422C180.313 168.325 177.309 170.182 174.268 171.991L175.444 171.398C178.666 168.922 181.883 166.449 185.105 163.973C188.327 161.496 191.572 159 194.807 156.516C196.418 155.28 198.029 154.04 199.635 152.803C200.441 152.183 201.246 151.567 202.051 150.947C202.445 150.643 202.843 150.339 203.237 150.035L203.536 149.806C203.585 149.766 203.671 149.727 203.703 149.675C203.757 149.596 203.712 149.663 203.64 149.679C203.373 149.746 203.11 149.865 202.857 149.952C198.879 151.342 194.906 152.732 190.929 154.123C186.951 155.513 182.942 156.915 178.951 158.309L177.485 158.823C177.069 158.969 176.725 159.269 176.309 159.415L176.304 159.423Z" fill="var(--fill-0, white)"/>
</g>
<defs>
<clipPath id="clip0_12_13">
<rect width="294" height="271" fill="white"/>
</clipPath>
</defs>
</svg>
