<?xml version="1.0" encoding="UTF-8"?>
<svg xmlns="http://www.w3.org/2000/svg" version="1.1" viewBox="400 70 680 220" preserveAspectRatio="xMidYMid meet">
  <!-- Generator: Adobe Illustrator 29.2.1, SVG Export Plug-In . SVG Version: 2.1.0 Build 116)  -->
  <defs>
    <style>
      #Ebene_6 path { fill: #ffffff; }
      .st0 { fill: none; stroke: #fff; stroke-miterlimit: 10; }
      .st1 { display: none; }
    </style>
  </defs>
  <g id="Ebene_1" class="st1">
    <path class="st0" d="M165.1,255.9c0,23.8,5,47.2,9,70.7,8.5,50.8,12.1,102.2,15.6,153.6.2-2.3.5-4.6.7-6.9"/>
    <path class="st0" d="M142.2,391.5c23.5-13.5,49.2-23.1,75.8-28.4"/>
    <path class="st0" d="M199,262.2c17.1,71.2,34.2,142.5,51.3,213.7-13.6-44.2-23.3-89.6-29-135.5-1.5-12.3-1.4-27.3,9.2-33.7,2-1.2,4.4-2,6.6-1.2,2.6.9,4.1,3.5,5.3,5.9,25.5,51.9,23.1,115.1,53.6,164.3,6.2-24.6,10-49.7,11.6-75,2.1-33.9-2.8-73.3-31.1-92.2-1.6-1.1-3.7-2.1-5.4-1.1-1.2.7-1.7,2.1-2.1,3.3-8.8,27.4-5,57.6,5.6,84.3s27.7,50.3,45.7,72.7c5.4,6.6,15,13.7,21.3,8,2.3-2.1,3.2-5.3,4-8.3,2.3-8.9,4.6-17.7,6.9-26.6"/>
    <path class="st0" d="M470.6,181.4c-10.2,31-12.9,63.8-15.5,96.3-6.3,77-12.6,154-18.9,231,1.1-101.7,9.3-203.2,24.4-303.8,13.5,37.2,38.4,69,59.2,102.8,28.3,46,49.2,96.2,69.9,146.1,7.2,17.4,14.6,36.3,10.3,54.6-50.4-40.9-100.8-81.9-151.2-122.8-22.2-18-47-37-75.6-36.2-9.3.2-22.3.1-23.7-9.1-1.2-7.9,8.3-12.7,16-14.9,59.6-16.9,119.3-33.9,178.9-50.8,16.8-4.8,34-9.6,51.4-8.1s35.2,10.5,42.1,26.5"/>
    <path class="st0" d="M602.7,170.1c23.3,56.9,40,116.5,49.6,177.3,6.5,41.2,11,85.8,38.6,117.1,3.1-4.6,4.3-10.5,3.2-15.9"/>
    <path class="st0" d="M627.5,325.6c-33.1-36.9-68.2-79.1-66.5-128.5.2-5.3.9-10.8,4-15.1,4.9-6.8,14.2-8.5,22.6-9,52.2-2.9,103.7,22.2,139.1,60.8s55.4,89.3,63.4,141c4.7,30.3,4.2,64.9-16.8,87.2-10.1,10.7-23.8,17.4-37.8,21.8-19.9,6.3-42.5,8.5-60.9-1.3-18.4-9.8-29.5-34.8-18.7-52.7"/>
    <path class="st0" d="M981.7,223.4c-5.1-14.4-1.6-31.9-10.7-44.1-10.9-14.6-34.8-12.8-48.5-.9s-19.5,30.4-23.5,48.2c-14.5,64.3-14,131.9,1.4,195.9,5.5,22.7,13.8,46.4,32.3,60.5,17.9,13.6,42.2,15.7,64.6,12.9,34.6-4.3,72.4-25.3,75.7-60"/>
    <path class="st0" d="M1029.3,191.3c-10.8,7.4-11,23-10.1,36.1,5.4,76.2,10.8,152.3,16.2,228.5,1.9,27.1,6.2,58.3,29.3,72.6"/>
    <path class="st0" d="M1079.5,330c-12,28.9-8.8,61.5-5.5,92.7,2.2,20.7,4.4,41.5,6.6,62.2.9,8.5,2.7,18.4,10.3,22.3,6.8,3.6,15.7.2,20.7-5.6s7.1-13.6,8.9-21.2c12.1-51.9,15.6-105.7,10.4-158.7,20.3,61.9,11,129.8,25.1,193.4,1.7,7.9,4.5,16.5,11.5,20.5,6.2,3.5,14.4,2,20.1-2.2s9.3-10.8,11.6-17.6"/>
    <path class="st0" d="M304.3,714.3c-3.2,48-4.9,96-5.2,144.1-11-34.4-35.8-64.2-67.7-81.2,52.6,7,105.2,14.1,157.8,21.1l-49.3-98.5c1.3,51.9,3.8,103.9,7.8,155.7-.4-32.8-.7-65.5-1.1-98.3-.1-10.4.4-22.1,8.1-28.9,20.7,28.4,28.9,63.8,36.2,98.1,1.6,7.7,6,17.5,13.8,16.3,3.5-.5,6.2-3.3,8.4-6,18.2-22.3,25.3-53.4,18.5-81.4-2.3-9.4-8.6-20.2-18.2-19.2-7.8.8-12.4,9.1-14.9,16.6-7.6,23.1-7.3,48.8.8,71.7,7.1,20.2,22.8,39.9,44.2,41.5,24.3,1.9,43.6-19.5,57-40"/>
    <path class="st0" d="M614.2,715.3c-.7-8.7-1.5-17.3-2.2-26-24.9,57.7-43.2,118.2-54.6,180,26.1-51.2,34.7-109.3,42.9-166.3,1.3-9.2,2.7-18.5,4-27.7,41.6,57.1,48.2,131.7,53.4,202.2-44.4-28-88.8-55.9-133.3-83.9,12-9.1,27.8-11.2,42.8-12.7,33.5-3.2,67.1-4.2,100.7-3,24.4.8,52.3,4.9,65.4,25.4"/>
    <path class="st0" d="M672.4,691.7c30.5,47.1,25.2,107.8,32.8,163.4,1,7.3,2.8,15.5,9.1,19.4-15.1-59.1-53.5-110.4-66.4-170-1.8-8.4-3-17.5,1-25.1,7.6-14.4,28.5-14.2,44-9,32.4,10.9,59.6,34.6,77.9,63.5,18.3,28.8,28.1,62.5,31.7,96.5,2.6,24.5-.7,54.4-22.5,65.8-7.8,4.1-17,5.1-25.8,4.2-24.1-2.4-46.3-19-55.3-41.5"/>
    <path class="st0" d="M1042.1,873.8c-6.4,12.8-20.5,20.2-34.6,22.2-31.5,4.6-63-14.6-80.2-41.3-17.2-26.7-22.1-59.7-21.9-91.4.2-28.8,4.3-58,16.5-84.1,3.7-8,9.1-16.3,17.6-18.4,9.9-2.5,19.8,4.5,26.3,12.4,6.5,7.9,11.5,17.4,32.8,20.3,0-8.7,0-17.4,0-26.1,15.6,58.7,22.3,119.8,19.8,180.5-.4,10.6-1.1,21.4,2.6,31.4,3.6,9.9,12.9,18.7,21.2-5.5Z"/>
    <path class="st0" d="M1040.6,764.6c-3.7,32.8-.9,66,2,98.9,1,11.7,4.5,26.3,16,28.4,6.3,1.2,12.8-2.4,16.8-7.5s6-11.4,7.7-17.6c9.9-35.2,14.5-71.8,13.8-108.3,2.1,38.7-3.8,79.9,14.2,114.3,2.8,5.4,7,11.1,13,11.9,6.1.8,12.4-6.9,8.2-11.5"/>
    <path class="st0" d="M1109.1,679.7l-2.9-4.8c6.6,52.4,7.5,105.5,2.9,158.1-.5,5.6.2,13.1,5.7,14.3,1.9-27.1,6.4-53.9,13.3-80.2,1.9-7.1,4-14.3,8.4-20.2s11.5-10.3,18.8-9.4c8.3.9,14.4,7.9,19.1,14.7,11.7,17.1,19.9,36.9,21.2,57.6,1.3,20.7-4.7,42.1-18.3,57.8-2.8,3.2-6.6,6.4-10.7,5.6-3-.5-5.2-2.9-7.1-5.3-7-8.7-12.5-18.5-16.3-29"/>
    <path class="st0" d="M224.9,1059.1c-1.6-6.7-3.8-13.2-6.5-19.6.3,47.9.7,95.9,1,143.8,0,5.9.4,12.6,5,16.4s13.8,0,11.9-5.6"/>
    <path class="st0" d="M160,1144.7c5.2-10.3,19.9-9.3,31.4-9.5,32.9-.5,62-23.5,94.8-25.9"/>
    <path class="st0" d="M265.5,1060l-9.2-43c9.5,38.5,9.3,78.6,9.1,118.2,0,14.7-.2,29.3-.3,44,5.5-22.8,11-45.5,16.6-68.3,3.3-13.7,6.7-27.5,12.4-40.4,1.7-3.9,5-8.3,9.1-7.2,3.3.9,4.6,4.9,5.2,8.2,5.4,30.8.9,62.5,2.8,93.7.2,3,.5,6.1,2,8.6,3.3,5.5,11.5,6.1,17.1,3s9-9,11.8-14.7c13.7-28.2,17.6-61.1,10.7-91.7-1.5-6.8-5.4-14.9-12.4-14.6-5,.2-8.5,5-10.8,9.4-8.6,16.9-10.8,36.3-10.6,55.3.1,15.5,2.1,31.9,11.5,44.2,11.3,14.6,31.6,20.2,49.8,17.1,18.2-3.1,34.4-13.6,47.8-26.3"/>
    <path class="st0" d="M539.6,1014.5c-7.2,58.4-14.5,116.7-21.7,175.1,4.1-52.9,8.2-105.9,12.3-158.8,1.3-16.6,2.6-33.2,6.9-49.3,13.4,1.2,20.3,16.2,24.5,28.9,15.7,47,31.4,94,47.1,141.1,1.9,5.6,3,13.4-2.4,16.1-2.5,1.2-5.4.7-8.1.1-50.2-10.6-99.5-25.5-147.1-44.5-4.2-1.7-9.2-4.6-8.7-9.1.5-4.3,5.5-6.2,9.7-7,14-2.6,28.2-2.9,42.4-3.2,47.3-.9,94.7-1.8,142-2.7,21.7-.4,47.4,1.2,59,19.6"/>
    <path class="st0" d="M688.8,1022.4l-6.7-28.7c2.7,53.5,7.1,107,13.3,160.2,1.8-22.8-14.6-42.4-27.5-61.2-13-18.9-23.3-39.6-30.6-61.3-2.9-8.6-5.1-19,.6-26.1,6.5-8,18.9-7,28.9-4.4,26.8,6.9,52.2,19.2,74.1,36,15,11.5,28.6,25.3,37.2,42.2s11.6,37,5.7,54.9c-6.4,19-22,33.6-38.9,44.4-19,12.1-41.1,20.8-63.6,19.2s-44.9-15.3-52.2-36.6"/>
    <path class="st0" d="M967.5,1029.4c2-10.5,1.3-21.4-1.9-31.6-28,3.9-53.9,21-68.5,45.2s-17.6,55.1-8,81.6c3.9,10.9,10.3,21.5,20.3,27.2,8.6,4.9,18.8,5.7,28.6,6,41,1.3,82.3-4.5,121.4-17.1"/>
    <path class="st0" d="M1002.4,1004.7c-1.6-2.5-3.2-4.9-4.8-7.4,7.6,59.2,15.2,118.5,22.8,177.7.5,4.3,3.3,10,7.3,8.3,1.3-.6,2.2-1.9,3-3.1,1.8-2.9,3.6-5.8,5.4-8.6"/>
    <path class="st0" d="M1043.9,1075.8l-1.3-5.3c1.9,24.1,3.8,48.2,5.6,72.4.4,5.7,1.1,11.8,4.9,16,5.5,6.1,15.9,5.3,22.5.3,6.6-5,10-13,12.5-20.8,7.6-23.8,8.7-49.3,8-74.3,2.2,19.8,1.6,40.1,6.8,59.4,5.1,19.3,17.4,38.2,36.4,44.3"/>
    <path class="st0" d="M1120.9,1001.8c1.1,43.6,0,87.3-3.5,130.9,4.2-14.3,7.9-28.8,11-43.4,1.6-7.6,3.1-15.3,6.7-22.1,3.6-6.8,9.7-12.8,17.3-14.3,12.9-2.5,24.4,8.2,32.2,18.9,6.7,9.1,12.6,19.1,15.2,30.1,2.5,11,1.3,23.3-5.3,32.5-7.1,9.8-19.7,14.8-31.8,13.8s-23.2-7.5-31.2-16.6"/>
    <path class="st0" d="M1455.6,1081.9c-5.7-149.3.5-299,18.5-447.3"/>
    <path class="st0" d="M1510.1,648.1c-14.1,3.4-29.7,0-42.9,6.1-17,8-23.6,29-38.3,40.7,21.9-5.3,39.2-21.6,55.4-37.3-6,14.4-12,28.7-18,43.1-6.4,15.3-12.9,30.9-15.4,47.3,13.5-15.8,20.9-36.7,20.5-57.5,0-3.3-.4-6.8-2.2-9.6s-5.7-4.4-8.6-2.8-2.9,6.9.3,7.7c3.2-.2,6.2-2.2,49.2-37.7Z"/>
    <path class="st0" d="M1508.5,649.5c-3.7-5.4-11.4-6.8-17.6-4.9s-11.4,6.2-16.4,10.5c-12.5,10.7-25.1,21.5-37.6,32.2,12.2-8.9,22.2-20.3,33.6-30.3s24.6-18.7,39.5-20.5c-4.3,11.1-12.7,20.1-21.1,28.6-22.2,22.4-45.4,43.8-69.7,63.9,29.5-30.4,59.3-61.2,79.8-98.3-18.5,5-34.4,18.7,9.6,18.9Z"/>
    <path class="st0" d="M1649.4,1004.7c14.8-73.1,29.6-146.2,44.5-219.3"/>
    <path class="st0" d="M1680,380.4c-15.8,10.2-31.6,20.4-47.4,30.6"/>
    <path class="st0" d="M1176.3,228.3c-.6-3.6-1.2-7.1-1.7-10.7,12.2,87.3,15.8,175.5,19.4,263.6-.6-41.7-1.2-83.6,3.2-125,1.8-16.8,6.4-36.3,21.9-43,10.3-4.4,22.8-1.3,31.5,5.8,8.7,7.1,14.2,17.5,17.7,28.1,14,42.7-.1,89.2-17.1,130.8-2.9,7.1-7.3,15.3-15,15.9-8.5.7-14.2-8.2-17.8-15.9-10.9-23.4-20.6-47.4-29-71.8"/>
    <path class="st0" d="M78.8,888.4c13.8,86.3,75,160.5,151.2,203.2,76.2,42.7,165.9,56.6,253.2,53.9s173.3-21,258.8-39.3"/>
    <path class="st0" d="M187.7,49.5c3.4,27.6,6.8,55.2,10.2,82.8"/>
    <path class="st0" d="M163.8,100.9c20.5-5.8,41.9-8.6,63.2-8.3"/>
    <path class="st0" d="M214.5,50.5l8.9,75.7c-1.5-20,.5-40.2,6-59.4,4.9,12.7,9.8,25.3,14.7,38,1.6,4.2,3.3,8.4,6.5,11.6s8.3,4.7,12.2,2.6c4.1-2.3,5.3-7.5,5.8-12.2,1.1-10.5.8-21.1-.8-31.5-.5-2.8-1.4-6.2-4.2-7-4-1.2-6.9,3.7-7.8,7.8-2.4,10.5-2.3,22,2.2,31.8s13.9,17.7,24.7,18.7c10.8,1,22.2-6,24.7-16.5"/>
    <path class="st0" d="M356.1,113.7c-.3,10.5-4.1,20.8-10.5,29.1-1.3-36.2,4.1-72.7,11.8-103.6,13.4,33.7,26.8,67.3,40.2,101-27.5-15.2-52.9-34.2-75.3-56.2,34.7,0,69.5,0,104.2,0"/>
    <path class="st0" d="M417.5,40.6c-1.1,31.9,5.9,64.1,20.1,92.8"/>
    <path class="st0" d="M396.1,47.5c-.7-9.5,2.6-19.3,8.9-26.5,31.3,11.1,64,28.4,76.1,59.3,4.5,11.6,5.7,25,1.1,36.6-4.6,11.6-15.5,21.1-27.9,22-12.5,1-25.5-7.9-27.5-20.3"/>
    <path class="st0" d="M560.9,37.7c-5.5-3.3-11.1-6.7-16.6-10-14.8,7.4-17.7,27.3-16,43.8,1.3,12.6,4.3,25.3,11.2,36s17.9,19.1,30.6,20.4c12.6,1.3,26.3-5.7,30.5-17.7"/>
    <path class="st0" d="M585.3,35.6c-14.5,30.4-5.2,70.1,21.1,91,2.3-19.3,4.7-38.5,7-57.8-4.4,20.3,2.3,42.8,10.6,51.8l21.6,2.7c5.6-21,6.7-43.1,3.4-64.5-1.6,12.7-3.1,25.9,1.2,37.9s16.5,22.2,29,19.9"/>
    <path class="st0" d="M666.6,34.7c1.9,24.8,6.1,49.3,12.4,73.3,1.5-15.4,2.9-30.8,4.4-46.1.3-3.2.7-6.6,3-8.9,4.7-4.7,12.5-.8,17.8,3.2,11.9,9,24.9,20.1,24.9,35,0,12.7-11.6,24.3-24.3,24.2-12.7,0-24.2-11.7-38.2-80.7Z"/>
    <path class="st0" d="M390.5,621.5l5.9-11.9"/>
  </g>
  <g id="Ebene_2" class="st1">
    <path class="st0" d="M179.1,175c-1.9,36.9-1.8,73.9.2,110.7.3-1.7.7-3.3,1-5"/>
    <path class="st0" d="M151.4,231.3c19.2-3.3,39-3.3,58.3,0"/>
    <path class="st0" d="M216.5,172l6.2,99.2c-2.6-26,1.3-52.6,11.3-76.7,2.7,20.6,5.4,41.2,8.1,61.7,1.3,9.8,4.6,21.8,14.3,23.4,5.8,1,11.6-2.6,14.7-7.5s4.1-10.9,4.5-16.7c.9-14.3-1.1-28.8-5.9-42.4-1.6-4.5-4.3-9.4-9-10-6.5-.7-10.1,7.3-11.1,13.8-2,14.1-1.2,29,4.8,41.9s17.6,23.7,31.6,26.4c14,2.7,29.9-4,36-16.9"/>
    <path class="st0" d="M409.2,174c-19.4,36.1-31.6,76.1-35.6,116.9,24.3-36.9,7.4-87.6,22.6-129.1,13.9,35.2,26.8,70.7,38.8,106.5,1.6,4.7,3.1,10,1.2,14.6-2.7,6.4-11.1,8.5-17.7,6.4s-11.6-7.3-16.4-12.2c-13.5-14.1-26.9-28.1-40.4-42.2-3.7-3.9-7.7-8.9-6.1-14,1.6-5.1,7.6-7,12.8-7.9,29.9-5.2,61.3-2.1,40.7-39Z"/>
    <path class="st0" d="M453.8,173c-5,47.1,1.1,95.4,17.8,139.8-12.7-38-25.5-75.9-38.2-113.9-3.3-9.8-6.4-21.2-.6-29.8,4.7-6.9,14.2-9.5,22.4-7.8s15.4,6.6,21.7,12.1c20,17.4,34.2,41.4,39.8,67.3,3.5,15.9,3,34.5-8.8,45.7-9,8.6-23.7,10.4-34.6,4.3-10.9-6.1-17-19.6-14.3-31.8"/>
    <path class="st0" d="M638.2,199.3c-5.1-12.5-10.2-24.9-15.3-37.4-20.4-3.3-40.1,13.4-46.1,33.2s-1.3,41.3,6.3,60.5c6.2,15.8,15,31.6,29.7,39.9,14.7,8.3,36.5,5.9,44.8-8.8"/>
    <path class="st0" d="M661.1,179.9l-7.3-1.7c-4.6,28.5-1.6,58.1,8.6,85,2.6,7,6.7,14.6,13.9,16.5,7.2,1.8,14.8-3.2,18.3-9.8,3.5-6.6,3.9-14.3-33.5-90.1Z"/>
    <path class="st0" d="M704.5,224.5c-7.3,13.2-14.8,27.3-13.7,42.3s14.8,30,29.4,26.5c11.1-2.6,17.6-14.1,20.7-25,5.9-20.5,4.6-43-3.8-62.6-7.4,18.7-6.3,40.5,2.7,58.4,2.6,5.2,6.8,10.6,12.6,11.1,8.5.6,13.6-9.1,15.7-17.4,7.7-29.4,7.5-60.9-.6-90.2.3,32.7,5.6,65.4,15.6,96.6-2.2-14-4.4-28.9,1.2-41.9s22.2-22.3,34.4-15.1c7.7,4.5,11.1,13.7,13.1,22.4,2.8,12.5,3.4,27-5.1,36.6-8.7,9.9-25,10.8-36.3,4-11.3-6.9-17.9-19.9-86.1-45.7Z"/>
    <path d="M261.5,486.4c0,16.2,0,32.4,0,48.7,0,16.2,0,32.4,0,48.7s0,18.3,0,27.5l.9-.5c-1.5-1.2-3-2.4-4.5-3.7s-.8.6-.9.5c1.5,1.2,3,2.4,4.5,3.7s.9-.5.9-.5c0-16.2,0-32.4,0-48.7,0-16.2,0-32.4,0-48.7s0-18.3,0-27.5c0,.2-.9.3-.9.5h0Z"/>
    <path d="M234,547.6c10-3,20.1-5.2,30.4-6.7s20.7-2.2,31.1-2.1,11.7.3,17.5.9.6-.5.9-.5c-10.4-.9-20.8-1.1-31.1-.5-10.4.6-20.7,2-30.9,4.1s-11.4,2.6-17,4.3-.6.4-.9.5h0Z"/>
    <path d="M311.5,484.4c-.3,13.2-.6,26.5-.9,39.7s-.6,26.6-.9,39.8-.3,14.9-.5,22.3c0-.2.8-.3.9-.5,3.1-11.1,6.2-22.1,9.3-33.2s3.1-11.1,4.7-16.7,2.1-8.3,5-11.6.6-.6.9-.9.3-.3.5-.4.2-.2.4-.3c.4-.3.1,0,0,0,.4,0,.8-.4,1.3-.5s.9-.2,1.3-.2c1.8,0,3.4.8,4.6,2.1,2.8,3.1,3.4,7.8,4.2,11.7,2.3,11.3,4.7,22.5,7,33.8s4.7,22.5,7,33.8.6,2.8.9,4.1c0,0,.8-.4.9-.5,5.9-5.6,10.8-12.3,14.4-19.6s5.9-15.2,6.9-23.2.6-8.1.4-12.1-.7-8.1-1.8-11.9-2.6-6.8-5.5-8.7-3-1.2-4.7-.8-2.8,1.2-3.8,2.1-2.3,3-3.1,4.7-1.5,3.6-2.1,5.4c-1.2,3.7-2,7.5-2.5,11.4-.9,7.7-.4,15.5,1.7,22.9s5.9,14.2,11.4,19.6,10.9,8,17.5,9.7,13.4,1.8,19.9.1,11.8-4.6,16.1-9,2.2-2.4,3.1-3.7c-.2.2-.7.3-.9.5-1.8,2.6-4.1,4.9-6.7,6.8s-5.7,3.4-8.9,4.3c-6.2,1.9-12.9,2.1-19.2.9s-12.5-3.9-17.6-8-9.8-10.9-12.4-17.6-3.8-14.5-3.5-22,1.9-15.1,5-21.9,1.7-3.3,3-4.5.7-.6,1.1-.9-.5.2,0,0,.3-.1.4-.2c.2,0,.4-.2.7-.2.8-.2,1.6-.3,2.4-.1,3.3.5,5.5,3.8,6.8,6.7s2,7.3,2.5,10.9.5,7.8.3,11.7c-.5,7.9-2.3,15.7-5.2,22.9s-7.2,14.1-12.4,20-2.6,2.8-4,4.1l.9-.5c-2.4-11.5-4.8-23.1-7.2-34.6s-4.8-23-7.2-34.5-1-5.2-1.7-7.7-1.2-3.8-2.2-5.5-2.5-2.7-4.3-3.1-3.1.2-4.5,1c-3.3,1.9-5,5.5-6.1,9s-1.5,5.2-2.2,7.8l-2.4,8.5c-3.2,11.3-6.3,22.6-9.5,33.9l-1.2,4.2.9-.5c.3-13.2.6-26.5.9-39.7s.6-26.6.9-39.8.3-14.9.5-22.3c0,.2-.9.3-.9.5h0Z"/>
    <path d="M498.5,492.2c-4.7,14.8-8.3,30-10.8,45.3s-3.9,30.8-4.2,46.2c-.2,8.7,0,17.4.5,26.2,0-.2.9-.3.9-.5.7-17.9,1.4-35.8,2.1-53.7.7-17.8,1.4-35.6,2.1-53.4s.8-20.1,1.2-30.1l-.9.5c6.4,10.9,12.2,22,17.5,33.4,5.3,11.4,10,23.1,14.2,35s4,11.9,5.7,17.8,3.1,10.2,3.7,15.5.5,9.3-1.4,13.4-2.2,3.8-4,5.2-4.8,2.3-7.5,2.5c-5.6.4-11.2-1.5-16.4-3.4s-11-4.4-16.3-7.1-10.4-5.7-15.3-9.1-4.8-3.4-7.1-5.2-4.6-3.6-6.7-5.6c-3.5-3.4-7.2-8.2-6.9-13.3s1.4-4.7,3.4-6.1.3-.2.5-.3c.5-.3-.2,0,0,0s.7-.3,1-.4c.6-.3,1.3-.5,1.9-.6,1.2-.3,2.4-.5,3.6-.7,11.5-1.6,23.4-1.6,35-.5s23.3,3.5,34.5,7,21.9,8.3,32.1,14.2,4.9,2.9,7.3,4.5.7-.6.9-.5c-10.1-6.6-20.9-12-32.1-16.2s-22.9-7.1-34.8-8.7-24-2-36-.9-10,.7-14.2,3.5-3.5,3.4-3.8,5.9.5,5,1.7,7.2c2.7,5.1,7.3,8.7,11.7,12.2s9.8,7.2,15,10.2,10.6,5.8,16.2,8.2,5.6,2.3,8.5,3.3,5.5,1.9,8.3,2.4,5.6.9,8.4.5,4.5-1.1,6.5-2.3c3.9-2.3,6.1-6.3,6.8-10.7s.1-9.8-.9-14.5-3.2-11.7-5-17.4c-3.9-12.2-8.4-24.3-13.5-36.1s-10.8-23.4-17-34.7-3-5.4-4.6-8.1c0,0-.9.4-.9.5-.7,17.9-1.4,35.8-2.1,53.7-.7,17.8-1.4,35.6-2.1,53.4s-.8,20.1-1.2,30.1l.9-.5c-.9-15.5-.8-31.1.5-46.6s3.7-30.8,7.1-45.9,4.2-16.9,6.9-25.2c0,.2-.8.3-.9.5h0Z"/>
    <path d="M541.5,491.8c4.7,12.9,9.4,25.8,14.1,38.7,4.7,12.9,9.4,25.8,14.1,38.7s5.3,14.6,8,21.9l.9-.5c-6.5-14.3-13-28.6-19.4-42.9s-6.5-14.3-9.7-21.5-6.4-14-9.5-21-4.1-10.6-4.8-16.2,0-10.5,3.2-14.6,4.1-3.8,6.9-4.6,5.6-.7,8.4-.2c6,1,11.5,3.9,16.4,7.3,9.9,6.9,18.7,15.4,26,25s13.2,20.4,17.4,31.8,6.6,23.4,7,35.5-1.1,21.4-6.3,30.7-5.6,8.2-9.8,10.5-10.9,3.3-16.4,1.9-11.5-5.1-15.7-9.7-7.9-10.9-10.7-17-2.6-6.1-3.9-9.1c0,0-.9.5-.9.5,5.1,12.3,10.8,25.7,22.8,32.7s11.9,4.7,18.1,3.4,8.5-3.3,11.7-6.3c7.6-7.2,10.8-18.3,11.7-28.5s.2-11.7-.4-17.5-1.8-12.1-3.4-18c-3.3-12-8.4-23.4-15.2-33.8s-15-19.7-24.6-27.4-9.9-7.6-15.7-10.1-11.7-3.7-17.4-1.6-8.4,5.5-9.8,10.4-.6,10.9.9,16.1,4.7,12.3,7.4,18.3,6.6,14.7,10,22c6.6,14.6,13.2,29.1,19.8,43.7,1.6,3.6,3.2,7.2,4.9,10.7,0,0,.9-.4.9-.5-4.7-12.9-9.4-25.8-14.1-38.7-4.7-12.9-9.4-25.8-14.1-38.7s-5.3-14.6-8-21.9c0,0-.9.4-.9.5h0Z"/>
    <path d="M713.6,496.6c4.1-4.4,4-10.8,1.6-16s-3.1-5.1-5.5-7-5.4-3-8.5-3.3c-6.9-.6-13.7,2.8-18.6,7.5s-4.9,5.6-6.4,9-2.8,8.3-3.1,12.7c-.7,8.8.9,17.7,3.2,26.1s5.1,16.1,8.8,23.8,8,14.8,13.1,21.6,5.2,6.7,8.1,9.9,5.6,5.9,8.8,8.4c5.9,4.6,13.5,8.1,21.2,6.5s5.8-1.9,8.3-3.7,4.8-4.3,6-7.3.8-3,.8-4.6c0,.2-.9.3-.9.5,0,3.1-1,6.1-3,8.5s-5,4.5-8.3,5.6-6.6,1.2-9.9.5-7.4-2.4-10.6-4.5c-6.6-4.4-12-10.5-16.9-16.7s-9.6-13.3-13.4-20.5c-3.8-7.2-7-14.8-9.5-22.6s-4.5-16.3-4.9-24.6.7-16.8,5.2-23.7,10.3-11,17.7-11.7,6.5,0,9.4,1.5,4.7,3.2,6.4,5.5c3.2,4.4,4.7,10.6,2.5,15.8s-1.3,2.4-2.2,3.4c.2-.2.6-.3.9-.5h0Z"/>
    <path d="M752.9,484.6c-1,7.2-1.4,14.5-1.2,21.7s.9,14.5,2.1,21.6,3,14.2,5.3,21.1,5.1,13.6,8.4,20.1,7.1,12.7,11.3,18.6,1.1,1.5,1.6,2.2.8-.4.9-.5c5.8-10,9.7-21.1,11.8-32.4s2.2-23.1.5-34.5-2.6-12.7-4.8-18.8c0,0-.9.4-.9.5-1.5,11.3-2.1,22.7-1.7,34.1s.4,10.5,1.1,15.7,1.8,8.6,4.3,12.1,5.4,5.1,9.1,5.7,7.1,0,10.3-1.4,6-3.2,8.4-5.5,4.9-6.1,6-10c3.1-10,.9-20.7-1.6-30.6s-.7-2.5-1-3.8c0,0-.8.4-.9.5-1.5,6.4-1.5,13,0,19.4s4.3,12.3,8.4,17.4,4.5,5.1,7.4,6.9,5.9,2.3,9.1,1.6,4.9-1.9,6.9-3.5,4.4-4.4,5.6-7.3c3.2-7.1,1.9-15.4.4-22.8s-.4-1.9-.6-2.9c0,.1-.9.4-.9.5,1.1,11.9,5,23.6,11.5,33.7s3.8,5.6,6,8.1.8-.4.9-.5c1.4-2.2,2.8-4.4,4.3-6.6-.2.2-.7.2-.9.5-1.4,2.2-2.8,4.4-4.3,6.6l.9-.5c-7.7-9.2-13.2-20.2-15.9-31.8s-1.3-6.6-1.6-10l-.9.5c1.6,7.4,3.2,15.2,1.2,22.7s-5.9,11.4-11.9,12.8-6,.1-8.6-1.4-5.2-4-7.3-6.5c-4.1-4.8-7-10.6-8.6-16.6s-2-14-.3-20.8l-.9.5c2.6,9.6,5.3,19.8,3.7,29.9s-2,8.2-4.6,11.6-5.2,5.6-8.7,7.1-6.5,2.1-9.9,1.8-6.7-2.1-9-4.7-4.2-7.2-4.9-11.3-1.1-9.7-1.3-14.6c-.5-11-.1-22.1,1.1-33s.3-2.7.5-4.1l-.9.5c4,10.9,6,22.4,6,34s-1.8,23.2-5.5,34.1-4.8,12.1-8,17.7l.9-.5c-4.4-5.8-8.3-11.9-11.7-18.3s-6.3-13.1-8.8-19.9-4.3-13.9-5.7-21-2.2-14.3-2.5-21.6,0-14.5.8-21.7.2-1.8.3-2.7c0,.2-.8.3-.9.5h0Z"/>
    <path d="M872.5,484.5c-1.5,8.1-2,16.3-1.7,24.5.4,8.2,1.6,16.3,3.7,24.2s2.7,8.9,4.5,13.1c0,0,.9-.4.9-.5-1.7-6.6-3.5-13.4-2.9-20.3.5-5.4,2.7-10.7,6.8-14.4s4.2-2.9,6.8-3.3,5.4.1,7.9,1.2c5.2,2.4,9.1,7,12.4,11.5,6.8,9.4,11.5,21.3,9.5,33.1-1.7,9.9-8.3,20.2-18.5,22.6s-19.2-1.5-23.7-9.5-1-2-1.3-3c0,0-.9.4-.9.5,3.1,9.3,13.7,14.2,23,12.9s9.1-2.9,12.6-6,7-8.3,8.6-13.5c3.8-11.7.3-24.2-6.1-34.3s-3.5-5.2-5.6-7.6-4.1-4.4-6.6-6-5.2-2.6-8.1-2.7-4.9.7-7,1.9-4,2.6-5.5,4.5-3,4.5-3.9,7c-2.1,6.6-1,13.9.5,20.5s.8,3.4,1.3,5.1l.9-.5c-3.1-7.6-5.4-15.5-6.8-23.6-1.4-8.1-1.8-16.3-1.4-24.4s.8-9.2,1.6-13.8c0,.2-.8.3-.9.5h0Z"/>
    <path d="M953.9,1149.7c5.3-3.3,10.5-6.6,15.8-9.9-.2.1-.6.3-.8.5-5.3,3.3-10.5,6.6-15.8,9.9.2-.1.6-.3.8-.5h0Z"/>
    <path d="M232,761c-3.2,18.6-5.1,37.5-5.7,56.4-.5,18.8.3,37.7,2.4,56.4s2.9,21.2,4.9,31.6l.9-.5c-11.4-16.7-25.7-31.3-42.2-42.9-4.6-3.3-9.5-6.3-14.4-9.1l-.9.5c32.2-2.4,64.4-4.8,96.6-7.2,9.3-.7,20.7-1.3,27.7-8.4s4.8-11.5,2.9-17.6-2.8-7.2-4.4-10.7-3.3-7.2-4.9-10.7c-7.5-16.4-14.9-32.8-22.4-49.3,0,0-.9.4-.9.5.7,33.6,4.3,67.1,11,100.1s3.9,18.4,6.3,27.5c0,0,.8-.4.9-.5,8.2-17.2,16.2-34.4,24.5-51.5s3.5-6.8,7.6-6.8,6,1.9,8.1,4.1c5.8,6.3,4,15.1,4.5,22.9s2.7,11.7,7.5,15.7,9.5,5.5,14.9,5.9c10.1.7,19.8-5.2,22.4-15.2,2.6-10.2-1.8-22.7-11.4-27.7s-2.4-1.1-3.7-1.4-.8.4-.9.5c-5.2,17-.3,36.4,11.6,49.5,12.4,13.7,31.8,18.5,49.5,14,8.7-2.2,16.9-6.6,23.3-12.8-.2.2-.6.3-.9.5-12.9,12.5-32.8,16.4-49.9,11.2s-28.5-18.7-33-35-2.6-18.9.2-28l-.9.5c10.6,3,16.6,14.6,15.8,25.1s-2.7,10.5-6.8,14-10.3,4.7-15.8,4.1-10.6-2.9-14.6-6.6-6.5-10.2-6.7-16.7.9-16.3-5.3-22.1-5.2-3.6-8.3-3.1-4.1,1.6-5.4,3.2-2.1,3.1-2.9,4.8-2,4.2-3,6.3c-2,4.3-4.1,8.6-6.1,12.9-4.1,8.6-8.2,17.2-12.3,25.8s-2,4.2-3,6.3l.9-.5c-8.3-32.6-13.6-65.9-16-99.4s-1.1-18.8-1.3-28.2l-.9.5c6.4,14.1,12.8,28.1,19.2,42.2s6.4,14.1,9.6,21.2,5.7,13.2,3.2,19.9c-4,10.8-17.9,11.7-27.6,12.4-15.4,1.1-30.8,2.3-46.1,3.4-17.3,1.3-34.7,2.6-52,3.9-.2,0-.7.6-.9.5,17.6,9.9,33.4,22.9,46.4,38.4s7.1,8.9,10.3,13.6c0,0,.9-.5.9-.5-3.7-18.6-6-37.4-7-56.3s-.6-37.7,1.1-56.4,2.4-21.2,4.2-31.7c0,.2-.8.3-.9.5h0Z"/>
    <path d="M527.5,762.5c6.4-6.4,6.5-16.5,2.8-24.4s-4.8-7.6-8.6-10-9.7-4-14.8-4c-10.1,0-20.1,4.9-27.2,11.9s-13.3,19.4-16.5,30.6-5.1,24.7-5.3,37.3,1.2,25.6,4.2,38,3.4,12.3,5.7,18.2,4.7,11.5,7.8,16.8c5.8,9.9,14.9,18.8,27,19.7s9.4-.9,13.5-3.5,7.2-6.3,9.4-10.5,4-9.5,5.2-14.5,2.6-12.6,3.5-18.9c2-13.6,3.1-27.4,3.3-41.2s-.7-27.7-2.5-41.4-1-6.8-1.5-10.2-.9-6.2-1.8-9.1-1.9-4.6-4.2-5.4-3.3,0-4.8.9c-4.2,2.5-5.3,8-6.1,12.5-1.3,6.9-2.3,13.8-3,20.8-1.4,13.8-1.8,27.7-1.2,41.6s.9,14,1.8,20.9.9,6.9,1.5,10.3.9,4.9,1.7,7.2c1.4,4.2,4,8.6,8.7,9.6s7.7-1.1,10.4-3.8,5.5-8.3,6.9-13c2.1-6.6,4-13.3,5.8-20,3.6-13.3,6.7-26.8,9.3-40.3s4.7-27.3,6.3-41.1c.8-6.6,1.4-13.3,1.9-19.9l-.9.5c-.7,21.1-.6,42.2.3,63.3.4,10.5,1,21,1.8,31.5s1.1,15.5,4.2,22.7,3.1,5.8,5.7,7.8,6.2,3.3,9.6,3.1,6.4-1.5,9.2-3.3,6.1-5.2,8-8.7,3.3-8.4,4.2-12.9,1.4-9.7,1.9-14.6c1.2-10.4,2-20.8,2.6-31.3,1.2-20.9,1.3-41.9.3-62.8-.1-2.6-.3-5.2-.4-7.8,0,.1-.9.3-.9.5,1.3,20.5,1.5,41.2.6,61.7s-1.1,20.4-2.1,30.6-1,10.2-1.7,15.3-1.1,9-2.2,13.4c-2.1,8.1-6.9,16.6-15.6,18.8-3.5.9-7.2.6-10.4-1.1s-5.1-3.9-6.7-6.7c-3.5-5.9-4.6-13.1-5.1-19.8-.9-10.2-1.5-20.5-2-30.8-1-20.7-1.2-41.4-.8-62s.1-5,.2-7.5c0,.2-.9.3-.9.5-1.1,13.4-2.6,26.8-4.6,40.1s-4.5,26.4-7.5,39.5-6.4,26-10.3,38.8-7.2,22.5-17.8,18.3-6.4-6.1-7.7-10.2-1.2-4.9-1.6-7.3-1-6.8-1.4-10.1c-1.6-13.4-2.3-26.9-1.9-40.4s1.7-27,4.1-40.4,1.6-10.5,5.6-13.6.5-.4.5-.3-.7.3-.1.1.5-.2.7-.3c.5-.1,1-.2,1.5-.2,1.1,0,2.1.5,3,1.2,1.8,1.5,2.6,4,3.1,6.3,1.4,6.4,2.3,13,3.1,19.6s1.4,13.3,1.8,19.9c.8,13.4.6,26.9-.5,40.3s-2.7,25.9-5.7,38.6-5.6,19.3-13.6,24.9-10.6,3.9-16,2.9-10.6-3.8-14.8-7.5-7.6-8.6-10.3-13.6-5.3-10.8-7.4-16.5c-4.3-11.6-7.1-23.7-8.5-36s-1.2-24.8.5-37.1,4.4-23.4,9.5-34,12.6-19.5,23.4-23.8c9.3-3.7,20.8-3.9,29.1,2.3s10.7,14.2,9.6,22.7-2.2,7.8-5.1,10.7c.2-.2.6-.3.9-.5h0Z"/>
    <path d="M617.2,729.4c.3,0,.6-.5.9-.5-.3,0-.6.5-.9.5h0Z"/>
    <path d="M241.9,996.6c-.2,22.9-.3,45.8-.5,68.6s-.3,45.9-.5,68.9c0,12.9-.2,25.8-.3,38.6l2.6-1.5c-6.4-8.2-12.7-16.5-19.1-24.7s-12.7-16.1-18.7-24.4-5.2-7.5-6.1-11.9,0-7.8,2.3-11.1,2.3-2.7,3.7-3.8.9-.6,1.4-.9c.7-.5-1.5.8-.7.4s.5-.3.8-.4c.9-.4,1.9-.8,2.9-1.1,4.4-1.5,9.1-1.6,13.7-1.5s9.7.6,14.5.4,7.9-.7,11.8-1.5c7.6-1.7,14.6-4.6,21.3-8.5s12.8-8.5,18.1-14.2c5.5-6.1,9.9-13.1,12.8-20.8,6-15.6,6.2-33.4.4-49.1s-1.5-3.8-2.4-5.7c0,.1-2.6,1.2-2.6,1.5,0,17.5-.2,34.9-.3,52.4s-.2,34.8-.3,52.2-.1,19.7-.2,29.6c0-.1,1.2-.7,1.3-.7.2-.1,1.2-.5,1.3-.8,4.7-17.5,9.4-35,14.1-52.6s2.7-10,4-15.1l-2.6,1.5c3.3,17.1,6.6,34.1,9.9,51.2s3,16.5,4.8,24.7,3.3,11.8,9,13,5.3-.7,7.8-2.1,4.5-3.5,6-6,3.3-6.4,4.7-9.7,2.8-7.4,4-11.1c2.3-7.5,3.9-15.3,4.7-23.1s.7-8,.7-12,0-6.9-.4-10.2c-.7-5.2-2.4-11.2-6.9-14.4s-5.1-2.3-7.8-1.8-5.3,2-7.5,3.6c-5.1,3.5-8,9.5-9.7,15.3s-2.4,11.5-2.2,17.3c.3,11.8,4.2,23.5,10.8,33.3,6.7,9.8,16.2,17.4,27.5,21.2,11.2,3.7,23.4,3.8,34.7.7,5.6-1.5,10.9-3.9,15.9-6.8s9.6-6.2,13.6-10.3,3.8-4.3,5.5-6.7c-.2.3-1,.6-1.3.7s-1.1.4-1.3.8c-3.2,4.6-7.1,8.6-11.6,12s-2.4,1.8-3.7,2.6-.5.4-.8.5-.4.2-.6.3c0,0,.6-.3,0,0s-1.3.7-2,1c-2.6,1.3-5.3,2.4-8.1,3.3-10.6,3.5-22.2,4.2-33.2,1.6s-20.7-8.7-28-17.1c-7.3-8.5-12.2-19-14.1-30.1s-1-23.2,4.2-33,3.2-5.2,5.5-7.1.5-.4.8-.6c.4-.3,1.9-1.2.4-.3s-.1.1.3,0,.7-.3,1.1-.4c1.4-.4,2.8-.5,4.2-.3,5.3.7,8.5,5.3,10.1,10.1s2,12.1,1.8,18.2-1.1,15-2.6,22.4-3.7,14.6-6.6,21.6-2.7,6.5-4.5,9.5-1.6,2.5-2.6,3.6-1,1.1-1.6,1.5-.5.4-.8.6c-.5.5.8-.6.8-.4s-.5.2-.6.2c-5.7,2.1-9.9-2.6-11.8-7.4s-1.7-5.6-2.2-8.5-1.6-8.2-2.4-12.3c-3.1-16.2-6.3-32.4-9.4-48.6s-1.5-7.9-2.3-11.8c0,.3-2.5,1.1-2.6,1.5-4.7,17.5-9.4,35-14.1,52.6s-2.7,10-4,15.1l2.6-1.5c0-17.5.2-34.9.3-52.4s.2-34.8.3-52.2.1-19.7.2-29.6l-2.6,1.5c7.2,15.1,8.5,32.7,4,48.7s-14.6,29.3-28.3,38.2c-6.5,4.3-14.5,7.1-22.2,8.6s-7.8,1.2-11.8,1.2-9.8-.4-14.7-.5-9,.3-13.2,1.9-6.2,2.9-8.7,5-4.9,5.2-5.7,8.7.5,8.6,2.6,12.4,5.3,7.8,8.2,11.5l9.4,12.2c6.4,8.2,12.7,16.5,19.1,24.7l4.7,6.1s2.6-1.3,2.6-1.5c.2-22.9.3-45.8.5-68.6s.3-45.9.5-68.9c0-12.9.2-25.8.3-38.6,0,.1-1.2.7-1.3.7s-1.3.6-1.3.8h0Z"/>
    <path d="M500.2,1036.6c-6.8-14-8-30.4-3.8-45.3,2.1-7.2,5.3-14.6,10.3-20.3,1.2-1.4,2.6-2.8,4-4s1.4-1.1,2.2-1.7.9-.6,1.3-.9-.8.5-.8.5c0,0,.8-.4.9-.5,3.1-1.5,6.6-2.3,10-1.7,6.4,1,10.7,6.3,12,12.5s-.5,13.3-4.2,18.9-10.7,11.6-16.6,16.8-12.1,11.3-17.6,17.4c-11,12.3-20.7,25.8-28.6,40.3s-8.1,15.3-10.6,23.5-3.1,16-.5,23.6,6.7,12.3,13.2,14.8c7.2,2.9,14.9.8,21.4-2.9,3.3-1.8,6.4-3.8,9.3-6.2s5.5-5.1,8-7.9c4.6-5.3,8.7-11.1,12-17.3,6.7-12.4,10.6-26.3,11.7-40.4s-.7-28.4-5.6-41.6c-1.2-3.3-2.6-6.4-4.2-9.5,0,0-2.5,1.2-2.6,1.5-8.6,18.1-12.9,38.1-12.8,58.1,0,20,4.4,40,12.9,58.1s8.3,18.5,17.9,18.4,6.8-2,9.5-4,5.6-5.9,7.3-9.5,3.4-8.8,4.7-13.3,3.1-11,4.4-16.5c2.8-11.2,5.1-22.6,6.9-34,3.7-22.7,5.6-45.8,5.6-68.8s0-5.8,0-8.7c0,.1-1.2.7-1.3.7s-1.3.6-1.3.8c-2.8,25.9-5.6,51.8-8.4,77.6-.8,7.3-1.6,14.5-2.4,21.8,0-.1,1.2-.6,1.3-.7.3-.2,1-.4,1.3-.8,8.2-11.3,8.5-25.6,7.1-39s-4.5-25.2-3.8-38,3-22.1,10.1-30.4,3.5-3.6,5.6-5,.4-.2.5-.3-1.5.8-1,.5.6-.3.8-.4c.7-.3,1.4-.6,2.1-.9,1.3-.5,2.7-.9,4.1-1.2,6.7-1.3,13.6.2,19.6,3.3,13.2,6.9,20.5,20.5,26.3,33.6s1.5,3.4,2.2,5c0-.2,2.6-1.3,2.6-1.5-2.3-12.7-11.6-22.5-23.1-27.7-11.7-5.3-25.6-6.2-37.7-1.6s-12.4,6.3-17.5,10.8-10,10.9-13.4,17.4c-7,13.4-9.7,29-8.3,43.9s8.9,35.1,18,50.5,10,15.6,15.5,23,10.7,13.5,18.8,15.6,6.8.3,9.9-1.5,3-1.7,4.2-2.9,2.1-2.7,2.8-4.3c1.4-3.4,1.8-7.2,1.9-10.9s-.1-9.6-.3-14.4c-.5-21.4-1-42.7-1.4-64.1s-1-42.6-1.4-63.9c-.5-21.3-1-42.6-1.4-63.9s-.2-10.5-.4-15.7l-2.6,1.5c1,27.8,2,55.6,3,83.4s2,55.6,3,83.4.5,14,.8,21,.3,10.2,1.3,15.2c1.4,7.6,4.6,17.1,12.6,19.9s8.1.8,11.7-1.2,3.8-2.1,5.4-3.6,3.3-3.4,4.6-5.3c2.8-4.2,4.8-8.9,6.5-13.6s4.5-12.4,6.6-18.7c8.4-25.2,15.1-50.9,20.1-77,.6-3.2,1.2-6.4,1.8-9.6,0,.2-1.1.6-1.3.7s-1.3.5-1.3.8c-4.5,25.7-10.7,51.1-18.5,76s-4,12.4-6.1,18.6-3.8,11.3-6.2,16.7-4.3,8.5-7.6,11.9-1.5,1.4-2.3,2-.6.4-.9.7c-.9.6,1.2-.7,1.2-.7,0,0-1.6.7-1.8.8-2.1.7-4.3,1-6.5.7-8.4-1.1-12.6-9.6-14.5-17s-1.7-8.5-1.9-12.8c-.3-6.7-.5-13.4-.7-20-1-27.3-2-54.5-3-81.8-1-27.3-2-54.7-3-82-.1-3.3-.2-6.7-.4-10,0,0-1.2.7-1.3.7s-1.3.6-1.3.8c.5,20.7.9,41.5,1.4,62.2s.9,41.5,1.4,62.2c.5,20.7.9,41.5,1.4,62.2.2,10.4.5,20.8.7,31.2s.2,15.1-5.3,19.9-.8.6-1.2.9c1.6-1.3.9-.6.1-.3s-1.8.5-2.7.6c-1.8.2-3.6-.1-5.3-.6-3.7-1.2-7.1-3.6-9.9-6.2s-5.7-6-8.1-9.4-5.3-7.2-7.8-10.9c-10-14.6-18.6-30.5-23-47.8s-4.1-30.8.4-45.8,12.4-26.8,24.6-34.9c.4-.2.7-.5,1.1-.7s.5-.3.7-.4c-.8.4-.2.1,0,0,.8-.4,1.6-.8,2.4-1.2,1.4-.6,2.9-1.2,4.4-1.7,3-.9,6.1-1.6,9.2-1.9,6.3-.6,12.7,0,18.8,1.6,11.6,3.2,22.6,10.7,27.8,21.8s2.2,5.6,2.7,8.6l2.6-1.5c-5.9-13.6-12.3-28.3-25.2-36.7s-12.9-6.2-20-5.6-10.7,2.9-15.2,6.1c-9,6.4-13,17.8-14.5,28.3-.8,5.8-.9,11.7-.4,17.5s1.9,13.6,2.8,20.4c1.9,13.7,3.2,28.8-3.5,41.4s-1.7,3-2.8,4.4l2.6-1.5c2.8-25.9,5.6-51.8,8.4-77.6s1.6-14.5,2.4-21.8l-2.6,1.5c.4,22.7-1,45.4-4.1,67.8s-7.9,44.4-14.5,65.9-2.8,7.7-5,11.1-2.3,3.3-3.8,4.7-1.5,1.3-2.3,1.8-1.2.4,1.3-.7c-.2.1-.5.2-.7.3-.5.2-1,.4-1.5.5-9.3,2.5-15.1-7.3-18.6-14.2-8.9-17.3-13.9-36.6-14.7-56s2.4-39.4,9.8-57.5,1.9-4.4,2.9-6.5l-2.6,1.5c6.4,12.6,9.7,26.6,10,40.7s-2.2,28.3-7.6,41.4-13.6,25.8-24.6,34.8c-1.6,1.4-3.4,2.6-5.1,3.7s0,0,.1,0c-.2.1-.5.3-.7.4-.5.3-1,.5-1.5.7-.9.4-1.9.8-2.9,1.1-3.6,1.2-7.5,1.7-11.3,1.1-7-1.2-12.4-6.2-15.5-12.4-7.7-15.4.2-32.6,7.4-46.5,7.6-14.6,17-28.4,27.8-40.9,5.4-6.3,11.1-12.2,17.2-17.8,5.9-5.4,12.3-10.3,17.5-16.4s7.6-11.8,7.3-18.9-3-12.2-8.7-14.9-13-.2-18.6,3.3c-6.4,3.9-10.9,10-14.2,16.6-6.8,13.9-8.3,30.2-4.2,45.1s2.4,7.3,4,10.7c0,0,2.6-1.4,2.6-1.5h0Z"/>
    <path d="M796.6,982.4c1.5-13.5,3.2-28.2-2.8-40.9-4.6-9.8-14-18.3-25.4-17.8s-10,2.5-14.4,5.2-8.2,6.6-11.2,10.9c-6.7,9.4-10.2,20.6-12.5,31.7s-3,23.7-2.2,35.5,3.2,23.6,7.1,34.8,9.1,21.9,15.8,31.7,15,19.5,25,26.5,21.4,11,33,8.1,9.9-3.8,14.1-6.9,7.5-7.1,9.2-11.9,1.3-4.8,1.3-7.2c0,.1-1.2.7-1.3.7s-1.3.6-1.3.8c0,4.9-1.8,9.7-4.8,13.6s-3.3,3.7-5.3,5.2-1.1.8-1.7,1.2-.5.3-.7.5c-.5.4,1.2-.6,1-.5s-.5.3-.8.4c-1.2.6-2.4,1.1-3.6,1.6-4.9,1.8-10.2,2.4-15.4,1.7s-11.5-2.9-16.6-5.9c-10.3-5.9-18.7-14.8-25.8-24.1-6.9-9.2-12.6-19.3-16.9-30s-7.2-21.8-8.8-33.2-1.6-23-.2-34.5,1.8-11.4,3.3-17,3.1-10.6,5.6-15.6,5.3-9.4,8.9-13.4,3.6-3.6,5.6-5,.6-.4,1-.7,1.3-.8,0,0-.1,0,.2,0,.8-.4,1.1-.5c1.1-.5,2.2-.9,3.4-1.2,5-1.4,10.3-1,15.1,1s9.1,5.8,12.2,10.1c7.6,10.6,8.3,24,7.3,36.6s-.6,6.9-1,10.3c0-.1,1.2-.6,1.3-.7s1.3-.6,1.3-.8h0Z"/>
    <path d="M830.4,941.7c-.5-6.2-.9-12.5-1.4-18.7,0,0-1.2.7-1.3.7-.2.1-1.3.6-1.3.8-2.8,23.9-4.4,48-4.8,72s.4,48.2,2.3,72.2,2.6,27,4.4,40.4c0,0,1.2-.7,1.3-.7.3-.1,1.2-.5,1.3-.8,5.8-14.7,9.8-30.1,12.6-45.6s4.5-31.4,5.8-47.1,1.3-17.9,1.9-26.8l-2.6,1.5c2,15.1,4,30.1,5.9,45.2s3.8,29.9,5.9,44.8,1.9,9.7,3.9,14.2,4.4,8,8.5,10,4.2,1.4,6.4,1.2,5-1.4,7.3-2.7,4.2-2.9,5.9-4.9,3.2-4.4,4.5-6.8c3-5.8,5.4-12,7.5-18.2s4.2-13.1,5.7-19.7c3.1-13.4,4.7-27.1,4.9-40.9,0-6.8-.2-13.7-.9-20.5-.3-2.7-.5-5.6-1.7-8s-3.1-3.6-5.4-2.8-2.3,1.2-3.3,1.8-1.7,1.5-2.3,2.4c-1.4,2.4-1.9,5.3-2.5,8.1-1.4,6.4-2.3,12.8-2.9,19.3-1.1,13-.5,26.2,1.7,39.1,2.2,12.9,6.1,25.5,11.5,37.3s2.7,5.7,4.2,8.5c0,0,2.5-1.3,2.6-1.5,5.8-10.7,10.2-22.1,12.9-33.9,2.8-11.8,4-24,3.5-36.2-.2-6.8-1-13.6-2.3-20.3,0,0-1.2.7-1.3.7-.2.1-1.3.5-1.3.8-2.4,15.3-4.9,30.8-3.3,46.3s5.3,24.3,13,33.9,9.2,9.5,15.2,12.4,2.6-1.3,2.6-1.5c4.3-20.9,6.7-42.1,7.2-63.4.5-21.2-.9-42.4-4.1-63.4s-4.2-23.6-7.3-35.2c0,0-1.2.7-1.3.7s-1.3.6-1.3.8c1.3,18.2,2.6,36.4,3.8,54.7,1.3,18.2,2.5,36.3,3.8,54.5.7,10.2,1.4,20.5,2.2,30.7,0,0,1.2-.7,1.3-.7s1.3-.6,1.3-.8c-.8-13.2-1.2-26.5-1.3-39.7s.2-26.5.7-39.7c.3-6.6.7-13.3,1.1-19.9s.5-6.6.8-9.9.4-5.8.8-8.7c.6-4.2,1.7-8.6,4-12.2s1.1-1.6,1.8-2.3.6-.6,1-.9.4-.3.6-.4.3-.2.4-.3-2.5,1.3-1.3.8c1.8-.8,3.8-1,5.7-.5,4.6,1.1,7.4,5.6,9.3,9.5s2.2,5.1,3.1,7.6,2.2,5.9,3.3,8.9c4.2,11.8,7.8,23.8,10.7,36s5.2,24.5,6.8,36.9c.8,6.2,1.4,12.4,1.9,18.6s.5,9.5,0,14.2-1.6,8.9-3.9,12.8-2.5,3.6-4.2,5.1-.8.7-1.3,1-.5.3-.8.5c-.5.4,1.1-.7.9-.5s-.6.3-.8.4c-1.1.5-2.3.9-3.5,1.2-10.3,2.4-20.9-3.7-28.9-9.6s-4.2-3.2-6.2-4.9-1.2.7-1.3.7-1.2.8-1.3.8c4.3,3.7,8.9,7.1,13.8,9.8s9.8,4.7,15.2,5.1,5,0,7.4-.8,4.8-2.1,7-3.5c3.8-2.4,6.6-6.1,8.2-10.3,3.7-9.5,2.7-20.3,1.7-30.2-1.2-12.9-3.2-25.6-5.8-38.3-2.6-12.7-6-25.3-10-37.6s-4.2-12.2-6.5-18.2-3.6-10-7.3-13.7-7.5-4.2-11.4-2.1-3.8,2.1-5.3,3.7-2.4,3.4-3.2,5.3c-1.9,4.5-2.4,9.3-2.9,14.1s-1.1,13.6-1.5,20.5c-.8,13.7-1.3,27.4-1.4,41.2-.1,13.7.2,27.4.8,41,.2,3.4.3,6.7.5,10.1l2.6-1.5c-1.3-18.2-2.6-36.4-3.8-54.7-1.3-18.2-2.5-36.3-3.8-54.5-.7-10.2-1.4-20.5-2.2-30.7l-2.6,1.5c5.3,20.6,8.8,41.7,10.4,63,1.6,21.1,1.3,42.4-.9,63.5s-3,23.8-5.5,35.6l2.6-1.5c-10.8-5.2-18.5-14.9-23.1-25.8s-6.3-27-5.2-40.8,2-17.4,3.4-26l-2.6,1.5c2.3,11.9,2.9,24.2,1.9,36.3s-3.6,24.1-7.7,35.5c-2.3,6.4-5.1,12.6-8.4,18.6l2.6-1.5c-6-11.2-10.6-23.1-13.6-35.5-3-12.3-4.5-25-4.4-37.7,0-6.3.5-12.7,1.3-19s.9-6.3,1.6-9.4,1.1-5.9,2.1-8.6,1-2.2,1.7-3.2.4-.5.6-.7c.4-.3,1.3-.9-.3,0s-.7.4-.2.3.6,0,.9,0c2.4,0,3.9,2.1,4.7,4.2s1.1,5.6,1.3,8.3.5,6.7.7,10c.5,13.4-.4,26.8-2.7,39.9-2.3,13.2-6,26.1-11,38.5-2.2,5.3-4.4,10.8-8,15.3s-1.7,2-2.6,2.9-.9.8-1.3,1.1-.5.4-.7.5c0,0-.5.3-.6.4,0-.1,2.2-1.2,1-.6-2.2,1-4.7,1.4-7.1,1.1-9.4-1.2-13.4-12.2-15.2-20.1s-1.9-12.4-2.7-18.6-1.9-14.6-2.9-21.9c-1.9-14.6-3.8-29.3-5.8-43.9s-.9-7.2-1.4-10.8c0,0-1.2.7-1.3.7-.2,0-1.3.6-1.3.8-1,15.9-2.1,31.8-3.9,47.6-1.8,15.7-4.3,31.3-8.2,46.6s-4.9,17.1-8.2,25.4l2.6-1.5c-3.3-23.9-5.4-47.9-6.3-71.9-.9-24.1-.6-48.2.8-72.2s2-27,3.6-40.5l-2.6,1.5c.5,6.2.9,12.5,1.4,18.7,0,0,1.2-.7,1.3-.7s1.3-.6,1.3-.8h0Z"/>
  </g>
  <g id="Ebene_4" class="st1">
    <path d="M506.9,301.2c-3.2-14.5-6.6-29.5-14.7-42.2s-18.5-19.8-32-21.5-12.2,0-17.6,2.9-9.8,5.8-13.2,10.6c-7.4,10.4-8.1,24.3-7.6,36.6s1.1,15.8,1.8,23.8,1.6,17.7,2.5,26.6c1.8,17.7,3.8,35.4,6.1,53.1,4.5,35.5,10,70.8,16.3,106,6.4,35.1,13.6,69.9,21.8,104.6s2,8.4,3,12.6l3.5-2c-11.5-22.2-23.9-43.9-37.2-65-13.4-21.2-27.7-41.9-42.9-61.8s-17.3-22.2-26.3-33l-3.5,2c34.2.7,68.5-4.4,101-15.1s28.7-10.3,41.8-18c10.8-6.4,21.7-15.6,23.8-28.7s-3.3-26.2-15.9-29.3-3.5,1.8-3.5,2c.8,27.6,2.8,55.1,6.3,82.5,3.4,27.5,8.2,54.8,14.3,81.8s7.3,30.3,11.5,45.3c-.1-.4,3.4-1.5,3.5-2,8-42.4,11.3-85.6,10-128.8-.4-12.2-1.1-24.4-2.2-36.6l-3.5,2c8.8,40.4,17.7,80.9,26.5,121.3,2.5,11.4,5,22.8,7.5,34.2,0-.4,3.3-1.5,3.5-2,4.1-9.8,8.2-19.6,12.4-29.4-.1.3-1.4.8-1.7,1s-1.6.6-1.7,1c-4.1,9.8-8.2,19.6-12.4,29.4l3.5-2c-8.8-40.4-17.7-80.9-26.5-121.3-2.5-11.4-5-22.8-7.5-34.2,0,.4-3.5,1.5-3.5,2,3.9,43,3.3,86.3-2.1,129.1-1.5,12.1-3.4,24.2-5.7,36.2l3.5-2c-7.5-26.5-13.8-53.4-18.7-80.6-4.9-27.3-8.6-54.8-10.8-82.4-1.3-15.5-2.1-31.1-2.6-46.7l-3.5,2c10.5,2.5,16,13.3,16.3,23.4s-7.1,22.6-16.7,29.7-12.7,7.5-19.6,10.4-15,6-22.7,8.5c-15.3,5-30.9,8.8-46.8,11.3s-36,4.1-54.2,3.7-3.3,2.2-3.5,2c16,19.1,31.3,39,45.6,59.4,14.4,20.5,27.9,41.7,40.5,63.4,7.1,12.2,13.8,24.5,20.3,37,0-.1,3.5-1.8,3.5-2-8.2-33.9-15.6-68-22.1-102.3-6.5-34.2-12-68.5-16.7-103s-8.5-69-11.5-103.7-2.7-27.2.4-40.4,3.8-11.5,7.7-16.1,1.9-2,3-2.9,1.2-1,1.8-1.4,1.8-.8.4-.4.6-.2,1-.4c2.7-1.2,5.7-1.9,8.6-2.2,12.5-1.2,25.3,4.9,33.6,14s14.5,25.1,17.9,39,1.7,7.1,2.5,10.7c0-.4,3.6-1.6,3.5-2h0Z"/>
    <path d="M639.7,450c2.5-12.8,2.1-26.1-.9-38.8s-3.7-12.5-6.5-18.3-5.7-11.3-10.6-15.2-4.7-3.1-7.6-3.3-5.7,1.5-8.3,3c-4.4,2.6-6.2,7.3-7,12.1s-.6,5.6-.8,8.5-.3,7.1-.3,10.7c0,7.2.1,14.3.6,21.4.9,14.2,2.8,28.3,5.7,42.2,2.9,13.9,6.8,27.7,11.7,41.1s9,25.1,20.5,31.3,11.2,3.9,16.7,1.9,2.7-1.2,3.9-1.9,3-1.7,4.4-2.7c2.2-1.7,4.1-3.9,5.6-6.2,3.5-5.2,5.7-11.3,7.7-17.2s3.8-13.2,4.9-19.9c2.2-13.6,2.4-27.5.3-41.1-.5-3.3-1.1-6.6-1.9-9.9,0,0-1.6.9-1.7,1s-1.8.9-1.7,1c3,13.1,4,26.6,2.9,39.9-1.1,13.4-4.2,26.6-9.3,38.9s-4.7,10.4-8.9,14.2-1,.9-1.5,1.3-.6.5-1,.7c-.7.5-1.5.6,1.8-1-.2,0-.4.2-.6.3-1.3.6-2.7,1.1-4.1,1.3-2.8.5-5.6.3-8.3-.4-12.3-3.1-18.9-14.7-23.3-25.6s-9.3-26-12.6-39.3-5.6-27.2-7-41-1.8-27.6-1.3-41.4.4-10.9,2.5-15.9,2.2-4.1,4.1-5.4.3-.2.4-.3c-3.6,2.6-3.4,1.9-2.3,1.4s.5-.2.8-.3c.6-.2,1.3-.4,2-.5,1.3-.2,2.6,0,3.9.3,5.5,1.5,9.6,6.6,12.4,11.3s5.9,11.3,7.9,17.3c4,12,5.6,24.9,4.5,37.5s-.7,6.1-1.3,9.1c0,0,.6-.3.5-.3.4-.2.8-.5,1.2-.7s.8-.5,1.2-.7.5-.2.5-.3h0Z"/>
    <path d="M641.6,311.2c-.3-5.4-.6-10.9-.9-16.3,0,.1-1.6.9-1.7,1s-1.7.8-1.7,1c.3,14.2,1.2,28.4,2.6,42.5s3.4,28.2,5.9,42.2,5.6,27.9,9.2,41.6c3.6,13.8,7.8,27.5,12.5,40.9s9.9,26.6,15.7,39.6,1.4,3.2,2.2,4.8c0-.1,3.2-1.7,3.5-2,10.8-16,18.8-33.8,23.7-52.4,4.9-18.5,6.8-37.8,5.5-56.9s-2.5-21.5-5.3-31.9c0,.3-3.6,1.6-3.5,2,5,18.6,6.6,38.1,5.1,57.3-1.5,19.1-6.1,38-13.6,55.6s-9.4,19.4-15.5,28.4l3.5-2c-5.9-12.9-11.2-26.1-16.1-39.5-4.8-13.4-9.1-26.9-12.9-40.6-3.8-13.7-7-27.5-9.7-41.5-2.7-14-4.8-28.1-6.4-42.3s-2.6-28.3-3-42.5,0-3.5-.1-5.3l-3.5,2c.3,5.4.6,10.9.9,16.3,0-.1,1.6-.9,1.7-1s1.7-.8,1.7-1h0Z"/>
    <path d="M707.8,409.3c6.5,10.3,13.3,20.5,20.4,30.5s14.4,19.7,21.9,29.2,15.5,19,23.5,28.1,16.4,18,24.9,26.7,17.3,17.1,26.3,25.4,2.3,2,3.4,3.1,1.6-.9,1.7-1,1.7-1.1,1.7-1c-9.1-8.2-18-16.6-26.6-25.3s-17-17.5-25.1-26.6-16.1-18.4-23.7-28-15-19.2-22.1-29.1-14-20-20.5-30.2-1.6-2.6-2.5-3.9-3.5,2-3.5,2h0Z"/>
    <path d="M918.7,227c-1.7,42.2-2.5,84.4-2.6,126.6s.6,84,2.1,125.9c.5,14.2,1.4,29.3,8.3,42.1,3,5.7,7.4,10.7,13.2,13.6s13.7,3.9,20.5,1.8c6.2-1.9,12.4-5.7,17.3-9.8s10.9-11.5,14.8-18.4,6.8-15.3,8.8-23.4c2.2-8.8,3.6-17.9,4.1-27,1.1-18.2-1.2-36.6-6.7-54-2.6-8.2-5.7-16.7-10.5-24-4.1-6.2-10-12.6-17.6-14.4s-7.1-.4-10.3,1.1-5.3,2.7-7.3,4.6c-5,4.7-6.8,12-7.7,18.5s-1.2,18-1.3,26.9.3,19.7,2,29.4c2.9,16,9.9,31.7,22.4,42.6s12.7,8.9,20.2,10.6,17,1.5,25.2-.8,15.2-6,22.2-10.1,14.3-9.6,20.7-15.3c12.7-11.3,24.7-24.4,32.7-39.6,7.4-13.8,11.1-29.6,7.7-45.1-2.9-13.4-10.7-26.4-22.8-33.3s-6.3-3-9.7-3.8-.9-.2-.9-.2c0,0,.9-1.2,1-1.3.5-.7,1.1-1.4,1.6-2.2,1.3-1.8,2.5-3.6,3.6-5.4,4.3-6.9,7.7-14.3,10.1-22.1,4.9-15.5,6.1-32.2,3.4-48.2-1.3-7.8-3.6-15.5-6.8-22.8,0,.2-3.5,1.6-3.5,2,2,31.2,4.1,62.5,6.1,93.7,2,31.1,4.1,62.3,6.1,93.4,1.1,17.6,2.3,35.2,3.4,52.8l3.5-2c-10-14-19.9-28-29.9-42-5-7-10-14-15-21s-4.9-6.7-7.2-10.2-4-6.3-4.7-10-.2-6.4,1.4-9.1,1.4-1.9,2.2-2.7,1.1-.9,1.6-1.3c1.1-.8.8.1-.8.4.5,0,1.1-.5,1.6-.7,5.7-2.5,11.9-3.1,17.9-4.1,14.7-2.3,29.4-5.4,43.8-9.1,29-7.4,57.3-17.5,84.5-30.1,26.2-12.1,51.5-26.5,75.4-42.9s6.2-4.3,9.2-6.5,1.1-.3.2-.5-.9,0-1.1,0c-.8,0-1.5,0-2.3,0-1.9,0-3.8,0-5.6.2-6.9.4-13.9,1.2-20.7,2.5-13.5,2.6-26.6,7-39,13-11.7,5.7-23,12.5-33.2,20.7s-20,17.8-27.1,29c-12.5,19.7-20.2,49.1-1.6,67.8,9.4,9.5,22.7,13.2,35.2,16.7s12.7,3.5,18.6,6.2,11.3,6.1,15.9,10.6,7.8,9,9.4,14.7.9,11.9-1.9,17.2c-6.3,12-19.7,17.2-31.7,21.4-29.8,10.6-61.7,15.1-93.2,13.4-7.7-.4-15.4-1.2-23-2.4s-1.4.8-1.7,1-1.4,1.1-1.7,1c31.1,4.8,63.2,3.3,93.7-4.3,7.7-1.9,15.3-4.2,22.8-6.8,6.2-2.2,12.3-4.6,18-7.7,10-5.5,20.6-12.6,22.7-24.7,2.1-12.5-6.4-23.1-16.1-29.8s-23.7-10.2-36.2-14.1c-12.2-3.8-24.6-9-31.9-20-6.7-9.9-7.7-22.2-5.5-33.7,5-26.1,23.9-47,44.9-62.1,22.9-16.5,51.1-25.9,79.3-27.5s3.2-.2,4.8-.2,5.2-.4,5.4,0-4,2.9-4.5,3.2c-1.5,1.1-3,2.1-4.5,3.1-6.3,4.4-12.8,8.6-19.3,12.7-13.3,8.3-27.1,15.8-41.1,22.7-27,13.1-55.2,23.8-84.1,31.8s-28.9,7.3-43.6,9.9c-6.7,1.2-13.5,1.9-20.1,3.4s-9.9,3.2-14.3,6.1-7.4,8.9-5.8,14.8,3,6.8,5.1,9.8,4.9,6.9,7.3,10.3c9.8,13.8,19.7,27.6,29.5,41.4,4.9,6.8,9.7,13.6,14.6,20.4,0,0,3.5-1.8,3.5-2-2-31.2-4.1-62.5-6.1-93.7-2-31.1-4.1-62.3-6.1-93.4-1.1-17.6-2.3-35.2-3.4-52.8l-3.5,2c12.8,29,10.5,63.9-5.6,91.2-2,3.4-4.2,6.7-6.7,9.9l-.3.4c-.4.3-.5.5-.1.5.1.1,1,.2,1.1.3.7.2,1.5.4,2.2.6,1.7.5,3.4,1.2,5.1,2,5.8,2.8,10.9,7.2,14.8,12.3,8.4,10.9,12.3,25.2,11.2,38.9s-9.3,31.2-19.1,43.9c-10.3,13.4-23,25.8-37.1,35.3s-31.8,15-48.5,10.3-25.8-15.6-32.7-28.8-10.1-34-10-51.7.2-17.8,1.1-26.7,2.1-13.5,6.3-18.7,2.2-2,3.3-3.1l-1.5.8c.4-.2.8-.4,1.2-.5.3-.1.6-.2,1-.4.9-.3,1.9-.5,2.8-.7,3.5-.5,7,.4,10,2,6.9,3.6,12,10.2,15.6,16.9s7,15.9,9.3,24.2,4,17.2,4.9,26c1.7,17.5.4,35.4-4.1,52.5-4,15.3-11.1,30.1-23.5,40.4s-2.9,2.2-4.4,3.2,1.5-.7,0,0-1,.5-1.4.7c-.9.4-1.7.8-2.6,1.1-3.1,1.1-6.4,1.8-9.8,1.7-6.7,0-13.3-2.7-18.2-7.2-9.9-8.9-13.1-23.2-14.5-35.9s-1-16.5-1.3-24.8-.6-20.5-.9-30.8c-.5-20.3-.8-40.6-.9-60.9-.2-40.8.3-81.6,1.5-122.4.3-9.8.6-19.6,1-29.4,0,.2-1.6.9-1.7,1s-1.7.8-1.7,1h0Z"/>
    <path d="M1148.8,231.8c-2.3,7.6-4.1,15.2-5.5,23s-2.3,15.7-2.8,23.6-.6,15.8-.2,23.7,1.2,15.7,2.5,23.5,3,15.5,5.1,23.1.6,1.9.8,2.9c0,0,1.6-.9,1.7-1s1.8-.9,1.7-1c-2.3-7.6-4.1-15.2-5.5-23-1.4-7.8-2.3-15.7-2.8-23.6-.5-7.9-.6-15.8-.2-23.7s1.2-15.7,2.5-23.5,3-15.5,5.1-23.1.6-1.9.8-2.9c0,0-.6.3-.5.3-.4.2-.8.5-1.2.7s-.8.5-1.2.7-.5.2-.5.3h0Z"/>
    <path d="M290.2,771c-1.5-11.2-3-22.3-4.5-33.5l-3.5,2c37.8,69.2,46.4,152.8,24.9,228.6-6.1,21.5-14.6,42.2-25.4,61.7l3.5-2c-35.2-72.5-37.3-159.8-5-233.7s38.9-70.5,79.4-65.8c39.4,4.6,64.2,41.1,71.1,77.3,9.6,50.2-6.2,100.7-1.8,151.1l3.5-2c-10.9-47.9-12-97.8-3.3-146.2s10.7-47.8,20.1-70.2c6.9-16.5,18.8-38.1,37.5-42.7,39.2-9.6,51.7,41.6,54.9,69.7,6,52,10.6,104.3,18.1,156.1,4.9,33.7,19.1,79.3,61.3,77.2,39.7-2,63.4-39.5,76.9-72.4,17.9-43.7,25.8-91.3,23.7-138.5s-4.6-46.7-10.6-69.3-6.2-22.6-10.9-33c-3.5-7.6-9.3-16.6-18.6-17.3-13.5-.9-21.9,14.2-25.9,24.6-8.3,21.5-14.1,44.1-16.3,67.1-4,42.4,4.9,88,34.7,119.9,24.6,26.3,62.1,43.3,98.5,37.9s61-29.5,75.6-59.3c21.7-44.3,15.9-95.2,7.5-142.1-3.2-17.8-6.4-41.1-24.1-50.7-12.9-7-26.4-2-37.6,5.6-16.4,11.3-25.8,29.8-31.1,48.5-5.6,19.5-7.8,40-6.8,60.3,2,40.9,16.8,81.3,42.9,112.9,26.4,32,68.4,58,111.4,50.3,36.4-6.5,65.1-34.9,86.6-63.1,52.1-68.5,76.6-157,69-242.6-1.9-20.9-5.7-41.6-11.4-61.8,0,.3-3.6,1.7-3.5,2,26.2,95,52.4,190.5,63.5,288.7l3.5-2c-40.8-47.5-91.2-86.1-147.6-113.3l-3.5,2c151.1-11,301.5-30.5,450.4-58.5,42.1-7.9,84-16.5,125.8-25.7,1.2-.3,2.2-1.7,3.5-2-147.9,32.7-297.6,57-448.3,72.8-42.6,4.5-85.2,8.2-127.9,11.4-.8,0-2.9,2.3-3.5,2,56.4,27.2,106.8,65.8,147.6,113.3,0,0,3.5-1.8,3.5-2-11.1-98.2-37.3-193.7-63.5-288.7l-3.5,2c26.2,92.6,11.4,195.3-38.9,277.3-25,40.7-62.4,88.5-115,87.6-48-.8-89.2-36.9-112.1-76.6-22.6-39.3-31-86.8-22.7-131.5,4.1-22.3,11.9-45,29.3-60.6s19.5-11.9,30.7-8.6c10.1,3,17,11.1,21.2,20.4s6.5,21.6,8.5,32.6,5,29.2,6.3,43.9c2.5,27,1.8,54.7-6.7,80.6-7,21.2-19.1,41.4-36.5,55.7-17.5,14.4-40.2,19.9-62.6,17.7-41.6-4.2-79.2-32.7-96.6-70.2-21.4-46.2-16.5-100.4,0-147.2,3.5-10,7.3-22.8,17.1-28.5l-3,1.7c15.9-7.4,25.1,11.3,29.5,23.4,6.2,17.2,10.8,35,14,53,6.4,36.8,6.5,74.6.3,111.4s-16.8,72.2-36.5,102.1c-10.7,16.3-25.4,30-45,33.9-15.2,3-30.9-.9-42.4-11.4-21.2-19.3-25.3-51.7-28.4-78.6-4.9-42.5-9.8-84.9-14.6-127.4-3-26-4.9-61.2-27.8-78.6-19.8-15.1-44.2-3-58,14-10.1,12.6-16.2,27.6-21.4,42.7s-11.2,37.2-14.5,56.3c-6.6,38.2-7.2,77.5-1.6,115.9s3.2,18.8,5.3,28c0-.4,3.5-1.5,3.5-2-4.1-47.6,9.7-95,3.2-142.5-5.3-38.7-28.6-79.5-70.7-85.7s-59.6,19-75.5,44.8c-21.7,35.4-32.7,78.1-35.1,119.3-2.8,47.8,6.5,96,27.4,139.1,0-.1,3.3-1.7,3.5-2,38-69.1,46.8-152.7,25.6-228.5-6-21.5-14.5-42.2-25.2-61.8,0,.1-3.5,1.7-3.5,2,1.5,11.2,3,22.3,4.5,33.5,0-.5,3.5-1.5,3.5-2h0Z"/>
    <path d="M1225.1,675.9c-2.1-3.9-6.2-6.2-10.5-6.6s-4.3,0-6.4.8-2.9,1.5-4.4,2.3-2.1,1.2-3,2.1c-6.5,6.2-4.1,18.5,4.3,21.7s4.9,1.1,7.4.7,5.4-1.6,7.9-3,5.3-3.2,7.4-5.5,3.5-4.7,4.7-7.4c2.5-5.5,3.8-11.6,4.9-17.5s2-13.3,2.3-20c.6-13.4-.7-26.8-3.8-39.8s-.8-3.2-1.2-4.8c0,0-1.6.9-1.7,1-.4.2-.8.5-1.2.7s-.5.2-.5.3c-1.2,13.1-2.3,26.1-3.5,39.2-.6,6.5-1.2,13.1-1.7,19.6s-1.2,11,.2,16.3,3.7,8,7.6,9.9,7.3,1.9,11,1.3,3.9-.9,5.8-1.7,4.9-2.5,7.2-4c3.6-2.4,6.3-5.5,8.2-9.4,4.8-10,4-21.6,2.6-32.3s-.4-2.7-.5-4.1c0,0-1.6.9-1.7,1-.4.2-.8.5-1.2.7s-.5.3-.5.3c.7,10.6,1.4,21.2,2,31.7.2,3,.4,6,.6,8.9,0-.1,1.6-.9,1.7-1,.4-.2.8-.5,1.2-.7s.4-.2.5-.3c6.9-8.1,10.9-18.4,11.9-29s-.9-21.3-5.6-30.8c-2.6-5.3-6.2-10.1-10.5-14.2s-1.6.9-1.7,1-1.7,1-1.7,1c1,1.9,2,3.9,3,5.8,0,0,3.5-1.9,3.5-2-1-1.9-2-3.9-3-5.8l-3.5,2c7.8,7.3,12.9,17.1,15.1,27.4,2.2,10.3,1.5,21.3-2.1,31.2-2,5.6-5,10.8-8.8,15.3l3.5-2c-.7-10.6-1.4-21.2-2-31.7s-.4-6-.6-8.9l-3.5,2c1.5,10.5,2.9,21.7-.3,32s-3.5,8.4-6.9,11.4-1.5,1.3-2.3,1.9-.8.5-1.2.8c-.9.5,2.6-1.5,2.1-1.2s-.2.1-.4.2c-.3.1-.5.3-.8.4-1.8.8-3.6,1.5-5.5,1.9-3.6.8-7.4.7-10.8-.6-3.8-1.5-6.6-4.6-8.1-8.4s-1.5-10.4-1.1-15.5c.5-6.3,1.1-12.5,1.7-18.8,1.1-12.7,2.3-25.4,3.4-38.1s.3-3.1.4-4.7l-3.5,2c3.4,12.4,5.1,25.2,5.1,38s-.4,12.7-1.2,19.1-1.9,12.2-3.6,18.1c-1.5,5.4-3.8,10.7-7.7,14.8s-1.8,1.8-2.9,2.5-.6.4-.9.6-.3.2-.4.2c3.6-2.3,2.9-1.6,2-1.2s-1.3.6-2,.9c-2.3.9-4.8,1.4-7.3,1.2-4.5-.3-8.5-2.8-10.5-6.9-1.8-3.6-2-8.1-.4-11.8s2.1-3.6,3.8-4.8.3-.2.4-.3c.8-.6,2.5-1.1-2.4,1.4.2-.1.5-.2.7-.4.5-.2,1-.4,1.5-.6,1-.3,2-.4,2.9-.5,4.1-.3,8.4,1.2,11.2,4.2s1.3,1.6,1.7,2.4c0,0,3.5-1.9,3.5-2h0Z"/>
    <path d="M1293.4,636c-.7-2.2-2.9-2.7-4.9-2.2s-1,.4-1.5.6c-1.3.7-2.5,1.4-3.7,2.2s-1.8,1.3-2.4,2.3c-1.4,2.4-.4,5.4,1.4,7.4s5.2,3.8,8.3,4.6c6.4,1.7,14.8,1.4,18.3,8.1s1.5,12.2-3.4,15.6c-1.2.8,3.7-2,2.3-1.4s-.4.2-.6.3c-.3.1-.7.3-1,.4-.7.2-1.4.4-2.1.4-1.4.2-2.8,0-4.2-.2-2.8-.6-5.4-2.1-7.1-4.3s-.8-1.2-1.1-1.8c0,0-3.5,1.9-3.5,2,2.5,5.2,9.2,7.6,14.6,5.9s4-1.9,5.8-3,2.2-1.7,3-2.9c1.7-2.4,2.3-5.4,2.1-8.2s-1.5-5.7-3.6-7.6-6.4-3.3-9.9-4-6.9-1.1-10-2.6-5.4-3.5-6.2-6.5-.3-2.5.2-3.6,1.3-1.8,2.3-2.5c-1.8,1.2-3.8,2-2.1,1.3s.5-.2.8-.3c.5-.1,1.1-.2,1.6-.2,1,0,1.9.3,2.6,1s.6.9.8,1.4c0,0,1.6-.9,1.7-1s1.8-.9,1.7-1h0Z"/>
    <path d="M1327.4,638c-3,1.6-5.9,3.3-8.1,5.9s-2.9,4.3-3.7,6.8c-1.6,4.9-1.4,10.5.6,15.3s6.2,8.5,11.3,9.8,10.6.5,15.2-1.8,3.7-2,5.4-3.1,2.1-1.5,3-2.4c1.9-1.8,3.4-3.9,4.3-6.3s.5-1.3.6-1.9c0,0-.6.3-.5.3-.4.2-.8.5-1.2.7s-.8.5-1.2.7-.5.2-.5.3c-.6,2.4-1.8,4.6-3.3,6.4s-1.6,1.8-2.6,2.6-.9.7-1.4,1.1-.5.4-.8.5c-.8.5-1.8.8,2-1.2-.2,0-.3.2-.5.3-4.4,2.2-9.6,3.1-14.4,2-4.8-1-8.9-4-11.3-8.3s-3-9.4-2.2-14.2,1.4-5.3,2.9-7.6,1.6-2.2,2.5-3.2,1-.9,1.5-1.3.5-.4.8-.6.3-.2.4-.3c1.3-.8-3.4,1.9-2.1,1.2s1.6-.9,2.4-1.4.7-.3.8-.5,0,0-.2,0h0Z"/>
    <path d="M1353.1,643c-1.4.5-2.7,1.4-4,2.1s-1.7,1-2.4,1.7c-1.2,1.2-1.9,2.8-2.2,4.5-.7,3.4.3,7.3,2.9,9.6s8,3,11.9,1.6,2.2-1,3.2-1.5,2.9-1.6,4.2-2.5c1.8-1.4,3.3-3.2,4.3-5.3,2.6-5,2.6-11.1,1.2-16.5,0,0-1.6.9-1.7,1-.6.3-1.2.6-1.7,1-3.6,3.1-4,8.1-2.6,12.3s5.1,8.2,9.9,9.2,12.7-1.7,18.1-5.2c5.3-3.5,8.9-8.9,11.2-14.8s2.1-6.5,2.9-9.8.7-3.4,1-5,.1-.7.2-1.1,0-.4.1-.6.1-.3,0-.5-.6-.4-.8-.6-.7-.4-1-.6c-4.6-2.6-10.3-3-15.3-1.3s-2.4.9-3.6,1.6c-1.7.9-3.5,1.9-5,3s-2.1,1.7-2.9,2.7h-.1c-.2.3-.1.3,0,.3.1,0,.4.1.6.2.4.1.8.2,1.2.3.8.2,1.6.4,2.5.7,6.1,1.7,12.5,4.3,16.1,9.9s3.9,11.1-.5,15.1-.4.4-.7.6-.3.2-.4.3h-.1c-1,.7-.1.2,2.6-1.4-.5.3-1.1.5-1.7.7-1.1.4-2.2.5-3.4.5s-2.2-.3-3.2-.9-.9-.6-1.2-.9-.2-.2-.3-.3c-.2-.3,0-.2.2-.4.4-.4,1-.6,1.4-.9,1.6-1,3.2-2.1,4.7-3.1s-.3.1-.2,0c-.3.2-.7.4-1,.6-.7.4-1.4.8-2.1,1.2-2.2,1.4-4.4,2.9-6.6,4.3h0c1.4,1.7,3.5,2.4,5.6,2.4,3,0,5.6-1.8,8.1-3.3s3.5-2.7,4.3-4.8.8-5.5-.1-8.1c-2-5.8-7.1-9.5-12.6-11.7s-6-2-9.1-2.7-.6-.1-.6-.2c0,0,.3-.3.3-.4.2-.2.4-.4.6-.6.5-.5,1-.9,1.5-1.4s1-.7,1.5-1.1c1.6-1-3.2,1.8-1.7,1s.7-.3,1-.5c4.6-2,10-2.2,14.6-.4s2.3,1,3.4,1.7.5.3.7.5.2.1.2.4,0,.3,0,.4c-.2.8-.3,1.7-.5,2.5-.6,3.2-1.3,6.3-2.2,9.4-1.7,5.9-4.3,11.7-8.8,16.1s-2.1,1.9-3.3,2.7-.6.4-1,.6c-1.1.7,2.9-1.6,1.7-1s-.2.1-.3.2c-.7.4-1.4.7-2.2.9-2.6,1-5.3,1.4-8,1.2s-4.8-1-6.7-2.4-3.2-3-4.2-5c-1.9-3.7-2.5-8.4-.3-12.1s1.2-1.7,2-2.3l-3.5,2c1.1,4.4,1.3,9.1,0,13.4s-1.6,4.2-3,5.9-1.3,1.4-2,2-.8.6-1.3.9c-1.2.8,3.5-1.9,2-1.2s-.6.3-.9.4c-3.5,1.5-7.7,1.7-11.1-.2s-4.6-4.7-4.8-8.1.2-3.5,1-5.1.8-1.5,1.4-2.1.6-.6,1-.9.2-.1.3-.2l-2.8,1.6c0,0,.2-.1.3-.1.2,0,.4-.2.6-.3.6-.2,1.2-.7,1.7-1s.8-.5,1.2-.7.3-.2.5-.3h0Z"/>
    <path d="M1430.9,617.5c-1.4-1.5-3.4-1.7-5.2-.8s-1.5.8-2.3,1.3-1.7.9-2.4,1.5-1.6,1.5-2.2,2.4c-1.2,1.9-1.6,4.1-.8,6.3s2.7,4.6,4.8,6.2c4.4,3.6,9.9,5.6,13.6,10.1s3,4.7,2.8,7.5-.3,1.9-.9,2.7-.5.6-.8.9-.3.2-.4.3c-1.4,1,4.1-2.1,2.3-1.3-2.8,1.3-8.4.9-7.9-3.4,0,0-.6.3-.5.3-.4.2-.8.5-1.2.7s-.8.5-1.2.7-.5.2-.5.3c-.5,3.8,3.9,4.5,6.7,3.8s2.1-.9,3.1-1.4,2.6-1.3,3.6-2.4c1.5-1.6,1.6-4,1.1-6-1.5-5.6-7.1-8.8-11.7-11.7s-4.6-3-6.5-5-3.1-4.2-3.1-6.6,1.5-4.8,3.4-6.2.3-.2.4-.3c.6-.4.1-.1-1.3.7-1.5.8-1.9,1-1.2.7.3-.1.6-.2.8-.3.5-.1,1-.2,1.5-.2,1.1,0,2.1.6,2.9,1.4s1.6-.9,1.7-1,1.7-1.1,1.7-1h0Z"/>
    <path d="M1222.6,765.9c3.1,12.2,4.9,25.9-1.3,37.4s-2.7,4.4-4.5,6.3-1.8,1.8-2.8,2.6-.9.7-1.4,1.1-.6.4-.8.5c-1.1.7,3.1-1.7,2-1.1s-.3.2-.5.2c-4.6,2.3-9.9,2.8-14.8,1.4-9.9-2.8-17.6-11.9-19.3-22s2.7-23.6,9.8-32.7c7.7-9.8,18.2-16.8,28.6-23.2,1.3-.8,2.6-1.6,3.9-2.4l-3.4,2c-9.7,9.9-18.5,20.7-26.1,32.2-7.6,11.5-14.2,23.6-19.5,36.3-4.5,10.7-8.9,25.3-.2,35.2s20,8,29.2,3.6,11.4-6.9,15.8-12,7.5-10.5,10.7-16.1,1.5-2.8,2.3-4.2c0,0-.5.3-.5.3-.4.2-.8.5-1.2.7s-.8.5-1.2.7-.4.2-.5.3c-3,5.6-6,11.1-9.8,16.3s-3.8,4.9-6.1,7.1-2.3,2.2-3.6,3.1-1.2.9-1.8,1.3-.7.5-1.1.7-.3.2-.4.3c-.9.6,2.8-1.6,1.8-1-8.9,4.6-21.3,5.3-29-1.9-9.3-8.8-6.1-23.2-1.9-33.7,4.9-12.5,11.3-24.4,18.5-35.7,7.3-11.4,15.6-22,24.8-31.9s2.3-2.4,3.4-3.6c0,0-.4.2-.5.3-.3.2-.7.4-1,.6-.6.4-1.3.7-1.9,1.1-10.8,6.6-21.7,13.3-30.2,22.8-7.9,8.8-13.6,20.7-12.6,32.7s2.3,10.6,5.6,14.9c3.2,4.2,7.4,7.5,12.4,9.3,4.9,1.8,10.3,1.8,15.1-.2s2.9-1.4,4.3-2.2,2.8-1.6,4.1-2.6c2.1-1.6,4-3.5,5.6-5.6,7.8-10.4,7.5-24,4.9-36.2s-.8-3.4-1.2-5.1c0,0-1.6.9-1.7,1s-1.8.9-1.7,1h0Z"/>
    <path d="M1263.4,756.1c-2.3,15.9-4.6,31.8-6.9,47.7-.7,4.5-1.3,9.1-2,13.6l3.5-2c1.1-11.6,4.3-23,9.5-33.4s3.1-5.9,4.9-8.7l-3.5,2c.8,13.1,1.7,26.2,2.5,39.3s.5,7.4.7,11.1c0-.1,1.6-.9,1.7-1,.4-.2.8-.5,1.2-.7s.5-.2.5-.3c1.8-4.7,4.8-8.7,7.8-12.7s5.8-7.7,7.5-12.1,1.6-7.4,1-11-2.1-6.7-5-8.7-3.2-1.6-5-1.7-3.9.6-5.7,1.6-4.5,2.5-6.2,4.5-2.2,3.4-2.6,5.4c-.9,4,.7,8,3.7,10.6s7,4,10.9,3.8,3.9-.6,5.7-1.5,3.2-1.7,4.7-2.7,1.7-1.2,2.5-1.9c3.3-3,5.4-7.2,6.2-11.6s.3-2.2.3-3.2l-3.5,2c1.1,8.9,2.2,17.8,3.4,26.7,0,0,1.6-.9,1.7-1,.5-.3,1.3-.6,1.7-1,7.3-7,12-16.6,13-26.7.3-2.9.3-5.7,0-8.6,0,.1-1.6.9-1.7,1-.4.2-.8.5-1.2.7s-.5.2-.5.3c-2.5,7.8-3,16.1-1.6,24.1s1,4.5,1.7,6.7c0,0,1.6-.9,1.7-1,.4-.2.8-.5,1.2-.7s.4-.2.5-.3c5-9.4,10.1-18.7,15.1-28.1s2.8-5.3,4.2-7.9c0,0-.5.3-.5.3-.4.2-.8.5-1.2.7s-.8.5-1.2.7-.4.2-.5.3c-5,9.4-10.1,18.7-15.1,28.1s-2.8,5.3-4.2,7.9l3.5-2c-2.5-7.8-3.1-16.1-1.8-24.1s.9-4.5,1.6-6.7l-3.5,2c1,10.1-1.7,20.4-7.4,28.8s-3.5,4.5-5.6,6.5l3.5-2c-1.1-8.9-2.2-17.8-3.4-26.7,0,0-1.6.9-1.7,1-.4.2-.8.5-1.2.7s-.5.2-.5.3c0,4.2-1.4,8.4-3.9,11.9s-2.7,3.2-4.4,4.4-.3.2-.4.3c-1,.7,2.6-1.4,2.1-1.2s-.5.3-.8.4c-.5.2-1,.4-1.4.6-.9.3-1.8.5-2.8.6-7.2.8-15.9-4.2-15.8-12.1s2.1-7.5,5.2-9.7.2-.1.3-.2c.9-.6,1.7-.6-2.3,1.3.2-.1.4-.2.6-.3.4-.2.9-.3,1.3-.5.9-.2,1.8-.3,2.7-.3,1.7,0,3.3.6,4.7,1.6,5.8,3.8,6.4,12.4,4.7,18.5s-3.8,7.9-6.3,11.4-5.8,7.5-7.9,11.7-1,2.1-1.4,3.1l3.5-2c-.8-13.1-1.7-26.2-2.5-39.3-.2-3.7-.5-7.4-.7-11.1,0,.1-1.6.9-1.7,1-.4.2-.8.5-1.2.7s-.4.2-.5.3c-6.2,9.8-10.6,20.8-12.9,32.2s-1.1,6.5-1.4,9.8c0,0,.6-.3.5-.3.4-.2.8-.5,1.2-.7s.8-.5,1.2-.7.5-.2.5-.3c2.3-15.9,4.6-31.8,6.9-47.7.7-4.5,1.3-9.1,2-13.6,0,0-.6.3-.5.3-.4.2-.8.5-1.2.7s-.8.5-1.2.7-.5.2-.5.3h0Z"/>
    <path d="M1338.3,783.6c1.9.2,3.3-.4,4.9-1.3s3.7-2,4.9-3.8,2.4-5.9,1.4-8.7-1.7-2.9-3.2-3.6-.6.3-.5.3c-.4.2-.8.5-1.2.7s-.8.5-1.2.7-.5.2-.5.3c-2.1,6.6-.2,14.2,4.5,19.3,4.8,5.3,12.4,7.1,19.2,5.4s3.8-1.3,5.5-2.3,4.5-2.5,6.4-4.3c-.1.1-.4.2-.5.3-.4.2-.8.5-1.2.7s-1.3.6-1.7,1-1.3,1.1-1.9,1.6-.4.2-.5.4-.2.1-.3.2h0c-.5.3,0,.1,1.1-.6,2.1-1.2,1.5-.8,1.1-.6s-.2,0-.2.1c-.2.1-.5.2-.7.4-1.5.7-3.1,1.2-4.7,1.5-3.2.6-6.6.4-9.8-.5-6.3-2-11-7.3-12.7-13.6-.9-3.5-.9-7.3.2-10.8l-3.5,2c5.4,2.6,4.3,10.7.3,14s-.3.2-.4.3c-1.5,1.1,3.9-2,2.4-1.4s-.7.3-1,.4c-.8.2-1.6.2-2.3.1s-.5.3-.5.3c-.4.2-.8.5-1.2.7s-.8.5-1.2.7-.4.3-.5.3h0Z"/>
    <path d="M1427.8,752.1c-1.2.3-2.4.7-3.5,1.3-1.8.9-3.6,1.9-5.3,3s-3.9,3.2-5.4,5.2c-2.9,4.1-4.5,9.3-4,14.4s1.1,5.7,2.7,8.1,3.2-1.8,3.5-2c7.7-8,13.9-17.4,18.3-27.6,1.2-2.9,2.3-5.8,3.2-8.8,0,0-.6.3-.5.3-.4.2-.8.5-1.2.7s-.8.5-1.2.7-.5.2-.5.3c-1.9,6.2-2.1,12.8-.7,19.1,1.4,6.3,4.3,12.3,8.4,17.2s5.1,5.2,8.2,7.2.6-.3.5-.3c.4-.2.8-.5,1.2-.7s.8-.5,1.2-.7.5-.3.5-.3c-5.5-3.5-9.9-8.4-12.9-14.2s-4.6-12.2-4.6-18.6.5-7.3,1.6-10.7l-3.5,2c-3.3,10.6-8.5,20.6-15.4,29.3s-4,4.8-6.2,7.1l3.5-2c-5.2-8.1-2.7-19.4,4.1-25.7.5-.4,1-.9,1.5-1.2s.6-.4.9-.6.3-.2.4-.2c.9-.6-3.3,1.8-2.2,1.3s2.5-1.1,3.9-1.4.4-.2.5-.3c.4-.2.8-.5,1.2-.7s.8-.5,1.2-.7.3-.3.5-.3h0Z"/>
    <path d="M1516.3,742c-3.6-1.2-7.6-.7-11,1s-2.9,1.6-4.3,2.5-1.6,1-2.3,1.6c-1.5,1.3-2.7,2.8-3.5,4.5-3.2,6.9.4,16,7.4,19s7.2,1.4,10.6,0,1.6-.7,2.4-1.2c1.4-.8,2.9-1.6,4.3-2.5s3-2.3,4.3-3.7c2.7-2.9,4.7-6.5,5.7-10.3s.9-8.6,0-12.8c-2.1-9.4-7.6-17.6-12.7-25.6-.7-1-1.3-2-1.9-3,0,0-3.5,1.8-3.5,2,4.3,15.8,8.6,31.6,12.8,47.3,1.2,4.4,2.4,8.8,3.6,13.2,0,0,1.6-.9,1.7-1,.4-.2.8-.5,1.2-.7s.5-.2.5-.3c-.1-11.3-.2-23.1,4-33.8s4.5-8.8,8.2-12.1,1.8-1.5,2.7-2.2,1-.7,1.4-1,.2-.1.3-.2h.1c.8-.6.2-.2-1.8,1,.2-.1.5-.3.7-.4,2-1,4.2-1.8,6.5-2.3,4.9-1,10-.5,14.3,2.1s.6-.3.5-.3c.4-.2.8-.5,1.2-.7s.8-.5,1.2-.7.5-.3.5-.3c-4-2.4-8.8-3-13.3-2.2s-4.6,1.1-6.7,2.2-2.7,1.4-4,2.2-2.7,1.5-3.9,2.4c-4.1,2.9-7.4,6.6-9.7,11s-4.2,11.1-5,17-.8,13.6-.7,20.5l3.5-2c-4.3-15.8-8.6-31.6-12.8-47.3-1.2-4.4-2.4-8.8-3.6-13.2l-3.5,2c4.8,7.6,10.2,15.2,13.3,23.7s2.4,8.5,2.2,12.8-1.4,7.4-3.2,10.6-4.4,6-7.4,8.1-.2.1-.3.2c-1,.7,2.7-1.5,2.2-1.2s-.4.2-.5.3c-.4.2-.8.4-1.3.6-.8.3-1.6.6-2.4.7-1.6.4-3.3.4-5,.2-7.3-1.1-12.3-8.4-11.7-15.6.3-3.6,2.1-6.9,4.9-9.2s.7-.5,1-.8.2-.1.3-.2c.4-.3,1.1-.6-.9.5s-1.4.8-.9.6.3-.2.5-.2c.8-.4,1.7-.7,2.5-.9,1.7-.5,3.5-.6,5.3-.4s1.8.3,2.6.6.5-.3.5-.3c.4-.2.8-.5,1.2-.7s.8-.5,1.2-.7.4-.3.5-.3h0Z"/>
    <path d="M1567.9,739.4c-3.2,7.6-3.2,16.3,0,23.9,0-.1,3.5-1.8,3.5-2-3.2-7.6-3.2-16.3,0-23.9,0,0-.5.3-.5.3-.4.2-.8.5-1.2.7s-.8.5-1.2.7-.5.2-.5.3h0Z"/>
    <path d="M1567.9,703.5c.1,0,.5-.3.5-.3.4-.2.8-.5,1.2-.7s.8-.5,1.2-.7.4-.3.5-.3c-.1,0-.5.3-.5.3-.4.2-.8.5-1.2.7s-.8.5-1.2.7-.4.3-.5.3h0Z"/>
    <path d="M1581.8,739.5c-3.4-8.9-1.3-19.4,4.7-26.8s3.8-3.9,6.1-5.4l-3.4,2c.8,8.3,1.7,16.6,2.5,25s.8,8.4,1.3,12.5.9,6.2,3.9,6.2,1.2-.2,1.8-.5c1.2-.7,2.4-1.3,3.6-2.1s2-2.2,2.6-3.4,1.5-3.5,2.1-5.3,1.4-3.6,2-5.5c2.6-7.4,4.7-15,6.3-22.6s2.8-15.5,3.5-23.3.2-1.9.2-2.9c0,0-.6.3-.5.3-.4.2-.8.5-1.2.7s-.8.5-1.2.7-.5.2-.5.3c-1.6,7.6-3.1,15.2-4.7,22.8s-1.5,7.5-2.3,11.3-1.5,6.6-1.6,9.9.6,5.8,2.7,7.8,3.9,2.2,6.1,2.2,4.7-.8,6.8-2,5.4-2.9,7.2-5.5c4.1-5.9,3.8-13.6,3.4-20.5l-3.5,2c1.2,7.1,3.6,14,7,20.4s7.9,12.2,13.1,17.1,6.2,5.3,9.7,7.5.6-.3.5-.3c.4-.2.8-.5,1.2-.7s.8-.5,1.2-.7.5-.3.5-.3c-6.1-3.9-11.5-8.8-16-14.4s-8.1-12-10.6-18.8-2.5-7.8-3.1-11.8c0,0-1.6.9-1.7,1-.4.2-.8.5-1.2.7s-.5.3-.5.3c.3,6,.6,12.3-1.9,17.9s-2.6,4.3-4.7,5.8,3.6-1.9,1.9-1.1-.6.3-.9.4c-.5.2-1.1.4-1.6.6-1.1.3-2.2.5-3.3.5-2.2,0-4.3-.6-6-2.1s-2.8-4.6-2.8-7.3.7-6.2,1.4-9.3,1.5-7.2,2.2-10.8c1.7-8.2,3.3-16.3,5-24.5l-3.5,2c-1.1,15.2-4,30.2-8.6,44.7-1.2,3.6-2.4,7.2-3.8,10.8s-1.2,3.3-2,4.8-.7,1.2-1.1,1.7-.5.5-.7.7-.3.2-.4.3c2.9-1.5,3.8-2,2.6-1.5,0,0-.2,0-.3,0-3,.9-4.3-2.6-4.6-4.9s-.4-3.6-.6-5.4-.4-4-.6-6c-.9-9.1-1.8-18.2-2.7-27.3,0,0-1.4.8-1.5.9-.6.4-1.3.7-1.9,1.1-8.2,5.1-13,14.8-12.5,24.3s.7,5.4,1.6,7.9c0,0,1.6-.9,1.7-1s1.8-.9,1.7-1h0Z"/>
    <path d="M1172.9,886.2c-1.7,1-3.5,1.9-5,3.3s-1.7,2.1-2.3,3.3c-1.1,2.4-1.5,5.2-1.2,7.9.5,5.5,3.8,10.9,9.3,12.6s6.4.8,9.5-.3,4.1-2,6.1-3.2,2.8-1.8,4-3c2.3-2.3,4.1-5.1,4.9-8.3.8-3.4.5-6.9-.8-10.1-2.5-6.6-8.6-11.7-15.4-13.3s-1.7-.3-2.6-.4-.5.3-.5.3c-.4.2-.8.5-1.2.7s-1.7,1-1.7,1c2.9,4.6,5.8,9.2,8.8,13.8s3.4-2,3.5-2c-2.9-4.6-5.8-9.2-8.8-13.8l-3.5,2c6.7.7,12.9,4.8,16.4,10.5,1.7,2.8,2.8,6,2.8,9.3s-.9,6.3-2.6,9-1.8,2.5-3,3.6-1.1,1-1.8,1.5-.7.5-1,.7c-1.2.8,3.1-1.7,2-1.1s-.4.2-.7.3c-2.7,1.3-5.8,1.9-8.8,1.5-5.6-.8-9.6-5.1-11-10.4s-.5-10.7,3.4-14.2.4-.4.7-.6.3-.2.4-.3.2-.1.3-.2c.7-.5,2-1.1-1.9,1.1.8-.5,1.6-.9,2.4-1.4s.3-.1.2-.1c-.2,0-.6.3-.8.4h0Z"/>
    <path d="M1218.6,898.6c-8.9-.4-12.1-12.5-7.8-19.1s1.4-1.9,2.3-2.6.9-.8,1.4-1.1.3-.2.4-.3c1.2-.8-3.4,1.9-2.2,1.3s.7-.3,1-.5c2.3-1,4.9-1.5,7.5-1.6,5.5-.2,10.8,1.7,15.4,4.7s10.4,9.2,14.9,14.4,1.6-.9,1.7-1,1.7-1.1,1.7-1c-7.7-9-16.8-19.3-29.7-19.2-2.6,0-5.2.5-7.7,1.5s-3.6,1.9-5.3,2.9-2.1,1.4-3,2.3c-3.3,3.2-4.4,7.8-3.4,12.3s4.4,8.8,9.3,9,.5-.3.5-.3c.4-.2.8-.5,1.2-.7s.8-.5,1.2-.7.4-.3.5-.3h0Z"/>
    <path d="M1296.2,845c-3.1-4.4-3-10.6.2-14.9l-3.5,2c3.9,7.9,7.3,16,10.2,24.3,2.8,8.3,5.1,16.8,6.8,25.5s1.7,9.8,2.3,14.7l3.5-2c-8.2-9-16.3-18-24.5-27-2.3-2.5-4.6-5.1-6.9-7.6l-3.5,2c13,.2,26,.3,39.1.5h10.9c.1.1.5-.1.5-.1.4-.2.8-.5,1.2-.7s.8-.5,1.2-.7.4-.3.5-.3c-13-.2-26-.3-39.1-.5-3.6,0-7.3,0-10.9-.1s-.5.3-.5.3c-.4.2-.8.5-1.2.7s-1.7,1.1-1.7,1c8.2,9,16.3,18,24.5,27s4.6,5.1,6.9,7.6,3.5-1.8,3.5-2c-1-8.7-2.6-17.4-4.8-25.9-2.2-8.5-5-16.9-8.3-25-1.9-4.6-3.9-9.1-6.1-13.6,0,0-3.2,1.7-3.5,2-3.2,4.3-3.3,10.5-.2,14.9s3.4-2.1,3.5-2h0Z"/>
    <path d="M1330.8,863.9c2.3,8.4,4.6,16.9,6.9,25.3,0,0,1.6-.9,1.7-1,.4-.2.8-.5,1.2-.7s.5-.2.5-.3c3.5-7.6,6.9-15.1,10.4-22.7s2-4.3,2.9-6.4l-3.5,2c2.3,7,4.7,14.1,7,21.1,0,0,3.2-1.8,3.5-2,8.2-5.9,16.3-11.8,24.5-17.7,2-1.5,4-2.9,6.1-4.4s2-1.5,3-2.2l.8-.6c0,0,.3-.1.3-.2,0-.2,0,0,0-.2s-.6-.4-.8-.5c-1.1-.5-2.3-.6-3.5-.3s-1.1.4-1.6.7c-1.3.7-2.6,1.4-3.8,2.2-2.2,1.4-3.8,3.9-4.3,6.4s.4,5.5,2.6,7.3,5.7,2.5,8.8,2,3.1-.7,4.5-1.4,2.5-1.4,3.7-2.1,1.6-.9,2.3-1.5c6.4-4.8,7.5-13.8,7.5-21.2s0-2,0-3c0,.1-1.4.8-1.5.9-.6.4-1.3.7-1.9,1.1-3.5,2.2-7,4.5-10.6,6.7s.3-.1.2,0c.3-.2.7-.4,1-.6.7-.4,1.4-.8,2.1-1.2,3.5-2.2,7-4.5,10.6-6.7l-3.4,2c.2,7.4-.2,15.6-4.9,21.7s-2.1,2.3-3.4,3.2,2.8-1.6,2.1-1.2-.4.2-.6.3c-.3.2-.7.3-1,.5-.7.3-1.5.5-2.2.7-2.8.6-5.9.5-8.5-.9s-4.1-3.6-4.1-6.4,1.1-5,2.8-6.8.9-.8,1.3-1.2.1,0,.2-.1c.5-.3,1.3-.8-1.2.7l-1.4.8h.1c0,0,.2-.1.3-.2.3-.1.5-.2.8-.3,1.1-.3,2.2-.3,3.3,0s.5.2.8.4.3.2.4.2.2,0,.2.1c0,.1-.2.2-.3.3-.9.7-1.9,1.4-2.8,2-1.9,1.4-3.8,2.8-5.8,4.2-7.6,5.5-15.3,11.1-22.9,16.6s-1.9,1.4-2.8,2l3.5-2c-2.3-7-4.7-14.1-7-21.1,0,0-1.6.9-1.7,1-.4.2-.8.5-1.2.7s-.5.2-.5.3c-3.5,7.6-6.9,15.1-10.4,22.7s-2,4.3-2.9,6.4l3.5-2c-2.3-8.4-4.6-16.9-6.9-25.3,0,0-1.6.9-1.7,1s-1.8.9-1.7,1h0Z"/>
    <path d="M1448.3,851.3c-3.9-3.7-9-.6-12.7,1.8-3.6,2.4-5.7,6.8-3.7,10.9s6.5,6,10.8,5.9,4.3-.6,6.2-1.6,5.2-2.8,7.1-5.2c3.8-4.6,4.7-11.1,3.6-16.8l-3.5,2c8.3,5,17.5,10.6,27.5,10.3s7.5-1.2,10.8-3.1,7.4-4.2,9.8-7.9,2.7-6.7,1.5-10.2-3.6-6-6.6-7.6-6.2-2-9.2-.5-4.1,2-5.6,3.6-1.8,2.6-2.2,4.2c-.8,3.4.2,7,2.1,9.9s5.9,5.1,9.9,5.3,8.5-1.2,12.2-3.3,4.3-2.5,6.2-4.1,3.4-3.4,4.9-5.3,2.7-4,3.9-6.1,1.1-2,1.6-3,.5-1.1.8-1.6.7-1.1.8-1.6.2-.3-.2-.5-.3-.2-.5-.3c-.3-.2-.7-.3-1-.5-.7-.2-1.4-.3-2.1-.3-1.5,0-2.9.6-4.2,1.3s-3.8,2-5.3,3.5-2.1,2.5-2.8,4c-1.3,3-1.3,6.3.5,9,4.2,6.2,13.1,6.8,19.4,4.2s4.1-2.1,6.1-3.3,3.5-2.5,5-4c3.2-3.3,5.5-7.2,7.6-11.2s2-3.9,2.9-5.9c0,0-.5.3-.5.3-.4.2-.8.5-1.2.7s-.8.5-1.2.7-.4.2-.5.3c-1.7,3.1-3.4,6.2-5,9.2s-.6,1-.6,1.1.7.2.8.2c.6.2,1.1.3,1.7.4,1.1.2,2.3.3,3.4.2,5.1-.2,9.8-2.6,14-5.5s3.5-2.8,4.8-4.6,1.3-2,1.8-3,.4-1,.6-1.5.2-.5.3-.8,0-.2,0-.3c0-.4,0-.2-.3-.4-.8-.6-2.3-.7-3.3-.7s-2.3.2-3.4.7-2.7,1.4-4,2.2-1.9,1.2-2.6,2c-3.6,4-1.9,10.8,2.8,13.1s1.5-.9,1.7-1c.5-.3,1.3-.6,1.7-1,2.5-2.7,5.3-5.2,8.3-7.4s1.6-1.2,2.5-1.7.7-.5,1.1-.7.4-.3.7-.4c1.1-.7-1.9,1.1-.8.5,1.7-.9,3.5-1.8,5.3-2.6,6.8-2.9,14.2-4.6,21.6-4.9s8.4,0,12.5.8.5-.3.5-.3c.4-.2.8-.5,1.2-.7s.8-.5,1.2-.7.4-.3.5-.3c-8.2-1.4-16.6-1-24.6,1s-15.9,5.9-22.9,10.6-7.3,5.5-10.4,8.9l3.5-2c-3.6-1.8-5.6-6.3-4.5-10.1s.8-1.9,1.4-2.7.6-.7,1-1,.4-.3.5-.4.3-.2.4-.3c.2-.2-3.7,2-2.2,1.3s4-1,5.9-.5,1.2.3,1.3.5-.4,1.3-.5,1.6c-.3.9-.8,1.8-1.3,2.7-1,1.8-2.4,3.4-3.9,4.7s-.7.6-1.1.9c-.6.4-2.6,1.6-.4.4s.3-.2-.3,0-1,.4-1.4.6c-1.9.7-4,1.1-6,1.1s-2.3,0-3.4-.2-1.1-.2-1.6-.4-.8-.1-.8-.2.5-1,.6-1.1c1.7-3.1,3.4-6.2,5-9.2l-3.5,2c-3.5,7.3-7.2,15.1-13.9,20s-.9.6-1.3.9c3.2-2.2,2.7-1.5,1.7-1s-.4.2-.6.3c-.8.4-1.6.7-2.4.9-1.6.5-3.3.8-5,.8-3.2.1-6.5-.5-9.2-2.3s-4.7-4.3-4.9-7.4,1-5.8,2.9-8,.9-1,1.4-1.4.5-.4.8-.6l.3-.2c1-.7.2-.2-2.5,1.4.2,0,.4-.2.6-.3,1.2-.5,2.6-.8,3.9-.6s1.2.3,1.7.5.7.3.9.5.2,0,.1.5-.3.7-.5,1c-1,2-1.9,3.9-3,5.8-2.1,3.8-4.6,7.4-7.8,10.3s-1.6,1.4-2.4,2-.4.3-.6.4c-.8.5-1.8.8,1.4-.8-.6.3-1.1.6-1.7.8-1.8.8-3.8,1.3-5.7,1.5-3.7.4-7.7-.3-10.6-2.7s-4-4.9-4.5-8,0-6.2,2.1-8.5.5-.5.8-.8.3-.3.5-.4h.2c1.2-.9.4-.4-2.5,1.3.7-.3,1.4-.6,2.2-.7,1.4-.3,2.9-.1,4.2.2,5.9,1.6,10.8,7.9,9.5,14.1s-2.6,6.3-5.1,8.5-1.4,1.1-2.1,1.6-1.6.7,1.8-1c-.2.1-.4.2-.7.3-.5.2-1,.5-1.5.7-1.6.6-3.3,1.1-5,1.4-8.7,1.4-17.3-2.4-24.7-6.6s-3.8-2.2-5.8-3.4-3.5,1.9-3.5,2c.9,4.6.5,9.5-1.6,13.7s-2.5,4-4.3,5.4-.5.4-.8.6c-1.3.9,3.7-2,2.1-1.2s-1,.4-1.5.6c-1,.3-1.9.5-2.9.6-3.8.3-7.9-1-10.5-3.9s-2.7-7.2-.3-10.4,1.4-1.6,2.3-2.2.3-.2.5-.3c.3-.2-3.5,1.9-2.1,1.3s.5-.2.7-.3c.5-.2.9-.3,1.4-.4,2.1-.4,4.1.2,5.7,1.6s1.6-.9,1.7-1,1.7-1.1,1.7-1h0Z"/>
    <path d="M1303.6,894.8c29-10.2,57.9-20.3,86.9-30.5,28.8-10.1,57.6-20.2,86.4-30.3,16.2-5.7,32.4-11.4,48.5-17,.6-.2,1.2-.7,1.7-1s1.3-1,1.7-1c-26.1-.7-52.2-1.3-78.3-.7-25.9.6-51.9,2.5-77.5,7s-28.7,5.9-42.7,10.2-1.2.7-1.7,1-1.5,1.1-1.7,1c30.6,10.3,61.2,20.5,91.8,30.8,30.4,10.2,60.9,20.4,91.3,30.6,17.1,5.7,34.2,11.5,51.3,17.2s1.5-.8,1.7-1,1.5-1.1,1.7-1c-30.6-10.3-61.2-20.5-91.8-30.8-30.4-10.2-60.9-20.4-91.3-30.6-17.1-5.7-34.2-11.5-51.3-17.2l-3.5,2c24.8-7.7,50.4-12.2,76.1-14.7,25.9-2.5,52-3,78.1-2.7,14.7.1,29.5.5,44.2.9l3.5-2c-29,10.2-57.9,20.3-86.9,30.5s-57.6,20.2-86.4,30.3c-16.2,5.7-32.4,11.4-48.5,17s-2.2,1.6-3.5,2h0Z"/>
    <path d="M1309.5,930.9c2.3,8.2,5.4,16.1,9.4,23.6s8.6,14.7,14,21.2,6.3,7.2,9.7,10.6,1.6-.9,1.7-1,1.7-1.1,1.7-1c-6.1-5.9-11.6-12.5-16.3-19.5-4.7-7-8.8-14.5-12-22.4s-3.4-8.9-4.7-13.5c0,0-1.6.9-1.7,1s-1.8.9-1.7,1h0Z"/>
    <path d="M1287.7,964.5c12.4-3.1,24.9-6.2,37.3-9.3,12.4-3.1,24.9-6.2,37.3-9.3,7-1.8,14.1-3.5,21.1-5.3s.4-.2.5-.3c.4-.2.8-.5,1.2-.7s.8-.5,1.2-.7.3-.3.5-.3c-12.4,3.1-24.9,6.2-37.3,9.3-12.4,3.1-24.9,6.2-37.3,9.3s-14.1,3.5-21.1,5.3-.4.2-.5.3c-.4.2-.8.5-1.2.7s-.8.5-1.2.7-.3.3-.5.3h0Z"/>
    <path d="M1365.9,926.5c3.1,7.9,6.3,15.9,9.4,23.8s6.3,15.9,9.4,23.8c1.8,4.5,3.5,9,5.3,13.5,0,0,1.6-.9,1.7-1,.4-.2.8-.5,1.2-.7s.5-.3.5-.3c-.9-13.5,1.4-27.1,6.6-39.5s3.2-6.9,5.1-10.2l-3.5,2c6.1,9.5,12.2,18.9,18.2,28.4s3.5,5.4,5.2,8.1,3.4-2,3.5-2c-6.1-9.5-12.2-18.9-18.2-28.4-1.7-2.7-3.5-5.4-5.2-8.1,0,0-3.3,1.7-3.5,2-6.8,11.7-10.8,24.9-11.7,38.4s-.2,7.6,0,11.4l3.5-2c-3.1-7.9-6.3-15.9-9.4-23.8-3.1-7.9-6.3-15.9-9.4-23.8-1.8-4.5-3.5-9-5.3-13.5,0,.2-3.5,1.8-3.5,2h0Z"/>
    <path d="M1443.5,964.6c-3.2-3.4-6.3-6.8-8.8-10.8s-4.2-8-4-12.4,1.8-7.7,4.4-10.5,1.3-1.3,2.1-1.8.2-.2.3-.2c1-.7-2.9,1.6-2.4,1.4s.4-.2.6-.3c.4-.2.9-.3,1.3-.5,1.7-.5,3.6-.4,5.3.1,3.1,1,5.4,3.4,7.1,6.2s3.2,6.2,4.9,9.3,3.7,5.9,6.7,7.6,6.5,2,9.7,1.3,3.3-1,4.8-1.9,4.2-2.2,5.8-3.9c2.5-2.6,3.5-6.1,2.7-9.6s-3.1-6.8-6.2-8.7-6.9-2.1-10.2-.3-4.6,2.4-6.4,4.3-2.3,3-3,4.8c-1.4,3.8-1.2,7.9.4,11.6,3.2,7.4,10.8,12.4,18.5,14s14.5.4,21-2.6c2.2-1,4.4-2.3,6.5-3.5s3.1-2,4.5-3.1c2.8-2.2,5.2-4.9,7-8s1.7-3.1,2.3-4.7c0,0-.5.3-.5.3-.4.2-.8.5-1.2.7s-.8.5-1.2.7-.5.2-.5.3c-1.2,3.3-3.1,6.3-5.3,8.9s-2.4,2.5-3.7,3.6-1.4,1.1-2.1,1.6-.7.5-1.1.8-.4.2-.5.3c-1,.7,2.6-1.4,1.6-.9-6.1,3.3-13.3,4.9-20.2,4.1s-14.9-4.5-19.3-10.7-3.8-7.2-3.5-11.2,2-7.3,4.7-9.7.7-.6,1-.8.2-.2.3-.2c.5-.3-3.6,2-2.5,1.4s.5-.2.8-.3c.8-.3,1.7-.6,2.6-.7,1.7-.2,3.5,0,5,.7,3.2,1.4,5.8,4.2,7.1,7.5s1.1,6.9-.8,9.9-2,2.5-3.4,3.4,3.1-1.7,2.1-1.2-.4.2-.6.3c-.4.2-.8.3-1.2.5-.8.3-1.6.5-2.4.6-3.2.6-6.6.2-9.4-1.4s-4.9-4.5-6.5-7.4-3-6.1-4.7-9-3.7-5.1-6.6-6.3-3.4-.9-5.1-.6-4.4,1.8-6.5,3c-3.3,1.9-5.7,4.9-6.9,8.5-3,8.4,2.3,16.8,7.5,23s2.9,3.3,4.4,4.9,1.6-.9,1.7-1,1.7-1.1,1.7-1h0Z"/>
    <path d="M1516,938.3c4-5,5.4-11.9,3.9-18.2s-1.1-3.5-2-5.1-3,1.7-3.2,1.9c-2.3,1.4-4.1,3.3-5.2,5.7s-1.6,5-1.6,7.7c.1,5.4,2.5,11,6.8,14.3s12.8,5.2,19.5,4,6.7-1.7,9.8-3.3,7.5-4.2,10.9-7c6-4.9,10.8-11,15.4-17.1s1.1-1.5,1.7-2.3c0,0-.5.3-.5.3-.4.2-.8.5-1.2.7s-.8.5-1.2.7-.4.2-.5.3c-4.4,5.9-8.8,11.8-14.2,16.8s-2.7,2.4-4.1,3.5-1.5,1.1-2.3,1.7-.8.5-1.1.7-.4.2-.5.3c-.4.3,2.5-1.4,1.7-1s-.2.1-.3.2c-3,1.6-6.3,2.7-9.7,3.4-6.4,1.2-13.3.4-18.8-3.3-4.4-3-7.1-8-7.7-13.3s.8-10.4,4.7-13.7,1-.8,1.6-1.1l-3.2,1.9c3.2,5.6,3.4,12.7.9,18.6s-1.7,3.3-2.8,4.7c0,0,.5-.3.5-.3.4-.2.8-.5,1.2-.7s.8-.5,1.2-.7.4-.2.5-.3h0Z"/>
    <path d="M1294.3,1008.9c-18.3,12.2-35.6,26.1-51.5,41.3s-15.7,15.6-23,24-7.2,8.1-10.1,12.5-5.2,9.1-5.1,14.3c0,9.4,8.1,16.5,16.6,19s11.6,1.6,17.3,1,12.1-1.8,18.1-2.7c24.6-4,49.2-8,73.7-11.9,24.7-4,49.4-8,74.2-12,3-.5,6-1,9.1-1.5s1.3-.7,1.7-1,1.5-1.1,1.7-1c-17.4-6.4-34.4-14-50.8-22.8s-32.1-18.7-47-29.8c-8.4-6.2-16.6-12.7-24.4-19.6l-3.5,2c11,8.4,20,19,27.4,30.7,7.5,11.9,13.2,24.8,18.1,38,5,13.4,9,27.2,13.1,40.9,4.3,14.3,8.8,28.5,14.5,42.2,5.6,13.5,12.6,26.5,21.6,38,1.1,1.4,2.3,2.9,3.5,4.3s3.3-1.7,3.5-2c2.8-3.6,5.6-7.2,8.4-10.8-.3.4-1.3.7-1.7,1s-1.4.6-1.7,1c-2.8,3.6-5.6,7.2-8.4,10.8l3.5-2c-9.6-11.1-17-24-23-37.4-6.1-13.6-10.7-27.8-15.1-42-4.2-13.8-8.1-27.7-13-41.3s-10.2-26.3-17.2-38.5c-6.9-11.9-15.4-22.9-25.9-31.8-1.3-1.1-2.7-2.2-4.1-3.3s-1.6.9-1.7,1-1.6,1.1-1.7,1c14,12.2,28.9,23.3,44.5,33.4,15.6,10.1,31.9,19,48.8,26.8s19.1,8.3,28.9,11.9l3.5-2c-24.7,4-49.3,8-74,12-24.7,4-49.3,8-74,12s-12.1,2-18.1,2.9-11.8,1.9-17.8,1.6c-9.4-.4-19.6-4.5-23.7-13.5-4.5-9.9,2.1-19.8,8.3-27.2,7.1-8.5,14.6-16.6,22.4-24.4,15.6-15.6,32.5-29.8,50.5-42.4,2.3-1.6,4.6-3.2,6.9-4.7s-.3.1-.2,0c-.4.2-.7.4-1,.6-.7.4-1.4.8-2.1,1.2h0Z"/>
    <path d="M1513.1,1039.5c-3.1-5.4-6.2-10.9-8.2-16.8s-3-11.8-1.7-17.6,3.7-9.3,7.4-12.6,1.9-1.5,2.9-2.2l-2.3,1.3c.1,0,.2-.1.3-.2.1,0,.3-.1.4-.2.3-.1.5-.2.8-.3.6-.2,1.1-.4,1.7-.6,2.3-.7,4.6-.8,6.9-.3,4,.8,7.4,3.4,9.5,6.9s2.9,7.7,2.8,11.8-1.2,8.5-3.3,12.1-6.6,8.5-10.8,11.8-8.9,6.4-13.5,9.5-9.1,6.5-13.1,10.3c-7.8,7.5-14.2,17-15.4,28s0,10.3,1.8,15.1,4.9,8.7,8.9,11.6c7.8,5.7,18,6.1,27.2,4.6s20.5-5.8,30.2-10.1,25.4-11.1,38.1-16.7c3-1.3,6.1-2.7,9.1-4s2.3-1.5,3.5-2c-12.8,5.6-25.7,11.2-38.5,16.9s-21.1,9.7-32.3,12.5-19.8,3.5-28.9-.4c-4.4-1.9-8.3-5.1-11-9.1s-4.4-9.4-4.7-14.5.5-10.5,2.4-15.4,5.2-10,8.9-14.2,8.1-8,12.6-11.4,9.2-6.3,13.8-9.5,8.8-6.7,12.2-11,5.1-7.7,5.9-12.4c1.4-7.8-.7-17.6-8.3-21.5s-9-1.9-13.2.1-3.4,1.8-5,2.8-2,1.3-2.9,2.1c-1.9,1.6-3.5,3.6-4.8,5.7s-2.3,4.5-2.8,7-.6,5.8-.3,8.7c.7,6.2,3,12.2,5.8,17.7,1.4,2.8,2.9,5.4,4.5,8.1s3.5-2,3.5-2h0Z"/>
    <path d="M1549.8,1161.3v-2.4s-.6.3-.5.3c-.4.2-.8.5-1.2.7s-.8.5-1.2.7l-.3.2c0,0-.2,0-.2.1v2.4s.6-.3.5-.3c.4-.2.8-.5,1.2-.7s.8-.5,1.2-.7l.3-.2c0,0,.2,0,.2-.1h0Z"/>
    <path d="M1555,1155.9c-4.8-3.7-10.9-6.2-17-5.5s-5.5,1.6-8.1,3.1-4.9,3-6.6,5.4-2.3,4.4-2.3,6.9.7,4.7,2,6.6,3.1,3.5,5.4,4.2,4.7.3,6.9-.8,5.5-2.9,7.1-5.6,1.6-4.4.7-6.6c-1.4-3.5-5.8-4.7-9.2-3.8s-2.4,1.1-3.5,1.7-2.3,1.2-3.2,2.2-.5.6-.7,1-.2.4-.3.6,0,.2-.1.4c0,.2-.1.2.1.2s.6,0,.9,0,.6,0,.9-.1c.7,0,1.3-.2,1.9-.4,1.1-.3,2.2-.8,3.3-1.3,1.7-.9,3.5-1.9,5.1-3s3.8-3.2,5.1-5.2,2.3-4.4,2.7-6.9.3-2.5.1-3.8,0-.8-.1-.9-.7.2-.8.2c-.6.2-1.2.4-1.8.7-1.7.8-3.4,1.8-5,2.9s-1.9,1.5-2.7,2.5c-1.6,1.9-2.7,4.2-3.1,6.6s-.2,2.4,0,3.6c0,0,1.6-.9,1.7-1,.4-.2.8-.5,1.2-.7s.5-.3.5-.3c-.6-4.5,1.4-9.1,4.8-11.9s.9-.7,1.3-1l-2.6,1.5h.2c.2-.2.4-.3.6-.3s.5-.2.8-.3,1.4-.5,1.5-.3,0,.6,0,.8c0,.3,0,.6,0,1,0,2.2-.4,4.4-1.2,6.5s-2.1,4-3.6,5.7-1.6,1.6-2.4,2.2-2.6,1.7-.1.2.3-.2-.4,0-2.1.7-3.1.9-1,.2-1.5.2-.8.1-.9,0,.2-.6.2-.7c.3-.7.8-1.4,1.3-1.9s.3-.2.4-.3.2-.1.3-.2c.9-.6,4-1.7-2.8,1.6.4-.2.8-.4,1.2-.5,3-.9,6.9-.2,8.8,2.5,2.6,3.5.6,8.3-2.5,10.7s-.5.4-.8.5c-.5.3,3.6-2,2.5-1.4s-.3.1-.4.2c-.5.2-1.1.4-1.7.5-1.1.2-2.1.3-3.2,0-2-.4-3.9-1.5-5.2-3-2.9-3.2-3.9-7.9-2.5-11.9s2.2-4.1,3.9-5.6.8-.7,1.3-1,.6-.4.8-.6c.5-.3-3.4,1.9-2.2,1.3s.4-.2.6-.3c1.1-.5,2.2-.9,3.3-1.1,5.3-1.2,10.8.3,15.4,2.9s2.3,1.4,3.3,2.3,1.6-.9,1.7-1,1.6-1.1,1.7-1h0Z"/>
    <path d="M1488.6,576.4c-5,13.1-10,26.1-15,39.2-5,13.1-10,26.1-15,39.2-2.8,7.4-5.6,14.8-8.5,22.2,0,0,.5-.3.5-.3.4-.2.8-.5,1.2-.7s.8-.5,1.2-.7.5-.2.5-.3c5-13.1,10-26.1,15-39.2,5-13.1,10-26.1,15-39.2,2.8-7.4,5.6-14.8,8.5-22.2,0,0-.5.3-.5.3-.4.2-.8.5-1.2.7s-.8.5-1.2.7-.5.2-.5.3h0Z"/>
    <path d="M1527,574c-3.4,14.2-7.5,28.3-12.3,42.1-4.8,13.8-10.2,27.3-16.3,40.5s-7.1,14.7-10.9,21.9l3.5-2c-5-12.1-5.1-26.1-.4-38.3s5.7-11.6,10.1-16.3,4.5-4.4,7-6.2,2.6-1.8,3.9-2.6h.2c.7-.5.2-.2-1.4.7.1,0,.3-.1.4-.2.3-.2.7-.4,1-.5.7-.4,1.4-.7,2.2-1.1,6.4-2.9,13.3-4.5,20.4-4.7s.5-.3.5-.3c.4-.2.8-.5,1.2-.7s.8-.5,1.2-.7.4-.3.5-.3c-6.5.1-13,1.5-19,4s-6.9,3.4-10.2,5.4-5.4,3.6-7.8,5.7c-5,4.4-9.1,9.7-11.9,15.7s-4.7,12.9-5.1,19.8.5,13.7,2.8,20.2.6,1.6.9,2.4c0,0,1.6-.9,1.7-1,.4-.2.8-.5,1.2-.7s.4-.2.5-.3c6.9-12.9,13.1-26.2,18.7-39.7s10.4-27.2,14.5-41.2c2.3-7.8,4.5-15.7,6.3-23.7,0,0-.6.3-.5.3-.4.2-.8.5-1.2.7s-.8.5-1.2.7-.5.2-.5.3h0Z"/>
    <path d="M1530.7,616.7c-3.3,8-6.6,16-10,23.9s-1.9,4.5-2.8,6.8c0,0,.5-.3.5-.3.4-.2.8-.5,1.2-.7s.8-.5,1.2-.7.4-.2.5-.3c7.4-13.2,14.7-26.5,22.1-39.7s4.2-7.5,6.2-11.2l-3.5,2c-4.6,14.5-9.3,29-13.9,43.5s-2.6,8.2-3.9,12.4c0,0,.6-.3.5-.3.4-.2.8-.5,1.2-.7s.8-.5,1.2-.7.4-.2.5-.3c4.3-5.4,8.6-10.7,12.9-16.1,0,0-.5.3-.5.3-.4.2-.8.5-1.2.7s-.8.5-1.2.7-.4.2-.5.3c-4.3,5.4-8.6,10.7-12.9,16.1l3.5-2c4.6-14.5,9.3-29,13.9-43.5s2.6-8.2,3.9-12.4c0,0-.6.3-.5.3-.4.2-.8.5-1.2.7s-.8.5-1.2.7-.4.2-.5.3c-7.4,13.2-14.7,26.5-22.1,39.7-2.1,3.7-4.2,7.5-6.2,11.2l3.5-2c3.3-8,6.6-16,10-23.9l2.8-6.8s-.5.3-.5.3c-.4.2-.8.5-1.2.7s-.8.5-1.2.7-.5.2-.5.3h0Z"/>
    <path d="M1573.5,567.3c-3.6,8.9-7.2,17.9-10.7,26.8-3.6,8.9-7.2,17.9-10.7,26.8l-5.4,13.5-1.3,3.4s-.2.3-.1.3.4-.1.3-.1c.2,0,.3-.1.5-.2.5-.2.9-.3,1.4-.5,1.6-.6,3.2-1.4,4.7-2.1,6.9-3.6,13.3-7.9,18.6-13.7s8.5-11.5,10.8-18.2.6-1.7.8-2.6c0,0-.6.3-.5.3-.4.2-.8.5-1.2.7s-.8.5-1.2.7-.5.2-.5.3c-1.9,6.6-5.1,12.7-9.4,18.1s-4.5,5.2-7.1,7.4-2.7,2.2-4.1,3.2-1.4,1-2.2,1.5-.7.4-1.1.7c-.6.4,2-1.1,1.4-.8s-.4.2-.6.3c-1.6.8-3.2,1.6-4.8,2.2s-.7.3-1.1.4-1.2.6-1.3.5,1.1-2.9,1.3-3.1c1.7-4.3,3.4-8.6,5.2-12.9,3.4-8.6,6.9-17.2,10.3-25.8s6.9-17.2,10.3-25.8l1.3-3.2s-.5.3-.5.3c-.4.2-.8.5-1.2.7s-.8.5-1.2.7-.5.2-.5.3h0Z"/>
    <path d="M1595.9,576.2c-5,14.6-10.1,29.2-15.1,43.9s-2.8,8.2-4.2,12.3c0,0,.6-.3.5-.3.4-.2.8-.5,1.2-.7s.8-.5,1.2-.7.4-.2.5-.3c7.5-8.9,14.9-17.9,22.4-26.8s3.7-4.5,5.6-6.7.3-.4.3-.4c0,0-.3,0-.3,0-.2,0-.4.1-.6.2-.4.1-.9.3-1.3.5-.9.4-1.8.9-2.7,1.4-2,1.2-4.1,2.3-5.8,3.9s-2.4,2.5-3.4,3.9c-3.9,5.8-5.3,13.5-2.8,20.1s9.1,11.1,16.1,12,7.1.2,10.5-1,4.1-1.8,6-3,3.4-2.1,4.8-3.5,1.2-1.2,1.7-1.9c0,0-.5.3-.5.3-.4.2-.8.5-1.2.7s-.8.5-1.2.7-.4.2-.5.3c-1,1.3-2.2,2.5-3.5,3.5s-.7.5-1.1.7c-1.2.8,2.8-1.6,2-1.2s-.4.2-.6.3c-.8.4-1.5.7-2.3,1-3.2,1.1-6.6,1.4-9.9,1.1-6.6-.7-13-4.2-16.1-10.2s-2.5-13.2.4-19.1,3.5-5.6,6.2-7.7.7-.5,1-.7.3-.2.5-.3c.5-.3-3.2,1.8-2.2,1.3s.2-.1.3-.2c.8-.4,1.6-.7,2.4-1s.5-.2.6-.2-.6.7-.6.8l-1.4,1.6c-.9,1.1-1.8,2.1-2.6,3.2-7,8.4-14.1,16.9-21.1,25.3s-1.7,2-2.6,3.1l3.5-2c5-14.6,10.1-29.2,15.1-43.9,1.4-4.1,2.8-8.2,4.2-12.3,0,0-.6.3-.5.3-.4.2-.8.5-1.2.7s-.8.5-1.2.7-.5.2-.5.3h0Z"/>
    <path d="M1431.1,748.5c-12.7,7.7-25.4,15.5-38.1,23.2s-7.1,4.3-10.6,6.5h0c11.5-1.1,23.1-2.3,34.6-3.5,3.3-.3,6.5-.7,9.8-1l3.5-2c-2.1.6-3.9,1.9-5.7,3s-2.3,1.6-3.2,2.7c-1.8,2.2-2.9,5.1-2.9,7.9s1.2,5.7,3.3,7.6,4.8,3,7.6,3.2,3.2,0,4.6-.6,1.5-.6,2.2-1c1.3-.7,2.6-1.4,3.9-2.3-1.1.8-2.4,1.2-3.5,2s-.3.2-.5.3l2.7-1.5c-.1,0-.2.1-.4.2-.3.1-.6.2-.9.3-.6.2-1.2.4-1.8.5-1.2.2-2.5.2-3.7,0-2.4-.3-4.8-1.3-6.6-2.9-4-3.4-4.6-9-2.3-13.6s1.4-2.3,2.4-3.3,1.1-.9,1.6-1.3c1.1-.8-3.5,1.9-2.3,1.3s.4-.2.6-.3c.3-.1.7-.3,1-.4.6-.2,1.2-.7,1.7-1s.8-.5,1.2-.7.4-.3.5-.3c-13.2,1.4-26.3,2.7-39.5,4.1s-1.6.2-2.4.2-2.3.4-2.5.2,3.9-2.4,4.3-2.6l8.3-5.1c5.7-3.5,11.3-6.9,17-10.4s12.6-7.7,18.9-11.5-.3.2-.2,0c-.3.2-.7.4-1,.6-.7.4-1.4.8-2.1,1.2h0Z"/>
    <path d="M1379.4,719.2c-3.2.6-6.5,1.2-9.7,1.7s-.4.2-.5.3c-.4.2-.8.5-1.2.7s-.8.5-1.2.7-.5.3-.5.3c6.4,4.2,13.2,10.5,12.8,18.9s-1.5,6.9-4.1,9.2-.7.5-1,.8c-.6.4,3-1.7,2.6-1.5s-.2.1-.4.2c-.2.1-.4.2-.7.3-.8.3-1.6.4-2.4.4-1.7,0-3.3-.5-4.7-1.4-3-1.8-5.3-5.5-3.8-9,0,0-.5.3-.5.3-.4.2-.8.5-1.2.7s-.8.5-1.2.7-.5.2-.5.3c-1.4,3.3.5,6.7,3.2,8.6s3.2,1.7,4.9,1.8,3.7-.8,5.5-1.8,3.9-2.2,5.3-4.1,1.8-3.1,2.2-4.9c.9-3.9,0-7.8-1.9-11.2s-6.5-7.6-10.6-10.3l-3.5,2c3.2-.6,6.5-1.2,9.7-1.7s.4-.2.5-.3c.4-.2.8-.5,1.2-.7s.8-.5,1.2-.7.4-.3.5-.3h0Z"/>
    <path d="M1400.8,725.2c-1.7-1-3.7-1.1-5.5-.4s-3.1,1.6-4.6,2.5-1.6,1.1-2.3,1.8c-2.9,3-3.9,7.5-1.5,11s7,4.7,11,4.3,4.9-1.5,7.2-2.9,2.3-1.3,3.3-2.2,1.7-1.7,2.4-2.7c3.2-4.7,3.8-10.8,2.8-16.3,0,0-1.6.9-1.7,1s-1.8.9-1.7,1c.9,4.5.6,9.3-1.3,13.6s-2.2,3.9-3.9,5.4-.7.6-1.2.9-.2.1-.3.2c-1,.7,3-1.7,2.4-1.4s-.5.3-.8.4c-.9.4-1.8.7-2.8.8-3.6.7-7.7,0-10.5-2.6s-2.4-2.9-2.7-4.7.2-3.7,1-5.3,1.1-1.7,1.8-2.5.7-.7,1.1-1,.2-.1.3-.2c1-.7,1.9-.7-2.3,1.3.2-.1.5-.2.7-.3,1.9-.7,3.9-.7,5.7.4s.6-.3.5-.3c.4-.2.8-.5,1.2-.7s.8-.5,1.2-.7.5-.3.5-.3h0Z"/>
    <path d="M1424,722.5c-1.7,5.4-3.3,10.8-5,16.1,0,0,.6-.3.5-.3.4-.2.8-.5,1.2-.7s.8-.5,1.2-.7.5-.2.5-.3c3.3-9,6.6-18,9.9-27l-3.5,2c3,6.2,3.2,13.6.5,20,0,0,.5-.3.5-.3.4-.2.8-.5,1.2-.7s.8-.5,1.2-.7.4-.2.5-.3c3.1-3.9,6.7-7.3,10.8-10.3s2.1-1.5,3.2-2.1.5-.3.7-.5c.6-.4-2.2,1.2-1.3.7s.2-.1.4-.2c.6-.3,1.1-.6,1.7-.9,1.1-.6,2.3-1.1,3.5-1.6s.6-.2.9-.3.5-.3.8-.3h.2c0,0,0,.2,0,.3,0,.2,0,.4,0,.6,0,.4,0,.8,0,1.2-.2,3-.3,6-.5,8.9s-.2,3.1-.3,4.6,0,.3,0,.5h0c0,.4,0,.4.1.3.2,0,.5-.1.6-.2.5-.2,1-.4,1.5-.6,1.4-.6,2.6-1.4,3.9-2.1s2.1-1.2,3.1-2c1.6-1.2,3-2.7,4.2-4.4,2.4-3.3,3.8-7.4,3.7-11.6s-.1-2-.3-3-.1-.8-.2-.8-.5.2-.5.2c-.5.2-1,.5-1.5.8-2.1,1.2-4.3,2.3-5.9,4.2-4.6,5.4-4.8,14.8,1.3,19.3s6.7,2.8,10.3,2.2,3.6-1,5.3-1.9,4.4-2.3,6.1-4.2,1.1-1.4,1.5-2.2c0,0-.5.3-.5.3-.4.2-.8.5-1.2.7s-.8.5-1.2.7-.4.2-.5.3c-.8,1.5-2,2.8-3.4,3.8s-.4.3-.6.4c-.9.6,3.7-2,2.2-1.3s-.9.4-1.3.6c-.8.3-1.7.5-2.5.7-3.4.6-7,.1-10-1.7-6.1-3.9-6.7-12.5-3-18.3.9-1.4,2.1-2.7,3.5-3.6h.1c.5-.4.2-.2-1.2.6l-1.3.7c0,0,.2,0,.2-.1,0,0,.6-.3.6-.3.2,0,.3,1.3.3,1.5.1.9.2,1.9.2,2.9,0,3.9-1.4,7.8-3.7,11s-2.5,3-4,4.2-.8.6-1.2.9-.2.1-.3.2c-.9.6,3.2-1.8,2.2-1.3s-.6.3-.8.4c-.4.2-.9.4-1.3.5s-.4.1-.6.2-.2,0-.3,0c-.2,0-.2,0-.2,0,0-.1,0-.2,0-.4.2-2.9.3-5.7.5-8.6s.2-2.9.3-4.3,0-1.3.1-2,.1-.7,0-1c0-.4,0-.2-.2-.2s-.4.2-.6.2c-4.9,1.9-9.6,4.5-14,7.4s-7.5,5.6-10.7,9.1-1.5,1.7-2.3,2.6l3.5-2c2.6-6.4,2.5-13.8-.5-20s-1.6.9-1.7,1c-.4.2-.8.5-1.2.7s-.5.2-.5.3c-3.3,9-6.6,18-9.9,27l3.5-2c1.7-5.4,3.3-10.8,5-16.1,0,0-.6.3-.5.3-.4.2-.8.5-1.2.7s-.8.5-1.2.7-.5.2-.5.3h0Z"/>
    <path d="M1653.4,681.7c-.8,7.2-1.6,14.4-2.4,21.6,0,0,.6-.3.5-.3.4-.2.8-.5,1.2-.7s.8-.5,1.2-.7.5-.2.5-.3c.8-7.2,1.6-14.4,2.4-21.6,0,0-.6.3-.5.3-.4.2-.8.5-1.2.7s-.8.5-1.2.7-.5.2-.5.3h0Z"/>
    <path d="M1673.7,706.3c-1.3.4-2.5,1.2-3.7,1.8s-1.9,1-2.6,1.9c-1.1,1.3-1.7,3-1.9,4.7s.2,3.6,1,5.2,2.7,3.6,4.5,4.8,4.5,2.6,6.8,3.7l3.5-2c-11.2,3.6-22.3,7.3-33.5,10.9-3.2,1-6.3,2.1-9.5,3.1s-1.2.7-1.7,1-.8.5-1.2.7-.3.3-.5.3c11.2-3.6,22.3-7.3,33.5-10.9,3.2-1,6.3-2.1,9.5-3.1s1.2-.7,1.7-1,.8-.5,1.2-.7.5-.3.5-.3c-3.7-1.7-7.7-3.6-10.3-6.9s-2.8-6.3-1.5-9.5.8-1.5,1.3-2.1.6-.6,1-.8c1.2-.8-4.1,2.2-2.8,1.6s.2-.1.4-.2c.2,0,.5-.2.7-.2.6-.2,1.2-.7,1.7-1s.8-.5,1.2-.7.3-.3.5-.3h0Z"/>
    <path d="M1215.7,887.7c3.7,9.3,7.4,18.5,11.1,27.8,0,0,1.6-.9,1.7-1s1.8-.9,1.7-1c-4.2-11.1-8.4-22.1-12.6-33.2-1.2-3.1-2.4-6.3-3.6-9.4,0,0-1.6.9-1.7,1s-1.8.9-1.7,1c2.5,12.5,5,24.9,7.5,37.4s1.4,7,2.1,10.5c0,0,1.6-.9,1.7-1,.4-.2.8-.5,1.2-.7s.5-.2.5-.3c1.1-13.3-.6-26.8-5.1-39.4-1.2-3.5-2.7-7-4.4-10.4,0,0-3.5,1.9-3.5,2,5.9,12,9.2,25.2,9.7,38.5s0,7.5-.3,11.2l3.5-2c-2.5-12.5-5-24.9-7.5-37.4s-1.4-7-2.1-10.5l-3.5,2c4.2,11.1,8.4,22.1,12.6,33.2s2.4,6.3,3.6,9.4l3.5-2c-3.7-9.3-7.4-18.5-11.1-27.8,0,.1-3.5,1.8-3.5,2h0Z"/>
    <path d="M1283.4,996c-14.7,14.3-28.8,29.2-42.3,44.7-13.4,15.5-26.2,31.6-38.2,48.2s-13.4,18.9-19.7,28.7c.2-.4,1.3-.8,1.7-1s1.3-.6,1.7-1c14.1-13,27.8-26.5,40.9-40.4s25.8-28.4,37.9-43.3c6.8-8.4,13.5-17,20-25.7-.3.4-1.3.7-1.7,1s-1.3.6-1.7,1c-22.9,22.8-44.1,47.2-63.3,73.2-5.5,7.4-10.8,14.9-15.9,22.5.3-.4,1.3-.7,1.7-1s1.3-.6,1.7-1c16.3-19.4,32.5-38.7,48.8-58.1s9.2-11,13.9-16.5l-3.5,2c-10.7,15.3-22.6,29.7-35.7,43-13,13.3-27.1,25.4-42.1,36.4-8.7,6.4-17.8,12.3-27.1,17.8s-.8.6-1.3.8c18.3-8.2,36.9-15.7,55.8-22.5s37.9-12.9,57.2-18.6c19.2-5.6,38.5-10.8,57.9-15.6,19.5-4.8,39.1-9.3,58.8-13.6,19.6-4.3,39.3-8.4,59-12.5s4.9-1,7.3-1.5l3.5-2c-29.3,8.4-58.2,18-86.7,28.8-28.3,10.8-56.2,22.7-83.4,35.8-15.2,7.3-30.3,15-45.2,23.1-1.1.6-2.2,1.6-3.4,2,19.8-6.8,39.6-13.6,59.5-20.4,19.8-6.8,39.6-13.6,59.5-20.4,11.2-3.8,22.3-7.7,33.5-11.5.6-.2,1.2-.7,1.7-1s1.2-1,1.7-1c-34.3,1.6-68.4,6.7-101.7,15.2-32.9,8.4-65,20.1-95.7,34.9-1.8.9-3.6,1.7-5.3,2.6s-1.1.7-1.2.4.5-.8.6-.9c.4-.7.9-1.3,1.4-2,1.5-2.1,3.3-4.1,5.1-5.9s3.8-3.5,5.9-5,2.3-1.6,3.5-2.3-1.7.9-.2,0,.4-.2.6-.3c.7-.4,1.4-.7,2.1-1.1,10.2-5,21.2-7.8,32.2-10.5,11.2-2.8,22.4-5.3,33.2-9.3s10.1-4.4,15-7.1,9-5.6,12.9-9.3c21.7-20.7,18-53.2,12.1-79.8s-1.6-6.9-2.5-10.3l-3.5,2c10,28.5,18.5,57.4,25.7,86.7,7.2,29.3,12.9,59,17.3,88.8,2.4,16.7,4.4,33.6,5.9,50.4l3.5-2c-4.7-26.2-9.5-52.3-14.2-78.5-4.7-26.2-9.5-52.3-14.2-78.5s-5.3-29.5-8-44.2l-3.5,2c7.9,21.4,14.9,43.1,21,65,6,21.9,11.2,44,15.3,66.3,2.4,12.6,4.4,25.3,6.1,38.1l3.5-2c-6.3-20.5-12.7-41-19-61.5-6.3-20.4-12.6-40.8-18.9-61.2-3.6-11.6-7.2-23.1-10.7-34.7l-3.5,2c10.6,32.2,19.2,65.1,25.7,98.4,6.5,33.3,11,67,13.3,100.8,1.3,18.9,1.9,37.9,1.9,56.9,0-.1,1.6-.9,1.7-1s1.7-.8,1.7-1c0-33.9-2-67.8-6.2-101.5-4.2-33.7-10.5-67.1-18.8-99.9-4.7-18.4-10-36.6-15.9-54.7,0,.2-3.6,1.7-3.5,2,6.3,20.5,12.7,41,19,61.5,6.3,20.4,12.6,40.8,18.9,61.2s7.2,23.1,10.7,34.7c0-.3,3.5-1.6,3.5-2-3.1-22.6-7.1-45-12.1-67.3-5-22.1-10.9-44.1-17.8-65.7-3.9-12.2-8.1-24.4-12.5-36.4,0,.3-3.5,1.6-3.5,2,4.7,26.2,9.5,52.3,14.2,78.5,4.7,26.2,9.5,52.3,14.2,78.5,2.7,14.7,5.3,29.5,8,44.2,0-.5,3.5-1.5,3.5-2-2.7-30.1-6.9-60-12.4-89.6-5.6-29.7-12.6-59-21-88-4.7-16.2-9.9-32.4-15.5-48.3,0,.2-3.5,1.7-3.5,2,4.2,16.9,8.1,34.5,6.9,52s-2.4,16.5-6.1,23.9c-3.3,6.6-8,12.4-13.8,17.1-1.3,1.1-2.6,2-4,3s-1.3.9-2,1.3-.3.2-.5.3c-.7.5.7-.4.7-.4-.5.2-.9.5-1.3.7-3,1.6-6.1,3-9.3,4.2-6.3,2.5-12.8,4.3-19.4,6-13.2,3.4-26.7,6.1-39.5,11-6,2.3-11.8,5.3-17.2,8.7s-10,7.4-13.8,12.3c-1,1.3-1.9,2.6-2.7,4h0c24.8-12.5,50.6-22.9,77.1-31.1s53.4-14.2,80.7-18.1,30.7-3.6,46.2-4.3l3.5-2c-19.8,6.8-39.6,13.6-59.5,20.4-19.8,6.8-39.6,13.6-59.5,20.4-11.2,3.8-22.3,7.7-33.5,11.5l-3.4,2c26.8-14.5,54.2-27.8,82.1-39.9,27.6-12,55.7-22.8,84.2-32.5s32.5-10.5,48.9-15.2c1.2-.4,2.2-1.7,3.5-2-19.7,4.1-39.4,8.2-59,12.4s-39.3,8.7-58.8,13.4c-19.4,4.7-38.8,9.8-58,15.3-19.3,5.5-38.4,11.5-57.3,18.2s-37.6,13.9-56,21.9c-2.3,1-4.5,2-6.8,3l-1.3.8c16.3-9.5,31.9-20.3,46.5-32.4,14.8-12.3,28.6-25.8,41-40.5,7.1-8.3,13.7-16.9,20-25.9-.3.4-1.3.7-1.7,1s-1.3.6-1.7,1c-16.3,19.4-32.5,38.7-48.8,58.1-4.6,5.5-9.2,11-13.9,16.5l3.5-2c18.1-26.8,38.2-52.1,60.1-75.9s12.6-13.4,19.2-19.9l-3.5,2c-11.5,15.4-23.5,30.3-36.1,44.8-12.6,14.5-25.6,28.5-39.2,42.1-7.7,7.7-15.5,15.2-23.5,22.5l3.5-2c11.2-17.2,23.1-33.9,35.8-50,12.6-16.1,26-31.7,40-46.7,7.9-8.5,16-16.7,24.4-24.8-.9.9-2.5,1.1-3.5,2h0Z"/>
    <path d="M1481.3,1034.3c.3-7.3,1-14.7,3.1-21.7,2-6.6,5.2-13,10.4-17.6s2.5-2,3.8-2.8-2.7,1.5-1.2.7.8-.4,1.2-.6c.7-.3,1.4-.6,2.1-.9,2.9-1.1,5.9-1.7,9-1.6,5.8,0,11.4,2.6,15,7.2,3.5,4.5,4.9,10.4,4.7,16.1s-2.2,12-5.6,17.2c-7.9,12-20.9,19.2-32.1,27.8-10.4,8-20.4,18.4-21.5,32.2-.9,11.5,4.1,22.9,11.8,31.2,4,4.3,8.8,7.8,14.1,10.2s11.7,3.6,17.9,3.6,12.7-1.5,18.7-3.9,6.4-3,9.4-4.7,5.9-3.6,8.7-5.7c5.2-4,9.8-8.9,13.5-14.3,4-5.9,7-12.5,9-19.3,4.3-14.3,4.4-29.6,1.9-44.3s-1.4-7.1-2.3-10.6c0,0-1.6.9-1.7,1s-1.8.9-1.7,1c2.9,11.5,3.6,23.6,1.8,35.4s-5.8,22.8-12.5,32.4-6.6,8.5-10.6,12-4.2,3.5-6.4,5.1-2.3,1.6-3.5,2.3-.3.2-.4.2c-.5.3-1.1.6,1-.6-.3.1-.5.3-.8.4-.6.3-1.3.7-1.9,1-9.6,4.7-20.4,7.2-31.1,6.2s-20.1-4.7-28.4-10.7-14.8-14.3-18.2-24c-3.9-11.4-3.3-23.8,0-35.3,3.2-11.6,9-22.5,15.8-32.4s14.5-18.5,23.3-26.3c4.4-3.9,9-7.5,13.9-10.8s2.5-1.7,3.8-2.5.6-.4.8-.5.3-.2.5-.3l-1.8,1.1.3-.2c.8-.4,1.6-.8,2.5-1.1,2.6-.9,5.4-.9,7.5,1s2.5,3.8,1.3,5.8c0,0,.5-.3.5-.3.4-.2.8-.5,1.2-.7s.8-.5,1.2-.7.4-.2.5-.3c1.3-2.1.2-4.6-1.6-6s-5.4-1.5-8-.5-3.2,1.6-4.8,2.5-2.9,1.7-4.3,2.7c-2.5,1.6-4.9,3.3-7.2,5-9.7,7.2-18.5,15.7-26.2,25.1-7.7,9.5-14.4,20-19.1,31.4s-7.4,24-5.6,36.4c1.6,10.9,6.9,20.9,14.9,28.5,7.6,7.3,17.4,12.3,27.7,14.4s21.8.9,32-3.1,10.9-5.2,15.9-8.4c4.6-3,8.8-6.6,12.6-10.6,8-8.6,13.6-19.2,16.7-30.5,3.2-11.8,3.8-24.2,2-36.3s-1-5.9-1.8-8.8l-3.5,2c3.9,14.4,5.2,29.7,2.8,44.5-2.3,13.9-8,27.3-17.8,37.5-2.2,2.4-4.7,4.5-7.2,6.5s-2.7,2-4.1,2.9-3.4,2-.4.3c-.7.4-1.5.8-2.3,1.2-5.8,2.9-12,4.8-18.5,5.5-6.2.7-12.7.1-18.6-1.9s-10.5-4.9-14.8-8.8c-8.6-7.7-14.5-18.7-14.9-30.3s1.2-11.7,4-16.9,8.3-11.4,13.6-15.9c10.9-9.1,23.9-15.8,33-26.9,4.1-5,7.2-10.7,8.2-17.1.9-5.6.4-11.7-2.2-16.8s-7.3-9-13-10.2c-5.9-1.3-12.1.3-17.3,3.1s-6.3,3.6-9,6-4.4,4.8-6,7.7c-3.6,6.3-5.4,13.5-6.3,20.7s-.7,7.1-.8,10.6c0-.2,1.6-.9,1.7-1,.4-.2.8-.5,1.2-.7s.5-.2.5-.3h0Z"/>
    <path d="M1535.6,1026.2c-2.7-8.2-6.3-16.1-11-23.3s-10.1-13.5-16.8-18.7c-6.4-4.9-13.9-8.7-21.9-10-7.2-1.2-14.6-.5-21.5,1.8s-7.7,3.3-11.4,5.5-6.2,4-8.8,6.6c-4.9,4.9-8.4,11.2-9.4,18.1s.6,13.8,3.4,20c2.9,6.5,7.1,12.4,11.3,18.1,4.4,5.9,9,11.6,13,17.8,3.8,5.9,7.1,12.3,8.4,19.2s.5,3.4.6,5.1c0-.1,1.6-.9,1.7-1,.4-.2.8-.5,1.2-.7s.5-.3.5-.3c-.4-6.9-2.8-13.5-6.2-19.5-3.5-6.3-7.9-12.1-12.2-17.8-4.3-5.7-8.7-11.3-12.2-17.5s-5.9-12.2-6.3-18.9,1.3-13.7,5.3-19.5,4.3-5.3,6.9-7.5,2.8-2.2,4.3-3.1.3-.2.5-.3c-3,1.8-2.2,1.3-1.5.9s.8-.4,1.3-.7c.8-.4,1.7-.8,2.5-1.2,6.6-2.8,13.8-4.1,21-3.7s15.2,3.4,21.8,7.5,13,10.4,17.9,17,9,14.3,12.1,22.2,1.4,3.8,2.1,5.8c0,0,1.6-.9,1.7-1s1.8-.9,1.7-1h0Z"/>
    <path d="M1520.9,1161.7c-4.3,1.7-8.5,3.5-12.6,5.7s-9.1,5-13.2,8.2-6.5,6.2-8.7,10.2-2.6,6.9-2.5,10.5c0,6.8,3,14.3,9,17.9,3.1,1.9,6.8,2.4,10.3,1.5s5.1-2.2,7.5-3.6,3.5-2.5,4.9-4.1c3.1-3.6,4.9-8,5.6-12.6s.1-11.6-.9-17.3-.5-2.8-.8-4.2c0,0-2.1,1.2-2.2,1.2-3,1.8-5.9,3.7-8.4,6.1s-4.5,4.8-6.2,7.6c-3.5,5.6-5.7,12-6.3,18.5s-.1,7.4.6,11.1c0,0,1.6-.9,1.7-1s1.8-.9,1.7-1c-1.3-6.2-.9-12.7.9-18.8s4.9-11.8,9.2-16.5,2.5-2.6,3.9-3.7,1.4-1.1,2.1-1.6.8-.6,1.2-.8.4-.3.6-.4.9-.5,0,0l-2.2,1.2c1.9,9.9,4,21-1.2,30.2s-2.2,3.5-3.7,5-1.5,1.4-2.3,2-.5.3-.7.5c-1.4.9,2.8-1.5,1.8-1.1s-1,.5-1.5.7c-3.3,1.3-7,1.3-10.2,0-6.1-2.6-9.5-9.1-10.5-15.4s-.4-6.8.6-10.1,3.4-7.2,6-10,6.3-5.8,10-8-.4.2-.9.5c.2-.1.4-.2.6-.3.5-.3.9-.5,1.4-.8,1-.5,2.1-1,3.1-1.5,2-.9,4-1.8,6-2.6s2-.8,3-1.2,1.2-.7,1.7-1,1.1-.8,1.7-1h0Z"/>
  </g>
  <g id="Ebene_5" class="st1">
    <path d="M1277.5,570.4c13.6.9,27.4-.4,40.6-3.9s7.4-2.2,11-3.5.6-.4.9-.5c-12.8,4.7-26.4,7.3-40.1,7.6s-7.7,0-11.6-.3-.6.5-.9.5h0Z"/>
    <path d="M540.6,201.5c.3,0,.6-.5.9-.5-.3,0-.6.5-.9.5h0Z"/>
    <path d="M429.5,316.2c-2.7-2.6-5.4-5.2-8.1-7.8s-.9.5-.9.5c.3,10,.9,20,1.7,30s1.8,20,3.1,30,2.8,19.8,4.5,29.7,3.7,19.7,6,29.4,4.7,19.5,7.4,29.1.7,2.4,1,3.7c0,0,.9-.4.9-.5-1.6-7.8-3.2-15.6-4.9-23.5,0,0-.9.4-.9.5,1.6,7.8,3.2,15.6,4.9,23.5l.9-.5c-2.8-9.6-5.3-19.3-7.6-29.1s-4.4-19.7-6.2-29.5c-1.8-9.8-3.4-19.7-4.7-29.7s-2.4-19.9-3.3-29.9-1.5-20-1.8-30,0-2.5-.1-3.8l-.9.5c2.7,2.6,5.4,5.2,8.1,7.8s.8-.6.9-.5h0Z"/>
    <path d="M435.9,417.5c-5.1-7-7.5-15.6-7.5-24.2,0-8.6,2.4-17.3,6.9-24.7s5-7,8.2-9.8,1.6-1.4,2.5-2,.9-.7,1.4-1,1-.8,1.6-1,.2-.3.5,0,0,.5.1.6l.2,1.1.5,2.7.9,5c2.5,13.4,5,26.9,7.5,40.3s5,26.9,7.5,40.3,2.5,13.4,3.8,20.1,2.2,9.3,5.2,13,2.7,2.8,4.6,3.4,3.8,0,5.5-.9,3.3-2.7,4.4-4.8,2.1-5.1,3-7.7c3.7-11.1,6-22.6,6.9-34.3s.4-23.4-1.4-35c-1.8-11.5-5.1-22.9-9.6-33.6s-2.3-5.1-3.5-7.7c0,0-.8.4-.9.5-3.5,7.8-6.1,15.9-7.6,24.3s-2.1,16.9-1.7,25.4,1.8,16.9,4.2,25,2.5,7.8,4.3,11.5,3.8,6.6,6.3,9.5c4.4,5.1,10.9,9.6,18,8.2s5.6-2,7.7-4,3.9-5,5-8c2.3-6.6,2.1-13.9,1.2-20.7s-2.9-14.8-5.8-21.8-6.7-13.5-11.2-19.5-9.9-11.4-15.9-15.9-3-2.2-4.5-3.2-.9.5-.9.5c-.3,2.6-.6,5.1-.9,7.7,0-.2.8-.3.9-.5.3-2.6.6-5.1.9-7.7l-.9.5c6.2,4.1,11.8,9,16.7,14.5s9.1,11.8,12.4,18.4,5.8,13.7,7.3,20.9,2.2,14.2,1.3,21.2-1.3,6.5-2.8,9.4-3.6,5.4-6.4,6.7-6.4,1.6-9.6.7-6.2-2.8-8.7-5.1-5.1-5.5-7.1-8.7-3.5-6.8-4.7-10.4c-2.8-7.9-4.5-16.1-5.4-24.5s-.7-16.8.4-25.1,3.1-16.5,6.1-24.3,1.5-3.8,2.4-5.7l-.9.5c3.8,7.6,6.8,15.5,9.2,23.6s4,16.4,4.9,24.7,1.1,16.8.6,25.2-1.7,16.7-3.7,24.9-2.1,8.2-3.5,12.2-1.3,3.8-2.1,5.7-1.5,3.3-2.7,4.7-.6.6-.9.9-.3.3-.5.4-.2.1-.3.2c-.2.1-.2.1,0,0h-.3c-.7.5-1.4.7-2.2.8-1.3.1-2.7-.2-3.8-.8-2.7-1.5-4.5-4.3-5.8-7s-2.3-6.9-2.9-10.5-1.8-9.7-2.7-14.6c-1.8-9.7-3.6-19.3-5.4-29s-3.6-19.4-5.4-29.1-3.6-19.3-5.4-29l-1.3-7.1h0c-4.1,2.2-7.8,5-10.9,8.4s-5.9,7.7-7.8,12.1c-3.9,8.9-5.1,19-3,28.5s3.3,10.5,6.6,14.9.9-.5.9-.5h0Z"/>
    <path d="M509.3,371.2c.6,11.7,2.4,23.4,5.3,34.8s3.2,11.2,5.2,16.7,2.1,5.4,3.2,8.1,2,4.3,3.4,6.3c2.4,3.4,6,7.1,10.5,6.8s3.4-.9,4.8-1.9,2.7-2.8,3.4-4.5c1.7-4.3,1.5-9.1,1.5-13.6s0-12.7,0-19c0-12.6,0-25.1,0-37.7,0-1.6,0-3.2,0-4.7l-.9.5c1.2,13.6,3.2,27.2,6,40.6s3.1,13.4,4.9,20,1.8,6.5,2.8,9.7,1.7,4.6,2.9,6.7c2.3,3.8,6.1,7.5,10.9,6.2s3.4-1.5,4.6-2.7,2.5-3.7,3.1-5.9,1.1-4.6,1.3-7c.4-3.6.7-7.1,1.1-10.7.7-7,1.4-14.1,2.1-21.1,1.4-14.1,2.8-28.3,4.2-42.4s.3-3.5.5-5.2c0,.2-.8.3-.9.5-1.4,13.9-2.8,27.8-4.2,41.7s-1.4,13.8-2.1,20.7-.7,6.9-1,10.3-.5,6.1-1,9.1-1.9,9.2-5.7,11.7c.4-.3,0,0,0,0s-.3.1-.4.2c-.2,0-.5.2-.7.2-.6.2-1.1.3-1.7.3-1.1,0-2.1-.1-3.1-.5-2-.8-3.7-2.4-5-4.1-3.3-4.3-4.6-9.7-6.1-14.9s-3.5-13-5-19.5c-2.9-13-5.1-26.2-6.4-39.5s-.3-3.3-.5-5c0,.1-.9.3-.9.5,0,12.3,0,24.6,0,37,0,6.2,0,12.4,0,18.6s0,6.2,0,9.2,0,4.2-.4,6.3-.9,3.9-1.9,5.7-1,1.6-1.7,2.2-.3.3-.5.4-.3.2-.4.3c-.2.2,0,.2.2,0-.1.2-.5.2-.7.3-.3.1-.6.2-.9.3-4.3,1.1-8.1-1.7-10.7-4.8s-5.1-8.6-6.9-13.3-3.9-10.9-5.4-16.4c-3.1-11-5-22.4-5.9-33.8s-.2-2.8-.3-4.2c0,.1-.9.3-.9.5h0Z"/>
    <path d="M665.4,288.9c3,18.5,6.1,37,9.1,55.5,3,18.5,6.1,37,9.1,55.5s3.4,20.7,5.1,31.1c0-.1.9-.4.9-.5-3-18.5-6.1-37-9.1-55.5-3-18.5-6.1-37-9.1-55.5-1.7-10.4-3.4-20.7-5.1-31.1,0,.1-.9.4-.9.5h0Z"/>
    <path d="M661,363c9.8-2.5,19.7-4.9,29.5-7.4l8.5-2.1c.3,0,.6-.4.9-.5-9.8,2.5-19.7,4.9-29.5,7.4l-8.5,2.1c-.3,0-.6.4-.9.5h0Z"/>
    <path d="M723.7,350.4c-2.2-1.7-5-2.4-7.8-2.1s-5.1,1.3-7.4,2.7-4.6,3.4-6.2,5.7-2.9,6.5-3.3,10c-.8,7.9,1.3,15.9,3.2,23.5s3.7,14,7.6,20.1,4,5.5,6.6,7.5,5,3.1,7.8,3.9,5.7,1.1,8.5.7,4.9-1.2,7.1-2.6,4.5-3.7,5.7-6.4,1.7-6.8,1.5-10.2-1.1-7.1-2.2-10.5-2.3-6.7-3.8-9.9c-2.9-6.4-6.7-12.5-11.1-18s-9.5-10.5-15.1-14.7-2.8-2-4.2-3-.7.6-.9.5c5.7,3.8,10.9,8.2,15.5,13.2s8.6,10.6,12,16.6,5.9,12.3,7.7,18.8,2.5,14-1.3,19.9-1.7,2.2-2.8,3.1-2.1,1.4-3.5,1.9c-2.6.9-5.4,1.2-8.1.9-5.7-.5-11.1-3.2-15-7.4s-7.4-11.6-9.4-18.1-1.8-6.7-2.6-10.1-1.7-7.6-2.2-11.5c-.8-6.9-.3-14.6,4.4-20.1s4.3-4,7.1-5,5.2-1.1,7.8-.4,2.4,1,3.5,1.7.8-.6.9-.5h0Z"/>
    <path d="M839.3,330.3c-8.8.2-17.8,4-24,10.4s-9.4,17.5-6.4,26.9,4.1,8.6,7.9,11.4,8.1,4.1,12.6,4.3c7.7.2,16.1-3.7,19.5-10.9s1.5-19.8-6.8-24.5-.8.5-.9.5c11.4,20.8,18.7,43.7,21.6,67.2s1.8,23.5,1,35.2-.7,10.9-2.1,16.1-3.7,9.2-8.5,10.6-8.8-.5-12.4-3.1-7.4-7.1-10.2-11.4-5.7-10-8.3-15.1-5.3-11.1-7.2-16.9c-3.2-9.9-4.3-20.4-1.6-30.6s8.6-18.7,18-22.6c10.3-4.3,21.8-3.4,32.6-5.1s15.9-4.6,21.9-10.5c12.1-11.7,17.2-32.5,7.9-47.5s-14.7-14.6-23.7-10.1-5.6,3.8-7.2,6.8-3,8.5-3.3,12.9-.2,10,.3,15,1.8,10.4,4.8,14.8c5.1,7.5,14.3,10.2,23,9s15.5-5.6,20.5-12.1c6.2-8.2,8.6-18.6,8.6-28.7.2-24.9-13.5-47.6-13-72.5s1.1-11.6,3.1-17l-.9.5c11.4,23.8,17.9,49.9,19.1,76.3.3,7.5.2,15-.3,22.4l.9-.5c-13.6-1.5-26.8-6.5-38-14.3s-6.2-4.7-9-7.3l-.9.5c30.4-6.8,60.7-13.6,91.1-20.3l25.6-5.7c.3,0,.6-.4.9-.5-30.4,6.8-60.7,13.6-91.1,20.3l-25.6,5.7c-.1,0-.8.5-.9.5,10,9.3,22.3,16.1,35.6,19.5,3.8,1,7.6,1.7,11.5,2.1s.9-.4.9-.5c1.8-26.3-1.7-53-10.3-78s-5.3-14-8.5-20.7c0,0-.8.4-.9.5-8.9,23.9,3,48.5,7.9,71.8,2.2,10.7,3,21.8,0,32.4s-8.4,19-17.8,23c-7.8,3.3-17.4,3.6-24.7-1s-10.8-16.6-11.2-26.3c-.3-8.4-.4-18.9,5.7-25.5,7.2-7.9,18.6-2.8,24.4,4,11.6,13.4,8.3,34.7-2.3,47.6s-6.5,6.7-10.5,8.9-9.6,3.5-14.7,4.2c-10.7,1.4-22.1.7-32,5.5-17.3,8.2-22.3,28.9-18.6,46.4,2.5,11.8,8.1,22.6,13.9,33,2.5,4.6,5.2,9.1,8.8,13s6.9,6.6,11.4,7.7,6.8,0,9.8-1.9,5.8-7,6.8-11.4,1.5-10.9,1.8-16.3.4-11.7.2-17.5c-.9-23.2-6.1-46.3-15.3-67.6-2.3-5.2-4.8-10.4-7.5-15.4l-.9.5c6.7,3.8,9.6,12,8.4,19.4s-2.3,7.3-5.1,10-7.5,4.6-12,4.9c-8.6.6-16.8-3.6-21-11.2s-4.3-17.3-.2-25,16-15.4,26.9-15.7.6-.5.9-.5h0Z"/>
    <path d="M514.6,541.4c-5.3-12-13.5-22.7-23.8-30.9-2.9-2.3-6-4.4-9.2-6.3s-.9.4-.9.5c-3.2,12.5-2.5,25.4-.1,38s6.3,25.4,9.9,38,7.5,26.1,11.2,39.2c3.7,13.1,7.5,26.1,11.2,39.2,3.7,13,7.4,26,11.1,39s.9,3.3,1.4,4.9l.9-.5c-13.9-11.7-26.8-24.5-38.6-38.3-5.9-6.8-11.5-13.9-16.8-21.2s-5.4-7.4-7.8-11.3-4.3-7.7-3.1-12c1.8-6.6,9.8-8.4,15.8-7.3s14.5,7.9,21.8,11.4c13,6.4,28.9,4.4,40.5-3.9s18-25,14.9-39.6-.9-3.6-1.6-5.3c0,0-.9.4-.9.5-1.2,11.8-.6,23.8,1.6,35.4s6.2,23,11.7,33.5,6.7,11.7,10.8,17c0,0,.9-.4.9-.5,3.5-20.5,4.8-41.3,3.7-62-.3-5.9-.8-11.8-1.5-17.7,0,.1-.9.4-.9.5,1.4,12.3,4.2,24.4,8.4,36,4.1,11.6,9.6,22.7,16.2,33.1s7.9,11.5,12.4,16.8.8-.4.9-.5c3.5-5.5,7.1-11,10.6-16.4-.2.2-.7.2-.9.5-3.5,5.5-7.1,11-10.6,16.4l.9-.5c-8-9.5-14.8-19.8-20.4-30.8s-9.9-22.6-12.9-34.5c-1.7-6.8-2.9-13.6-3.7-20.5l-.9.5c2.4,20.6,2.5,41.5.2,62.1s-1.5,11.8-2.5,17.6l.9-.5c-7.2-9.5-12.9-20-17-31.1s-6.7-22.8-7.4-34.7-.3-13.5.3-20.2l-.9.5c5.3,14,1.6,30.9-9.1,41.3s-29.4,13.3-43.2,6.4-7.2-4.4-10.8-6.6-7.1-4.1-11-4.8-11.7.6-15.4,4.8c-6,6.9,1.2,15.8,5.3,21.6s10.6,14.6,16.4,21.5c11.5,13.9,24.1,26.9,37.6,38.8,1.7,1.5,3.4,2.9,5.1,4.4s.9-.5.9-.5c-3.7-13.1-7.5-26.1-11.2-39.2s-7.4-26-11.1-39-7.5-26.1-11.2-39.2-7.6-25.4-10.4-38.3-4.1-25.3-1.8-37.9.6-3.2,1-4.7l-.9.5c11.3,6.7,20.9,16.2,27.8,27.4s3.7,6.5,5.2,9.9c0,0,.9-.5.9-.5h0Z"/>
    <path d="M660.6,593.8c-4.7-10.3-9.7-21.1-18.4-28.8s-8-5.7-12.8-7-9.2-1.3-13.7-.2-7.7,3-10.4,5.8-5.3,9.4-5.2,14.8,2.1,12.1,4.2,17.7,4,9.6,6.4,14.2c4.7,8.7,11,17.3,19.8,22.2s9,3.8,13.9,3.9,9.8-1.1,14.1-3.4c8.8-4.6,15.5-12.5,19.3-21.7,4.7-11.4,4-24.1.9-35.8s-9.4-24.9-15.4-36.8-11.6-23.4-14.5-36.1-1.2-6.1-1.5-9.2c0,.1-.9.3-.9.5-.7,8.3-.7,16.6-.1,24.8s1.7,16.6,3.4,24.7,4,16.1,6.9,23.9,6.3,15.4,10.2,22.8,8.4,14.3,13.3,21,1.2,1.7,1.9,2.5c0,0,.9-.4.9-.5.6-11.3,1.2-22.5,1.8-33.8s1.2-22.5,1.8-33.8.7-12.7,1-19l-.9.5c1.6,15.3,3.3,30.7,8.5,45.3s11.5,23.7,21.9,31.8,11.9,7.5,18.8,9,.6-.6.9-.5c-12.4-2.6-22.8-10.7-30.2-20.7-8.6-11.5-13-25.4-15.5-39.4s-2.5-17.3-3.4-25.9c0,.1-.9.3-.9.5-.6,11.3-1.2,22.5-1.8,33.8s-1.2,22.5-1.8,33.8-.7,12.7-1,19l.9-.5c-5.1-6.6-9.6-13.5-13.7-20.7s-7.6-14.8-10.6-22.6-5.4-15.7-7.3-23.7-3.2-16.3-3.9-24.6-.8-16.5-.3-24.8.1-2.1.2-3.1l-.9.5c1.3,12.6,6,24.5,11.3,35.9,5.5,11.6,11.8,22.9,16.4,35s7.4,24.8,5.4,37.4-6.8,19.5-14.4,26.1-8.4,5.8-13.4,6.9-9.7.8-14.4-.6c-9.3-2.8-16.5-10-21.8-17.9s-5.3-8.7-7.4-13.4-4.3-10-5.8-15.2-2.5-11.5-1-17.1,4.2-8.9,8.5-11.1c8-4.1,18.2-3,25.8,1.4s15.6,15.7,20.3,25.4,2.3,4.9,3.5,7.4c0,0,.9-.5.9-.5h0Z"/>
    <path d="M738.4,580.3c6.3-6.7,12.8-13.7,16.2-22.4s2.2-7.7,1.9-11.7-1.3-7.2-3.1-10.3-4.1-5.6-7.2-7.2-6.7-2-10.1-1.2c-6.3,1.5-11.2,6.7-13.9,12.4s-2.6,7-2.9,10.7.2,7.6,1.2,11.2c2.1,7.6,6.5,14.5,12.2,19.9s12.9,9.6,20.7,11.5,16.4,1.5,24.2-.8,14.4-6.2,20.2-11.2,11.5-12.8,14.5-20.9,4.1-17.8,3.1-26.8-3.9-18-8.9-25.5-5.4-6.7-9.6-7.4-6.9,1.1-9.4,3.4-4.9,7.7-5.2,12.3.4,10,1,14.9c1.1,8.8,2.9,18.5,9.1,25.2s13.3,9.1,20.7,6.7,5.9-3,7.9-5.5,3.5-6.9,4-10.6.4-8.2,0-12.3-1.2-9.5-2.1-14.1c-1.8-9.4-4.6-18.5-8.1-27.4s-8-17.5-13.1-25.5-5.2-7.7-8-11.4c0,0-.9.4-.9.5.5,10.6,2.1,21.1,4.8,31.4s6.3,20.3,10.9,29.9c4.6,9.6,10.1,18.8,16.3,27.3s13.4,16.5,21.2,23.7,16.3,13.6,25.4,19.1,2.3,1.4,3.4,2,.7-.6.9-.5c-9.2-5.3-17.9-11.5-25.9-18.5s-15.3-14.8-21.7-23.2-12.2-17.4-17-26.9-8.7-19.4-11.6-29.6c-2.9-10.2-4.8-20.7-5.6-31.3s-.2-2.7-.2-4l-.9.5c5.7,7.3,10.7,15.1,14.9,23.3s7.8,16.8,10.5,25.6,4.6,17.9,5.7,27,1.5,16.1-2.2,23.1-4.5,6-8.1,7-7.3.6-10.6-.6-6.8-3.3-9.3-6.1-4.9-7-6.3-11.1-2.3-8.7-2.8-13.1-1.3-9.6-1.2-14.3.9-9.1,3.8-12.6,2.9-2.9,4.9-3.6,3.9-.5,5.8.1c3.8,1.3,6.6,4.7,8.7,8.1s4.1,7.7,5.4,11.8c2.8,8.3,3.8,17.3,2.8,26s-3.8,16.9-8.7,24.1-11.3,13-18.8,16.8c-7.2,3.7-15.2,5.7-23.3,5.6s-15.4-2.5-22-6.5-12.2-9.5-16.1-16.1-6.2-13.9-5.6-21.3,3.5-13.9,8.6-18.6,5.5-3.6,8.8-3.8,6.7.7,9.5,2.7c5.7,4,8.5,11.2,8.6,18s-4.4,16.3-9.6,22.7-5.7,6.6-8.6,9.8c.2-.2.6-.3.9-.5h0Z"/>
    <path d="M892.5,435.7c2,15.6,6.1,31,11.9,45.6,5.8,14.6,13.5,28.5,22.7,41.2s10.9,14,17.1,20.4.9-.4.9-.5c.5-11.2-5-21.3-8.8-31.5s-4.7-17-2.2-25.3,3.2-7.3,6.4-9.7,8-3.3,12.2-2.7c8.9,1.3,16.7,7.8,20.9,15.6,4.7,8.6,6.2,19.2,2.9,28.5-3.1,8.7-10.8,15.4-20,17s-8.6.3-12.5-1.4-6.6-4.4-8.7-7.7c-4.1-6.4-5.2-15.2-.7-21.7,2.9-4.2,7.3-6.8,11.7-9s7.1-3.5,10.5-5.6c8.1-5.1,13.8-13.7,15.6-23s.6-4.6.6-6.9c0,.1-.8.4-.9.5-4.4,7.8-3.8,17.3.2,25.2,4.1,8.1,11.6,14.1,20.7,15.5,8.8,1.3,17.8-1.6,24.9-6.7s13.4-14.9,14.4-25c1-10.4-2.1-21.2-8.2-29.6s-1.6-2.1-2.5-3.1-.8.5-.9.5c11,14.7,22.1,29.4,30.9,45.6,8.3,15.5,14.3,32.3,15.4,49.9,1,16.8-2.5,33.9-12.2,47.9-9.7,14-24.1,24-39.7,30.4s-36.4,10.4-55,13.1-4.7.7-7,1-.6.5-.9.5c19.4-2.7,39.1-5.5,57.6-12.4s28.8-13.7,39.4-25.2,10.3-13.3,13.5-21.1c3.2-8,4.9-16.6,5.2-25.3.7-18.1-4-35.8-11.7-52-8.1-17-19.2-32.4-30.4-47.5s-2.8-3.7-4.2-5.5l-.9.5c6.7,7.6,10.7,17.6,10.9,27.8.2,9.8-3.2,19.5-10.3,26.4-6.8,6.7-16.5,10.4-26.1,9.5s-16.5-6.1-21-13.7c-4.3-7.2-5.8-16.3-2.7-24.3s.9-2,1.4-2.9l-.9.5c.1,10-4.2,19.8-11.6,26.5-7.1,6.4-17,8.3-23.9,14.8-3.1,2.9-5.2,6.6-5.7,10.9s.4,8.1,2.1,11.6,4.5,6.8,7.9,9,8.1,3.2,12.4,2.8c8.1-.6,16.2-5.4,20.8-12.1s6.2-19.6,2.9-29-9.8-16.9-19-20.2-8.6-1.9-12.8-.5-6.5,3.3-8.7,6c-5.3,6.8-5.3,16.5-3.5,24.6,2.4,10.7,8.5,20.1,10.5,30.9s.7,5.4.6,8.1l.9-.5c-11-11.3-20.5-24-28.3-37.7-7.8-13.6-13.9-28.3-18.1-43.4s-4.1-17.2-5.3-26c0,.1-.9.4-.9.5h0Z"/>
    <path d="M714.3,682.6c5.1,26.4,6.7,53.5,5,80.4-1.7,26.8-6.7,53.3-14.9,78.9s-10.3,28.5-17,42.1l.9-.5c-12.5-17.8-22.4-37.3-29.6-57.8-7.2-20.5-11.7-42-13.3-63.6s-.4-43.7,4.1-65c2.3-10.8,5.9-21.6,12.5-30.5s16.4-15.3,27.4-16c21-1.3,34.4,18.8,44.5,34.2,13.5,20.6,26.4,41.7,38.6,63.2,6.1,10.8,12.1,21.6,17.8,32.6s5.7,11,8.5,16.5,5.4,10.4,7.5,15.8c3.7,9.5,5.8,21-1.3,29.5s-15.8,8.5-24.5,8.6-9.1-.3-13.6-.8c-6.5-.7-12.9-1.4-19.4-2.1-12.9-1.4-25.9-2.8-38.8-4.2-25.8-2.8-51.5-5.6-77.3-8.4s-12.7-1.4-19.1-2.1l-.3.2c19.3-11.2,38.8-22.1,58.5-32.7,18.9-10.1,37.9-20,57-29.5s39-19,58.7-28c19.5-8.9,39.1-17.5,58.8-25.8,19.7-8.3,39.6-16.2,59.6-23.9,2.5-.9,4.9-1.9,7.4-2.8s.6-.4.9-.5c-20.6,7.8-41,15.8-61.3,24.3-20.2,8.4-40.3,17.1-60.2,26.2-19.8,9-39.5,18.3-59.1,28-19.6,9.7-39.1,19.7-58.4,30-18.7,10-37.2,20.3-55.6,30.9s-4.5,2.6-6.7,3.9-.2.2-.3.2c26.7,2.9,53.3,5.8,80,8.7s26.5,2.9,39.7,4.3c12.8,1.4,25.5,3,38.3,4.1,8.9.8,18.5,1,26.9-2.5s13.1-9.2,14.1-17.4-4.7-22.4-9.6-32.2c-5.7-11.3-11.6-22.5-17.6-33.7-12.2-22.4-25.2-44.4-38.9-66s-12.2-19.7-19.3-28.8-13.3-15.1-22.7-18.5c-9.2-3.3-19-1.7-27.4,3.1s-15.3,12.7-19.6,21.8-7.2,21.5-8.9,32.7-2.5,22.3-2.6,33.5c-.2,22.3,2.8,44.7,8.6,66.2s14.6,42.3,26.1,61.4c2.8,4.7,5.8,9.2,8.9,13.7,0,0,.8-.4.9-.5,11.8-24.2,20.5-49.9,25.9-76.2,5.4-26.3,7.5-53.2,6.3-80-.7-15.1-2.5-30.2-5.3-45.1,0,.1-.9.4-.9.5h0Z"/>
    <path d="M845.5,615.8c-3.3-4.8-6.6-9.6-9.9-14.5l-.9.5c16,22.2,31.9,44.3,47.9,66.5,15.9,22.1,31.8,44.2,47.8,66.3s7.4,10.5,11.3,15.6,7.1,9,11.6,12.5c7.5,5.9,18.4,8.9,27.2,4s1-.6,1.6-.9.7-.5,1.1-.8.6-.4.8-.6c.3-.2.3-.3,0-.2-.2,0-.4,0-.5.1-2.8.7-5.6,1.5-8.3,2.4-5.3,1.6-10.5,3.4-15.7,5.4-10.2,3.9-20.2,8.6-29.7,14-18.8,10.5-36.1,23.5-51.3,38.8-1.9,2-3.9,4-5.7,6,.2-.2.6-.3.9-.5,9.9-9.5,20-18.6,30.4-27.5s21.1-17.4,32-25.6,22.3-16.2,33.9-23.8c12.1-7.9,24.4-15.5,37-22.6s12.3-6.9,18.6-10.1,1.4-.8,2.2-1.1.7-.4,1.1-.6.8-.4.4.1c-.9,1.4-2.2,2.6-3.3,3.9-2.1,2.5-4.3,4.9-6.5,7.3-8.8,9.7-18.2,18.8-28.1,27.4-9.9,8.6-20.3,16.6-31.1,24s-11.3,7.5-17.1,11-7,4.1-10.6,6-3,1.7-4.6,2.5-1.8,1.1-1.9.9,1.2-1.8,1.4-2.1c8.2-11.1,17-21.7,26.3-31.8s19.4-19.8,29.8-28.8c2.5-2.2,5.1-4.3,7.7-6.4-.3.2-.6.3-.9.5-19.2,15.8-36.9,33.4-52.7,52.7s-8.7,11-12.9,16.7h0c15.1-7.9,29.7-16.8,43.5-26.8s28.6-22.4,41.4-35.3c7.2-7.2,14.1-14.8,20.7-22.7h0c-22,11.4-43.5,24-64.2,37.7-21.3,14.2-41.8,29.5-61.4,46-11.1,9.3-21.8,19-32.3,29.1l.9-.5c14.7-15.9,31.7-29.7,50.3-40.9,10-6,20.4-11.1,31.2-15.5,4.9-2,10-3.8,15-5.5,2.6-.8,5.1-1.6,7.7-2.4s2.4-.7,3.6-1,1.8-.5,1.8-.5c0,.2-1.4,1.1-1.5,1.2-4.1,2.8-9.7,3.2-14.5,2.4s-9.3-3-13.1-6.1-7.9-7.6-11.1-11.9-7-9.7-10.5-14.5c-15.3-21.2-30.5-42.3-45.8-63.5s-30.3-42.1-45.5-63.1c-1.9-2.6-3.7-5.2-5.6-7.8s-.9.5-.9.5c3.3,4.8,6.6,9.6,9.9,14.5s.9-.5.9-.5h0Z"/>
    <path d="M809.8,603.6c8.8-3.5,17.6-7,26.4-10.6s17.6-7.1,26.5-10.6l3.2-1.3,1.6-.6s.3-.1.3-.1-.3.3-.4.3l-.7.7c-1.8,1.6-3.6,3.1-5.3,4.7-3.6,3.1-7.1,6.3-10.7,9.4-7.1,6.3-14.2,12.5-21.3,18.8s-14.3,12.6-21.4,18.9l-2.6,2.3c.2-.2.6-.3.9-.5,11.9-8.1,23.6-16.6,34.9-25.5,11.4-8.8,22.5-18,33.3-27.6,6.1-5.4,12.1-10.9,18-16.4-.2.2-.6.3-.9.5-8.9,5.4-17.6,11.3-26,17.5-8.4,6.3-16.6,12.9-24.4,20s-8.7,8-12.9,12.2c0,0,0,0,0,0,4.4-2.4,8.8-4.9,13.2-7.3s.4-.2.6-.3.3-.2.2,0c-2.9,1.6-5.9,3.3-8.8,4.9s-1.4.8-2.2,1.2l-1,.5-.5.3c-.1,0-.4.3-.4.2s1.4-1.4,1.6-1.6c.6-.6,1.2-1.2,1.8-1.7,4.4-4.2,8.9-8.3,13.4-12.3,9.2-8,18.8-15.5,28.9-22.5s11.5-7.8,17.4-11.4l-.9.5c-10.5,9.9-21.3,19.5-32.3,28.7s-22.4,18.1-34,26.7-13.2,9.5-19.9,14.1l.9-.5c7.1-6.3,14.2-12.5,21.3-18.8s14.3-12.6,21.4-18.9,7.1-6.3,10.7-9.4,3.6-3.1,5.3-4.7,1.7-1.5,2.6-2.3l.7-.6c.1-.1.3-.2.4-.3.1-.2,0,0-.1,0-.6.2-1.2.5-1.7.7-8.8,3.5-17.6,7-26.4,10.6s-17.6,7.1-26.5,10.6l-3.2,1.3c-.3.1-.6.4-.9.5h0Z"/>
  </g>
  <g id="Ebene_6">
    <path d="M633.5,202.8c-6.7-5.8-14.1-11.6-22.8-14s-8.1-1.4-12.1-.4-7,2.7-10,4.8-5.3,4.9-6.6,8.3-1.2,7.1.2,10.4c2.9,7,10.4,11.1,16.7,14.4s14.6,8.1,21.2,13.4,12.2,11.3,16.3,18.6,5.7,13.5,5.7,20.9-1.6,13.8-5,19.8-3.7,5.5-6.2,7.7-1.3,1.1-2,1.6-.7.5-1.1.7-.3.2-.5.3c-.4.3.3-.2.3-.2,0,0-.3.2-.4.2-1.7.9-3.4,1.5-5.2,2-7.7,2.1-16.1.6-23.1-3.2s-12.7-10.7-15.7-18.5-3.8-16.5-2.4-24.8,4.7-15.4,9.8-21.4,2.7-2.9,4.2-4.2,3.2-2.4,4.9-3.6c0,0-.7.4-.2.1s.2-.1.3-.2c.2-.1.4-.2.7-.3.5-.2,1-.5,1.5-.7.8-.4,1.6-.7,2.5-.9,1.7-.6,3.5-1,5.3-1.2,7-1,14.4.4,20.5,4.1s5.7,4.2,7.7,7.1,3.8,7.7,5,11.9,2.3,8.8,4.8,12.6,5.3,5.9,8.9,7,3.5.6,5.2.2,1.6-.6,2.4-1,1.7-.9,2.5-1.5c3.1-2.3,4.4-6.2,5.2-9.7s1.6-9.6,2.1-14.4.8-10.3.9-15.4c.2-10.2-.4-20.5-1.9-30.6s-1.6-9.8-2.7-14.7c0,0-.8.5-.9.5-.1,0-.8.4-.9.5-1,8.2-1.5,16.4-1.6,24.6s.2,16.3,1,24.5,1.9,16.3,3.5,24.4,3.6,15.9,6,23.8,5.2,15.6,8.5,23.1.8,1.9,1.2,2.8c0,0,1.8-.9,1.7-1-1.8-7.3-3.5-14.5-5.3-21.8,0,.2-1.8.8-1.7,1,1.8,7.3,3.5,14.5,5.3,21.8l1.7-1c-3.3-7.5-6.3-15.2-8.8-23s-4.6-15.7-6.3-23.7-3-16.1-3.8-24.3c-.9-8.1-1.3-16.3-1.3-24.5s.4-16.4,1.3-24.6.2-2,.3-3l-1.7,1c2.3,10,3.7,20.2,4.3,30.5s.4,20.7-.7,30.9-1,9.5-2.1,14.2-2.4,7.3-5.6,9.6,1.5-.8.9-.5-.3.1-.4.2-.4.2-.6.2c-.4.2-.9.3-1.4.4-.9.2-1.7.2-2.6,0-1.8-.2-3.6-.9-5.1-1.8-3.5-2.1-6-5.3-7.6-9s-2.8-8.9-4.2-13.3-3.1-7.3-5.9-10.3c-4.9-5.1-11.8-8-18.8-8.7s-7.2,0-10.7.9-7,2.7-10.2,4.6c-6.7,4.1-11.9,10.5-15.1,17.6s-4.8,15.7-4.1,23.9,3.8,16.8,9.3,23.2,12.7,10.3,20.7,11.4,8,.4,11.8-.6,6.6-2.6,9.6-4.6c5.6-3.8,9.5-9.6,11.7-16s2.8-13.7,1.6-20.6-5.1-14.8-9.8-20.8-11.7-12.1-18.7-16.8-7.2-4.5-10.9-6.5-7-3.6-10.3-5.7-6.1-4.4-8.2-7.5-3-6.6-2.5-10.3,2.4-6.7,5-9.2,1.3-1.2,2.1-1.8.8-.6,1.2-.8.4-.2.6-.4c.3-.2-.7.4-.3.2s.3-.1.4-.2c1.7-.9,3.6-1.6,5.5-2,8.5-1.9,17.2,1.8,24.2,6.4s7.1,5.2,10.4,8.1,1.6-1.1,1.7-1h0Z"/>
    <path d="M658.3,162v1.6s.3-.2.3-.1c.2-.1.4-.2.6-.4s.4-.2.6-.4h.1c0-.1,0-.1.1-.2v-1.6s-.3.2-.3.1c-.2.1-.4.2-.6.4s-.4.2-.6.4h-.1c0,.1,0,.1-.1.2h0Z"/>
    <path d="M706.5,260.4c-1.2,3.4-2.5,6.8-3.7,10.2l1.7-1c-5-11.3-8.6-23.2-11-35.4s-3.3-24.6-2.9-36.9.7-9.2,3-13,1.2-1.7,1.9-2.4.8-.7,1.2-1,.2-.2.4-.2c-1.3,1-1.2.7-.6.4s.5-.2.7-.3c2.3-.8,4.8-.6,7,.3,5.1,2,8,6.8,9.4,11.9s1.2,5.6,1.5,8.4.9,6.5,1.3,9.8c1.8,13.3,3.5,26.5,5.3,39.8.8,6.4,1.6,12.8,2.5,19.1s1.7,8.7,3.7,12.7,4.5,6.8,8.4,7.9,4.4.6,6.5,0,1.9-.7,2.8-1.2,2.1-1.2,3.1-1.9c3.9-2.9,6.6-7.2,8.6-11.5s4.2-10.6,5.7-16c3-11.2,4.4-22.9,4-34.5s-2.4-23.2-6.2-34.2-1.9-5.3-3-7.9c0,0-1.6.9-1.7,1-8,8.6-11,20.4-10.6,31.9s1.2,11.9,2.9,17.7,4.4,12,7.4,17.7c6.5,12.5,14.6,24.1,21.1,36.6s5.6,11.6,7.4,17.8,2.6,11.4,2.8,17.2c.4,11.1-2.2,22.6-9.6,31.2s-1.9,2-2.9,3l1.7-1c-5.9-8.8-10.6-18.3-14-28.2s-5.5-20.4-6.3-30.9-.4-11.9,0-17.8c0,0-.8.4-.9.5s-.9.4-.9.5c-.8,10.5-.2,21.1,1.8,31.5s5.2,20.5,9.7,30,5.5,10.6,8.8,15.5,1.6-.9,1.7-1c8.4-7.7,12.1-18.8,12.5-30s-2.9-23.8-8-34.6c-6-12.7-14.1-24.4-21-36.7-3.2-5.8-6.2-11.8-8.4-18.1s-3.4-11.6-3.9-17.5c-1.1-11.4.7-23.5,7.6-32.9s1.8-2.2,2.7-3.3l-1.7,1c4.6,10.7,7.5,22.1,8.7,33.6s.7,23.3-1.5,34.7-2.6,11.3-4.6,16.7-3.7,9.8-6.8,14.1-3,3.7-5,5.1-.5.3-.7.5c1.3-.9.9-.5.5-.3s-.3.1-.4.2c-.5.2-1.1.4-1.6.6-1.1.3-2.2.5-3.4.5-4.1,0-7.6-2.4-9.9-5.7s-3.8-7.9-4.7-12.1-.8-5-1.2-7.5-.9-6.7-1.3-10c-1.7-13.2-3.5-26.4-5.2-39.6s-.9-6.7-1.3-10-.8-6.2-1.3-9.3c-.9-5.3-2.6-10.8-7.1-14.2s-4.2-2.5-6.6-2.7-4.5.8-6.6,2-3.2,2.5-4.3,4.3-1.8,4.1-2.2,6.3-.6,4.6-.7,7-.1,6.1,0,9.2c.2,6.1.6,12.3,1.5,18.4,1.7,12.3,4.7,24.3,9,35.9s2.2,5.6,3.4,8.3c0,0,1.7-.8,1.7-1,1.2-3.4,2.5-6.8,3.7-10.2,0,.1-.7.4-.9.5s-.8.3-.9.5h0Z"/>
    <path d="M823.3,206.3c-1.2,9-1,18.1.4,27s4.2,17.6,8.2,25.8,4.8,9,7.8,13.1,1.6-.9,1.7-1c4.9-7,8.5-14.9,10.7-23.1s3.1-16.9,2.6-25.5-1.1-9.6-2.3-14.2c0,.2-1.7.7-1.7,1-1.8,8.9-2.5,18-2,27.1s2.1,18.1,4.9,26.7,3.5,9.7,5.7,14.3c0,0,1.7-.8,1.7-1,1.8-4.7,3.6-9.3,5.4-14,0,.1-.7.4-.9.5s-.8.3-.9.5c-1.8,4.7-3.6,9.3-5.4,14l1.7-1c-4-8.2-6.9-16.8-8.7-25.7-1.8-8.9-2.4-18-1.9-27.1s1-10.2,2-15.2l-1.7,1c2.2,8.3,2.9,16.9,2.2,25.4s-2.8,17-6.2,24.8-4.3,8.6-7,12.6l1.7-1c-5.3-7.4-9.4-15.5-12.3-24.1s-4.5-17.6-4.9-26.6,0-10.2.7-15.3c0,0-.8.4-.9.5s-.8.4-.9.5h0Z"/>
    <path d="M861.7,223.8c2.1,12.1,4.2,24.3,6.3,36.4s4.2,24.3,6.3,36.4,2.4,13.6,3.5,20.4l1.7-1c-2.5-11.9-5-23.7-7.5-35.6s-5-23.7-7.5-35.6-2.5-11.8-3.7-17.7-2.3-11.6-1.2-17.4,2.9-8.5,6.4-11.3.4-.3.6-.4,1.3-.8.2-.2,0,0,.3-.1.5-.2.8-.3c1-.4,2.1-.6,3.2-.7,2.3-.2,4.5.3,6.6,1.2,4.3,1.9,7.8,5.5,10.7,9.2s6.1,8.5,8.8,13c5.4,9,9.9,18.6,13.4,28.5s3.2,10.1,4.4,15.3,1.8,8.6,2.1,13c.4,7.7-.5,16.4-5.9,22.4s-1.3,1.3-2,1.9-.8.6-1.2.9-.4.2-.6.4l.9-.5c-.1,0-.2.1-.3.2-.2,0-.4.2-.5.3-2,.9-4.2,1.5-6.4,1.6-4.5.3-9-1-12.9-3.1-8.8-4.7-13.9-13.8-17.7-22.7s-1.9-4.6-2.8-6.9c0,0-1.8.9-1.7,1,3.7,9.3,7.6,19.4,15.5,26.1s17.1,8.9,25.4,4.3,3.6-2.1,5.1-3.5,2.6-2.8,3.5-4.5c2-3.5,2.9-7.5,3.3-11.5.9-9.3-1.2-18.6-3.8-27.4-3-10.4-7-20.5-12.2-30s-5.4-9.4-8.4-13.9-5.9-8.4-9.8-11.7-8.1-5.2-12.8-4.5-4.1,1.4-6,2.6-3.4,2.6-4.6,4.4c-3,4.2-3.9,9.4-3.6,14.5s1.9,12,3.1,18c2.5,12.1,5.1,24.3,7.6,36.4,2.5,12.1,5.1,24.3,7.6,36.4s1.2,5.9,1.8,8.8c0-.2,1.8-.8,1.7-1-2.1-12.1-4.2-24.3-6.3-36.4s-4.2-24.3-6.3-36.4-2.4-13.6-3.5-20.4c0,0-.8.4-.9.5s-.9.4-.9.5h0Z"/>
    <path d="M938.5,198.4c4.2,8.6,7.7,17.5,10.6,26.6s5,18.3,6.5,27.7c.8,5.3,1.4,10.7,1.8,16,0,0,.8-.4.9-.5s.9-.4.9-.5c.3-11.1.7-22.3,1-33.4.3-11.1.7-22.2,1-33.3l.6-18.8-1.7,1,11.4,39.6c3.8,13.2,7.6,26.4,11.4,39.6s4.3,14.9,6.4,22.3c0-.1,1.6-.8,1.7-1,4.4-5.8,8.1-12,11-18.7,3-6.6,5.2-13.6,6.7-20.7s2.2-14.3,2.2-21.6c0-7.3-.8-14.5-2.4-21.6s-3.9-14-7-20.5-.8-1.6-1.2-2.4c0,0-1.7.8-1.7,1-4.1,11.7-6.3,24.1-6.5,36.5-.1,6.1.3,12.3,1.1,18.4s1,6.1,1.7,9.2,1.3,5.6,2.3,8.3c1.5,4.2,4.3,8.8,9.3,8.7s3.9-1.1,5.5-2.2,3-2.7,4-4.4,2-4.1,2.5-6.3.7-4.9.8-7.4c.1-5.6-.4-11.2-1.5-16.8-2.2-11-6.9-21.6-13.6-30.7s-1.7-2.2-2.6-3.2c0,0-1.7.9-1.7,1,0,2.7.2,5.3.3,8,0,0,.8-.4.9-.5s.9-.4.9-.5c0-2.7-.2-5.3-.3-8l-1.7,1c7.1,8.5,12.2,18.5,15.1,29.2s2.3,10.8,2.5,16.3.2,10.1-1.4,14.8-1.7,4.1-3,5.8-1.3,1.5-2.1,2.1-.4.3-.7.5c-.4.3-.9.3.9-.5-.1,0-.3.1-.4.2-.4.2-.9.3-1.4.5-2,.4-4.2,0-5.8-1.2s-3.2-3.3-4.1-5.4-1.7-4.9-2.4-7.4-1.4-5.9-1.9-8.9c-1-5.9-1.6-12-1.6-18-.2-12.1,1.5-24.2,5.1-35.7.4-1.4.9-2.9,1.4-4.3l-1.7,1c3.3,6.4,5.8,13.3,7.6,20.3s2.7,14.3,3,21.6c.2,7.2-.3,14.5-1.6,21.6s-3.3,14.2-6.1,20.9-6.3,13.1-10.5,19-1.1,1.5-1.6,2.2l1.7-1c-3.8-13.2-7.6-26.4-11.4-39.6l-11.4-39.6-6.4-22.3c0,.2-1.7.8-1.7,1-.3,11.1-.7,22.3-1,33.4s-.7,22.2-1,33.3c-.2,6.3-.4,12.6-.6,18.8l1.7-1c-.7-9.5-2.1-19-4.2-28.3s-4.9-18.4-8.3-27.2c-1.9-5-4.1-9.9-6.5-14.8,0,0-1.8.9-1.7,1h0Z"/>
    <path d="M1021.8,200.3c4.6,7.4,2.9,16.5,2.4,24.8s-.3,8.9,1.1,13,3.2,6.4,6.3,8.3,6,2.6,9.1,1.7,3-1.3,4.3-2.2,2.5-2.4,3.2-3.9c1.5-3.3,1.7-7.1,1.7-10.7s0-10.1,0-15.1c0-10.1,0-20.2,0-30.2s0-2.5,0-3.7l-1.7,1c1.7,8.3,3.8,16.6,6.4,24.7,2.6,8.1,5.6,16,9.1,23.7s4.1,8.7,6.3,12.9c0,0,1.7-.8,1.7-1,4.4-9.2,8-18.9,10.8-28.7s4.6-20,5.6-30.3.8-11.5.8-17.3c0,0-.8.4-.9.5s-.9.4-.9.5c0,10.2-.9,20.5-2.6,30.6s-4.4,20.1-7.9,29.8c-2,5.4-4.2,10.8-6.7,16l1.7-1c-4-7.5-7.5-15.3-10.6-23.2-3.1-7.9-5.7-15.9-7.9-24.1-1.2-4.6-2.3-9.3-3.3-14,0,0-.8.4-.9.5s-.9.4-.9.5c0,9.8,0,19.7,0,29.5s0,9.7,0,14.6.2,8-.5,12-.9,3.3-1.8,4.8-.9,1.4-1.5,1.9-.6.5-.9.8-.2.2-.4.3c-.4.3,1.1-.6.9-.5-.2,0-.4.2-.7.3-2.9,1.2-6.2.6-8.9-.8s-5.4-4-6.7-7.1-2-8.2-1.9-12.4c.2-8.1,2.3-16.7-1-24.5s-.8-1.8-1.4-2.6-1.7,1-1.7,1h0Z"/>
    <path d="M507.1,143c.3,14.5.6,29,.9,43.4s.6,28.8.9,43.2.6,28.8.9,43.2.6,28.8.9,43.2.2,23.5,4.1,34.5,4.6,9.9,8.4,13.7,8.1,6.3,12.9,8.1c10,3.7,21.1,3.8,31.7,3.2s12.6-1,18.9-1.6,14.3-1.3,21.4-1.9c14.4-1.3,28.9-2.6,43.3-3.9s28.7-2.6,43.1-3.9,28.7-2.6,43.1-3.9,28.7-2.6,43.1-3.9c14.4-1.3,28.9-2.6,43.3-3.9s28.7-2.6,43.1-3.9c14.4-1.3,28.7-2.6,43.1-3.9s28.7-2.6,43.1-3.9,28.9-2.6,43.3-3.9,28.7-2.6,43.1-3.9,28.7-2.6,43.1-3.9,28.7-2.6,43.1-3.9,13.9-1.3,20.9-1.9.7-.4.9-.5.9-.4.9-.5c.3-15,.7-29.9,1-44.9.3-15,.7-29.9,1-44.9.3-14.9.7-29.9,1-44.8.3-12,.7-24-.5-35.9s-3.7-21.9-9.5-31.2-14.7-16-25-19.5c-10.5-3.5-21.8-3.7-32.7-2.7-11.6,1.1-23,3.6-34.4,6.3s-28.4,6.5-42.6,9.5-28.3,5.9-42.5,8.6-28.6,5.3-43,7.7-28.7,4.7-43.1,6.7-28.7,4-43,5.8-28.9,3.4-43.4,4.9-29,2.8-43.5,3.9-28.9,2.1-43.4,3-29,1.5-43.5,2-29.1.9-43.6,1.1-29.1.2-43.6.1-28.9-.4-43.4-.8-14.1-.5-21.1-.7-.7.4-.9.5-.6.5-.9.5c14.5.6,29.1,1,43.6,1.3,14.5.3,29.1.4,43.6.3s29-.3,43.5-.6,29-.9,43.5-1.6c14.5-.7,29.1-1.5,43.6-2.5s29-2.2,43.5-3.5c14.4-1.3,28.8-2.8,43.2-4.4,14.5-1.6,28.9-3.4,43.3-5.4s28.8-4,43.2-6.3,28.6-4.6,42.8-7.2c14.3-2.6,28.6-5.3,42.9-8.2s28.5-5.9,42.7-9.1c7.1-1.6,14.2-3.2,21.3-4.9s11.2-2.6,16.8-3.7c11.2-2.1,22.7-3.6,34.1-2.7s21.4,4,29.9,10.8,14,16.5,17,27,3.7,22.3,3.7,33.5-.2,12.8-.3,19.1c-.2,7.5-.3,15-.5,22.5-.3,15-.7,29.9-1,44.9s-.7,29.8-1,44.7-.3,14.5-.5,21.7l1.7-1c-14.4,1.3-28.9,2.6-43.3,3.9s-28.7,2.6-43.1,3.9-28.7,2.6-43.1,3.9c-14.4,1.3-28.7,2.6-43.1,3.9s-28.9,2.6-43.3,3.9c-14.4,1.3-28.7,2.6-43.1,3.9s-28.7,2.6-43.1,3.9-28.7,2.6-43.1,3.9-28.9,2.6-43.3,3.9-28.7,2.6-43.1,3.9-28.7,2.6-43.1,3.9-28.7,2.6-43.1,3.9-28.9,2.6-43.3,3.9-23.2,2.4-34.8,1.4-20.7-4-28-11.6-10.5-19.5-11.4-30.4-.6-12.1-.7-18.1-.3-14.5-.4-21.7c-.3-14.4-.6-28.8-.9-43.2s-.6-28.8-.9-43.2-.6-28.8-.9-43.2-.3-14-.4-21c0,0-.8.4-.9.5s-.9.4-.9.5h0Z"/>
  </g>
</svg>