<?xml version="1.0" encoding="UTF-8"?><svg id="Ebene_1" xmlns="http://www.w3.org/2000/svg" viewBox="0 0 1868.52 427.68"><defs><style>.cls-1{fill:#010101;}</style></defs><path class="cls-1" d="M101.44,26.5c-.2,25.99-.39,51.98-.59,77.97-.2,25.99-.39,51.98-.59,77.97s-.39,51.98-.59,77.97l-.59,77.97c-.2,25.99-.39,51.98-.59,77.97l-.07,9.5,3.49-.95c-4.39-6.31-9.07-12.41-13.83-18.43-5.42-6.86-10.96-13.62-16.51-20.37-5.89-7.17-11.79-14.33-17.61-21.56s-11.51-14.45-17.03-21.86-10.42-14.34-15.18-21.82c-4.22-6.63-8.16-13.47-11.44-20.62-1.4-3.06-2.59-5.98-3.71-9.36-.98-2.96-1.78-5.98-2.3-9.06-.06-.36-.11-.71-.17-1.07-.03-.17-.06-.45-.02-.11-.03-.2-.05-.4-.08-.6-.08-.72-.15-1.43-.2-2.15-.09-1.36-.11-2.73-.04-4.1.03-.67.09-1.34.16-2.01.02-.16.04-.32.06-.48-.04.32-.03.17,0-.04.05-.34.11-.67.17-1.01.23-1.25.55-2.48.96-3.69.1-.29.21-.58.32-.87.06-.14.11-.29.17-.43.16-.42-.12.25.07-.16.25-.57.52-1.12.81-1.67.6-1.13,1.3-2.21,2.07-3.23.2-.26-.19.23.09-.11.1-.13.2-.25.31-.38.22-.27.45-.53.68-.79.46-.51.94-1.01,1.44-1.48s1.01-.93,1.54-1.37c.14-.11.27-.22.41-.33.08-.06.49-.38.16-.13.29-.22.58-.43.87-.64,5.93-4.22,12.57-6.36,19.73-7.9,10.36-2.24,21.05-2.78,31.61-2.77,6.96,0,13.93.3,20.87.78,6.31.43,12.66.21,18.96-.38,11.99-1.12,23.83-3.72,35.16-7.81,11.04-3.98,21.6-9.27,31.41-15.7,9.76-6.4,18.82-13.91,26.96-22.27s15.43-17.62,21.67-27.5,11.5-20.52,15.59-31.53,6.92-22.23,8.49-33.74,1.91-23.42.76-35.11c-1.18-11.97-3.82-23.79-7.96-35.09-2.06-5.63-4.48-11.13-7.21-16.46-.87-1.7-3.48-.84-3.49.95-.1,19.82-.2,39.64-.31,59.45s-.2,39.64-.31,59.45c-.1,19.73-.2,39.47-.3,59.2-.1,19.82-.2,39.64-.31,59.45s-.2,39.47-.3,59.2c-.01,2.5-.03,5-.04,7.49-.01,2.11,3.13,2.55,3.68.5,5.35-19.93,10.7-39.86,16.05-59.79s10.7-39.86,16.05-59.79c3.02-11.25,6.04-22.5,9.06-33.76h-3.62c4.41,11.89,6.46,24.72,8.5,37.18,2.76,16.79,4.97,33.66,7.42,50.5s5.22,34.74,8.93,51.9c3.13,14.47,6.83,29.15,13.25,42.56,2.42,5.06,5.33,9.98,9.13,14.13,1.61,1.76,3.42,3.35,5.4,4.68.9.6,1.85,1.14,2.83,1.6.55.26,1.13.58,1.72.73.98.25,2.17-.4,3.08-.75,14.69-5.69,25.17-18.04,32.29-31.72,8.24-15.85,12.78-33.48,15.87-50.98s4.71-35.35,5.61-53.14c.2-3.93.36-7.86.5-11.8.12-3.49.44-7.07.27-10.56-.49-10.01-2.35-20.25-6.76-29.32-4.06-8.36-11.04-15.71-20.53-17.4-1.76-.31-3.79.91-5.39,1.6-1.49.64-2.97,1.31-4.42,2.03-2.73,1.34-5.38,2.83-7.94,4.47-9.57,6.12-17.73,14.34-23.43,24.19s-8.61,20.26-9.73,31.18c-1.18,11.47-.13,23.13,2.36,34.36,2.69,12.17,7.15,23.95,12.82,35.04s13.2,22.35,21.6,32.21c8.54,10.02,18.29,19.02,29.06,26.6,10.65,7.5,22.37,13.56,34.76,17.61,12.53,4.1,25.8,6.06,38.98,5.57,14.48-.54,28.66-4.02,41.95-9.73,15.63-6.72,29.81-16.51,42.49-27.81,7.31-6.51,14.12-13.55,20.53-20.95,1.57-1.82-1.07-4.48-2.65-2.65-13,15-27.77,28.68-44.76,39.07-13.55,8.28-28.45,14.34-44.15,16.96-13.57,2.27-27.79,1.8-41.19-1.26-13.39-3.05-25.81-8.42-37.45-15.67-11.62-7.24-22.02-16.12-31.29-26.28s-16.96-21.11-23.39-33.16c-6.13-11.49-10.81-23.55-13.67-36.37-1.37-6.15-2.19-11.7-2.56-17.92-.35-5.87-.21-11.78.52-17.62.07-.56.13-.99.26-1.83.11-.71.23-1.42.35-2.13.25-1.41.54-2.81.87-4.2.65-2.75,1.45-5.47,2.4-8.14,1.8-5.04,4.28-10.04,7.44-14.75s6.86-8.89,11.26-12.74,9.68-7.38,15.23-10.23c2.96-1.52,5.79-2.76,8.82-3.91h-1c17.22,3.08,22.98,23.33,24.48,38.32.67,6.69.18,13.45-.09,20.15-.29,7.13-.68,14.26-1.22,21.38-1.19,15.71-3.06,31.4-6.32,46.82s-7.47,29.66-14.77,42.99c-6.22,11.37-14.91,21.71-26.9,27.19-1.37.63-2.78,1.17-4.21,1.65h1c-.11-.04-.29-.08-.39-.15-.36-.26.35.16-.06-.03-.21-.1-.42-.19-.63-.29-.46-.22-.92-.47-1.36-.73s-.86-.52-1.27-.8c-.22-.15-.44-.3-.65-.46-.08-.06-.16-.12-.24-.17-.42-.3.04.04-.21-.16-1.76-1.4-3.34-3.01-4.78-4.74-1.35-1.64-2.9-3.91-4.18-6.08-1.47-2.48-2.77-5.06-3.95-7.68-5.74-12.68-9.24-26.86-12.18-40.6-3.53-16.51-6.14-33.22-8.58-49.92-2.36-16.12-4.49-32.28-7.06-48.37-1.99-12.49-4.02-25.18-7.92-37.25-.35-1.09-.72-2.17-1.12-3.24-.61-1.65-3.1-1.9-3.62,0-5.35,19.93-10.7,39.86-16.05,59.79-5.35,19.93-10.7,39.86-16.05,59.79-3.02,11.25-6.04,22.5-9.06,33.76l3.68.5c.1-19.82.2-39.64.31-59.45s.2-39.64.31-59.45c.1-19.73.2-39.47.3-59.2.1-19.82.2-39.64.31-59.45.1-19.73.2-39.47.3-59.2.01-2.5.03-5,.04-7.49l-3.49.95c5.52,10.77,9.63,22.22,12.2,34.05s3.48,23.24,3.08,34.96-2.17,23.05-5.17,34.22-7.22,22.01-12.53,32.29-11.75,20.12-19.14,29.1-15.72,17.18-24.85,24.37c-9.09,7.16-19.04,13.28-29.53,18.15s-21.92,8.55-33.45,10.7c-5.89,1.1-11.85,1.8-17.84,2.12-3.14.17-6.29.23-9.43.18-3.56-.05-7.13-.44-10.69-.61-12.14-.6-24.4-.65-36.48.84-8.41,1.04-16.84,2.76-24.56,6.35-5.46,2.54-10.47,6.2-13.88,11.23-3.05,4.5-4.46,9.89-4.58,15.28-.14,6.08,1.24,12.17,3.19,17.9,2.37,6.98,5.63,13.66,9.23,20.08,4.11,7.34,8.72,14.4,13.54,21.29,5.3,7.59,10.89,14.98,16.59,22.27s11.66,14.65,17.6,21.9c5.74,7.01,11.51,13.99,17.22,21.02,5.19,6.38,10.29,12.75,15.14,19.21,2.1,2.79,4.16,5.62,6.15,8.49,1.03,1.48,3.48,1.01,3.49-.95.2-25.99.39-51.98.59-77.97.2-25.99.39-51.98.59-77.97.2-25.99.39-51.98.59-77.97l.59-77.97c.2-25.99.39-51.98.59-77.97l.07-9.5c.02-2.41-3.73-2.42-3.75,0h0Z"/><path class="cls-1" d="M703.53,65.12c-3.21,10.18-6.24,20.42-9.09,30.72s-5.5,20.64-7.97,31.02-4.74,20.74-6.83,31.17c-2.1,10.47-4.01,20.98-5.74,31.52s-3.25,21.03-4.59,31.58-2.51,21.21-3.48,31.84-1.75,21.29-2.34,31.95-.99,21.26-1.2,31.89-.23,21.36-.06,32.03.54,21.27,1.09,31.9c.14,2.61.28,5.21.44,7.82,0-.01.74-.4.64-.35.51-.29,1.02-.58,1.53-.88s1.02-.59,1.53-.89c.09-.05.62-.3.63-.38.48-12.32.96-24.64,1.44-36.96.48-12.24.95-24.47,1.43-36.71s.96-24.64,1.44-36.96c.48-12.24.95-24.47,1.43-36.71.48-12.32.96-24.64,1.44-36.96.48-12.24.95-24.47,1.43-36.71.48-12.32.96-24.64,1.44-36.96s.95-24.47,1.43-36.71.96-24.56,1.43-36.84.96-24.56,1.43-36.84l.35-8.99-4.33,2.5c4.37,7.45,8.66,14.96,12.85,22.51s8.33,15.23,12.35,22.92,7.91,15.36,11.73,23.12,7.57,15.62,11.21,23.5c3.63,7.84,7.15,15.73,10.59,23.66s6.77,15.9,10.01,23.91,6.38,16.06,9.42,24.15,6.01,16.28,8.87,24.48,5.59,16.35,8.23,24.58,5.21,16.56,7.66,24.89c2.26,7.66,4.54,15.33,6.45,23.09,1.58,6.43,2.83,12.94,3.57,19.52.73,6.46.96,13.01.34,19.49-.59,6.07-1.96,12.12-4.57,17.66s-6.3,10.18-11.07,13.8c-.7.53-1.43,1.05-2.17,1.53-.17.11-.33.21-.5.32-1.41.88,2.82-1.59,2.2-1.26-.42.22-.84.45-1.27.66-1.65.81-3.36,1.48-5.1,2.04-3.51,1.12-7.16,1.75-10.83,1.99-7.59.51-15.22-.54-22.6-2.25-7.65-1.77-15.11-4.3-22.5-6.96s-15.34-5.8-22.86-9.07-14.87-6.74-22.14-10.47-14.41-7.68-21.43-11.86c-7.04-4.2-13.95-8.62-20.72-13.26s-13.31-9.45-19.74-14.5c-3.21-2.52-6.38-5.09-9.51-7.72-2.94-2.47-5.88-4.94-8.63-7.63-5.33-5.2-10.14-11.06-13.73-17.59-3.22-5.85-5.58-12.56-5.03-19.33.55-6.7,4.22-12.71,9.69-16.57.36-.26.73-.5,1.11-.74.08-.05.15-.09.23-.14.94-.58,2.46-1.17-2.72,1.57.19-.1.38-.2.57-.3.78-.4,1.57-.77,2.37-1.1,1.58-.66,3.21-1.22,4.85-1.7,3.41-.99,6.92-1.63,10.43-2.12,7.79-1.09,15.66-1.76,23.51-2.31,8.04-.56,16.1-.9,24.15-1.01s16.19,0,24.28.32,16.1.87,24.12,1.63c8.03.76,16.03,1.74,24,2.92,8.01,1.19,15.99,2.6,23.92,4.22s15.76,3.44,23.56,5.47,15.55,4.27,23.23,6.71,15.37,5.11,22.94,7.98c7.54,2.85,15,5.91,22.38,9.16s14.66,6.71,21.85,10.36,14.33,7.53,21.34,11.59c6.73,3.9,13.35,7.98,19.86,12.24.04.02.72-.39.64-.35.51-.29,1.02-.58,1.53-.88s1.02-.59,1.53-.89c.07-.04.59-.4.63-.38-6.84-4.47-13.8-8.75-20.88-12.82-7.05-4.06-14.2-7.92-21.47-11.58s-14.69-7.15-22.17-10.42-14.99-6.31-22.61-9.15c-7.62-2.85-15.31-5.49-23.07-7.92-7.8-2.44-15.66-4.67-23.57-6.69s-15.82-3.81-23.79-5.39-16.07-2.97-24.15-4.12c-8.05-1.15-16.13-2.09-24.23-2.8-8.1-.71-16.22-1.21-24.35-1.48s-16.33-.32-24.5-.14c-8.13.18-16.25.58-24.36,1.21-4.09.32-8.18.69-12.25,1.13-3.7.39-7.4.8-11.06,1.44s-6.94,1.41-10.26,2.63c-1.59.58-3.14,1.26-4.63,2.06-2.35,1.25-4.72,2.57-6.92,4.07-5.61,3.83-9.43,9.84-10.04,16.65s1.77,13.59,5.01,19.49c3.63,6.59,8.49,12.5,13.87,17.73,2.79,2.71,5.77,5.21,8.74,7.7,3.16,2.64,6.36,5.24,9.6,7.78,6.48,5.08,13.13,9.95,19.93,14.6s13.81,9.12,20.92,13.34,14.3,8.17,21.65,11.91,14.87,7.27,22.47,10.53,15.24,6.26,23,9.02,15.01,5.16,22.77,6.83c7.44,1.6,15.14,2.5,22.75,1.72,3.65-.38,7.26-1.15,10.7-2.43,1.69-.63,3.34-1.38,4.92-2.24,2.47-1.34,4.95-2.72,7.28-4.31,5.03-3.43,9.11-8.07,11.92-13.47s4.38-11.42,5.11-17.47c.79-6.52.65-13.13,0-19.66s-1.88-13.25-3.43-19.75c-1.85-7.74-4.13-15.39-6.37-23.03-2.45-8.37-5.01-16.7-7.66-25s-5.44-16.65-8.32-24.92-5.83-16.43-8.89-24.6c-3.08-8.2-6.26-16.36-9.53-24.48-3.26-8.08-6.63-16.13-10.09-24.13s-7.02-15.96-10.68-23.87-7.44-15.85-11.31-23.71-7.8-15.59-11.84-23.32-8.22-15.46-12.47-23.12-8.26-14.66-12.52-21.91c-.02-.03-2.02,1.13-2.18,1.23-.51.29-1.02.59-1.53.89-.09.05-.62.3-.63.38-.48,12.32-.96,24.64-1.44,36.96-.48,12.24-.95,24.47-1.43,36.71-.48,12.32-.96,24.64-1.44,36.96-.48,12.24-.95,24.47-1.43,36.71-.48,12.32-.96,24.64-1.44,36.96-.48,12.24-.95,24.47-1.43,36.71s-.96,24.64-1.44,36.96c-.48,12.24-.95,24.47-1.43,36.71s-.96,24.56-1.43,36.84c-.48,12.28-.96,24.56-1.43,36.84l-.35,8.99,4.33-2.5c-.65-10.66-1.11-21.33-1.38-32s-.34-21.35-.22-32.03.43-21.27.92-31.9c.5-10.67,1.19-21.32,2.07-31.97s1.94-21.19,3.19-31.75,2.7-21.19,4.34-31.74,3.46-21.08,5.47-31.56,4.19-20.86,6.56-31.23,4.95-20.78,7.71-31.09,5.67-20.51,8.79-30.68c.76-2.5,1.54-4.99,2.32-7.48-.02.05-.7.38-.64.35-.51.29-1.02.58-1.53.88s-1.02.59-1.53.89c-.12.07-.59.26-.63.38h0Z"/><path class="cls-1" d="M821.89,63.97c3.24,8.88,6.47,17.77,9.71,26.65s6.47,17.77,9.71,26.65,6.47,17.77,9.71,26.65,6.47,17.77,9.71,26.65,6.47,17.77,9.71,26.65,6.47,17.77,9.71,26.65c3.24,8.88,6.47,17.77,9.71,26.65s6.47,17.77,9.71,26.65,6.5,17.84,9.75,26.77l9.66,26.53c.8,2.19,1.6,4.38,2.39,6.57l4.33-2.5c-4.47-9.86-8.94-19.73-13.4-29.59s-8.94-19.73-13.4-29.59-8.9-19.65-13.35-29.48-8.94-19.73-13.4-29.59-8.9-19.65-13.35-29.48-8.94-19.73-13.4-29.59-8.94-19.73-13.4-29.59c-4.25-9.37-8.6-18.71-12.72-28.14-3.1-7.12-5.89-14.39-8.16-21.82s-4.05-15.03-4.89-22.75c-.79-7.15-.78-14.46.7-21.52s4.22-13.13,8.6-18.45c2.35-2.86,5.11-5.4,8.14-7.52.4-.28.8-.55,1.21-.81.2-.13.41-.26.61-.39,1.14-.71-3.51,1.97-2.07,1.2.89-.48,1.79-.91,2.71-1.32,1.75-.76,3.55-1.4,5.38-1.91,7.51-2.1,15.46-2.07,23.1-.8,8.25,1.36,16.24,4.11,23.83,7.59s14.83,7.77,21.72,12.53,13.52,9.78,19.97,15.07,12.67,10.83,18.67,16.62c6,5.78,11.77,11.81,17.3,18.04,5.51,6.21,10.79,12.64,15.81,19.25,5.04,6.64,9.84,13.48,14.36,20.49s8.76,14.13,12.74,21.43,7.71,14.8,11.15,22.41,6.58,15.34,9.43,23.18,5.38,15.72,7.62,23.72,4.18,16.14,5.8,24.32c1.61,8.14,2.9,16.35,3.87,24.6s1.6,16.6,1.89,24.94c.26,7.56.27,15.12-.28,22.67s-1.49,14.45-2.92,21.57-3.31,14.08-5.73,20.89c-2.36,6.64-5.23,13.11-8.73,19.22s-7.25,11.35-11.82,16.27c-2.23,2.4-4.62,4.66-7.16,6.73-1.26,1.03-2.56,2.01-3.89,2.94-.69.48-1.4.95-2.11,1.41-.3.19-.61.38-.91.57-.06.04-.43.26-.37.22.51-.31,1.03-.6,1.55-.9-.67.38,1.06-.59.45-.26-5.94,3.25-12.41,5.48-19.08,6.59-8.39,1.4-17,.91-25.25-1.07-8.4-2.02-16.4-5.55-23.75-10.08-7.4-4.56-14.18-10.15-20.13-16.49-6.34-6.75-11.82-14.29-16.65-22.17-4.9-7.98-9.14-16.35-13.05-24.85s-7.24-16.55-10.69-24.9c0,.02-2.01,1.13-2.18,1.23s-2.19,1.19-2.15,1.27c3.62,8.75,7.25,17.49,11.24,26.08s8.29,16.95,13.3,24.95,10.5,15.38,16.97,22.05c6.13,6.32,13.08,11.86,20.67,16.32s15.62,7.76,24.12,9.54,16.97,1.93,25.32.24c3.34-.68,6.63-1.63,9.82-2.86,3.44-1.33,6.68-3.01,9.87-4.84,3.46-1.99,6.86-4.04,10.01-6.5,2.6-2.02,5.05-4.24,7.34-6.6,4.71-4.87,8.75-10.37,12.19-16.21s6.56-12.57,8.99-19.23,4.46-13.92,5.95-21.07,2.5-14.43,3.06-21.73c.59-7.57.61-15.15.36-22.73-.27-8.37-.89-16.72-1.84-25.04s-2.25-16.65-3.87-24.89c-1.62-8.24-3.57-16.42-5.82-24.51s-4.83-16.1-7.71-24c-2.88-7.9-6.05-15.69-9.52-23.35s-7.22-15.19-11.26-22.57c-4.04-7.38-8.35-14.6-12.93-21.65s-9.43-13.92-14.53-20.61c-5.1-6.68-10.46-13.16-16.06-19.42s-11.44-12.3-17.51-18.11-12.33-11.32-18.82-16.59-13.27-10.33-20.21-15.08-14.4-9-22.17-12.39-15.75-5.95-24.07-7.06c-7.73-1.03-15.74-.73-23.17,1.79-1.81.62-3.58,1.36-5.29,2.22-2.63,1.33-5.21,2.83-7.68,4.42-3.17,2.04-6.06,4.51-8.56,7.33-4.61,5.21-7.68,11.57-9.26,18.32s-1.8,14.44-1.09,21.64c.76,7.77,2.48,15.44,4.72,22.91s5.05,14.92,8.17,22.14c4.08,9.43,8.45,18.74,12.69,28.1,4.5,9.94,9,19.88,13.51,29.82s9,19.88,13.51,29.82,9,19.88,13.51,29.82,9,19.88,13.51,29.82,9,19.88,13.51,29.82,9,19.88,13.51,29.82,8.66,19.12,12.99,28.68c0,0,2.02-1.13,2.18-1.23.17-.1,2.19-1.17,2.15-1.27-3.24-8.88-6.47-17.77-9.71-26.65s-6.47-17.77-9.71-26.65-6.47-17.77-9.71-26.65-6.47-17.77-9.71-26.65-6.47-17.77-9.71-26.65c-3.24-8.88-6.47-17.77-9.71-26.65-3.24-8.88-6.47-17.77-9.71-26.65-3.24-8.88-6.47-17.77-9.71-26.65l-9.75-26.77c-3.22-8.84-6.44-17.69-9.66-26.53-.8-2.19-1.6-4.38-2.39-6.57.01.03-2.01,1.13-2.18,1.23s-2.19,1.17-2.15,1.27h0Z"/><path class="cls-1" d="M1296.7,76.02c5.32-5.67,8.37-13.01,8.99-20.73s-1.1-15.76-4.35-22.88-8.33-13.94-14.6-18.99c-3.09-2.49-6.49-4.6-10.13-6.19-4.01-1.74-8.27-2.76-12.62-3.23-9.75-1.06-19.62.76-28.59,4.63-2.28.98-4.5,2.1-6.67,3.31-3.04,1.7-6.07,3.43-8.96,5.37-4.14,2.78-7.99,5.96-11.53,9.47-7.18,7.13-13.05,15.63-17.03,24.94-4.72,11.02-7.23,22.88-8.09,34.81s-.09,24.28,1.64,36.28c1.69,11.71,4.26,23.28,7.32,34.7s6.45,22,10.44,32.74c3.99,10.74,8.48,21.3,13.45,31.63,4.97,10.33,10.42,20.42,16.32,30.25,5.9,9.82,12.26,19.37,19.06,28.6,6.81,9.26,14.06,18.2,21.72,26.77,7.42,8.3,15.27,16.27,23.99,23.22s17.88,12.6,28.16,16.24c9.36,3.32,19.34,4.8,29.19,3.19,4.51-.74,8.92-2.04,13.12-3.84,2.15-.92,4.22-1.99,6.26-3.14,2.78-1.57,5.56-3.15,8.16-4.99,7.07-5,13.02-11.86,15.96-20.09,1.42-3.97,2.08-8.18,1.97-12.39,0,.02-.73.4-.64.35-.51.29-1.02.58-1.53.88s-1.02.59-1.53.89c-.08.05-.63.31-.63.38.24,8.63-2.93,16.89-8.33,23.57-2.74,3.39-5.98,6.35-9.53,8.86-.94.67-1.91,1.31-2.89,1.91-1.16.71.34-.24,1.92-1.1-.06.03-.34.19-.49.27-.54.29-1.08.57-1.63.84-2.03,1.01-4.12,1.88-6.26,2.64-8.72,3.07-17.98,3.9-27.09,2.35-10.52-1.8-20.44-6.14-29.42-11.84-9.2-5.84-17.48-13.05-25.13-20.77-7.87-7.93-15.2-16.42-22.17-25.14s-13.72-18.01-19.94-27.47c-6.22-9.46-12-19.2-17.33-29.19-5.31-9.96-10.17-20.16-14.55-30.56-4.38-10.4-8.29-21-11.69-31.76-3.43-10.83-6.36-21.82-8.75-32.92-2.52-11.71-4.36-23.6-4.97-35.58-.6-11.81.03-23.74,2.58-35.31,2.34-10.65,6.29-20.99,12.34-30.1,5.51-8.3,12.57-15.6,20.74-21.3,1.06-.74,2.14-1.45,3.23-2.13.21-.13.43-.26.65-.4.68-.41-.93.54-.34.2-.41.24-.92.54-1.34.77.54-.29,1.08-.59,1.63-.87,2.2-1.14,4.47-2.16,6.79-3.05,4.47-1.71,9.14-2.91,13.89-3.5,8.86-1.09,18.18-.1,26.27,3.8,7.15,3.45,13.26,8.88,17.9,15.3s7.86,13.76,9.19,21.5c1.27,7.39.72,15.17-2.33,22.08-1.5,3.41-3.59,6.53-6.14,9.24.11-.12.55-.3.64-.35.51-.29,1.02-.58,1.53-.88s1.02-.59,1.53-.89c.19-.11.48-.22.63-.38h0Z"/><path class="cls-1" d="M1402.66,44.09c-1.32,9.9-2.25,19.84-2.79,29.81-.54,9.97-.7,19.95-.47,29.93.23,9.98.83,19.95,1.81,29.88s2.33,19.84,4.05,29.67c1.71,9.8,3.79,19.54,6.22,29.19s5.24,19.28,8.4,28.75,6.63,18.77,10.46,27.95,8.04,18.28,12.56,27.18c4.53,8.89,9.39,17.62,14.59,26.14s10.72,16.85,16.57,24.94c1.42,1.97,2.86,3.92,4.32,5.86.04.06,2.01-1.13,2.18-1.23.51-.29,1.02-.59,1.53-.89.15-.09.54-.23.63-.38,3.97-6.89,7.64-13.96,10.98-21.17s6.37-14.57,9.07-22.04,5.07-15,7.13-22.64c2.07-7.68,3.81-15.45,5.23-23.27s2.51-15.71,3.28-23.63,1.2-15.87,1.31-23.82-.11-15.91-.67-23.85-1.43-15.77-2.65-23.59-2.77-15.66-4.66-23.38-4.12-15.36-6.68-22.89c-.63-1.84-1.28-3.68-1.94-5.5.01.03-2.01,1.13-2.18,1.23-.51.29-1.02.59-1.53.89-.1.06-.61.29-.63.38-2.02,15.39-3.43,30.85-4.22,46.35-.79,15.42-.97,30.86-.53,46.29.22,7.71.59,15.43,1.11,23.13.44,6.55.94,13.11,1.84,19.61,1.6,11.64,4.48,23.58,11.22,33.4,5.78,8.42,14.31,14.59,24.36,16.71,9.28,1.96,19.01.54,27.79-2.84,5.61-2.16,10.92-5.17,15.98-8.4,4.24-2.7,8.19-5.86,11.74-9.42s6.8-7.6,9.45-11.94c2.96-4.86,5.09-10.12,6.7-15.57,3.96-13.4,4.5-27.55,3.21-41.4s-4.51-28.27-8.08-42.1c-.87-3.37-1.77-6.73-2.67-10.09.02.06-2,1.13-2.18,1.23-.51.29-1.02.59-1.53.89-.11.07-.6.27-.63.38-2.1,8.55-3.15,17.35-3.19,26.16s.93,17.62,2.84,26.22c1.91,8.6,4.76,17,8.5,24.99s8.31,15.48,13.73,22.38c2.72,3.47,5.64,6.77,8.75,9.89,3.35,3.35,6.91,6.52,10.85,9.16s8.18,4.69,12.77,5.71c3.91.87,7.98.96,11.94.33s7.74-1.95,11.29-3.76c2.72-1.39,5.39-2.94,7.96-4.58,1.72-1.1,3.38-2.32,4.95-3.63,6.48-5.4,11.67-12.42,14.91-20.2,3.91-9.37,5.04-19.82,4.81-29.89-.25-10.78-2.08-21.45-4.21-31.99-.52-2.56-1.06-5.11-1.6-7.66.02.09-2,1.12-2.18,1.23-.51.29-1.02.59-1.53.89-.08.05-.63.32-.63.38.72,8.2,1.94,16.36,3.65,24.41s3.9,16,6.56,23.79,5.78,15.43,9.34,22.85,7.56,14.64,11.98,21.58,9.25,13.63,14.48,19.99c.65.78,1.3,1.56,1.95,2.34.06.07,2-1.13,2.18-1.23.51-.29,1.02-.59,1.53-.89.16-.09.53-.23.63-.38,3.9-6.07,7.8-12.14,11.7-18.21-.06.09-.63.34-.64.35-.51.29-1.02.58-1.53.88s-1.02.59-1.53.89c-.16.09-.53.23-.63.38-3.9,6.07-7.8,12.14-11.7,18.21l4.33-2.5c-5.32-6.28-10.26-12.89-14.78-19.77s-8.63-14.03-12.29-21.4-6.9-14.96-9.67-22.71c-2.77-7.75-5.08-15.67-6.91-23.7s-3.17-16.16-4.01-24.35c-.1-1.01-.2-2.02-.29-3.03l-4.33,2.5c2.21,10.39,4.36,20.83,5.33,31.42s.71,20.85-1.93,30.92c-2.18,8.31-6.26,15.95-12.03,22.33-2.79,3.08-5.94,5.86-9.4,8.16-.4.26-.8.52-1.21.78-.08.05-.16.1-.24.15l-.08.05c-.9.54-.09.08,2.43-1.4-.21.12-.42.23-.64.34-.91.48-1.84.93-2.78,1.34-1.81.79-3.68,1.44-5.6,1.94-3.77.98-7.7,1.34-11.58.95-4.39-.44-8.62-1.86-12.5-3.94-4.19-2.24-7.98-5.18-11.48-8.37-3.24-2.96-6.29-6.15-9.14-9.49-5.61-6.58-10.44-13.81-14.43-21.47s-7.17-15.85-9.42-24.24-3.6-16.95-3.99-25.59c-.4-8.63.17-17.31,1.74-25.81.38-2.07.83-4.13,1.33-6.18l-4.33,2.5c3.68,13.66,7.25,27.4,9.41,41.4s2.87,27.71.6,41.41c-1.08,6.54-2.82,13.06-5.44,19.16-1.95,4.54-4.51,8.81-7.53,12.72-3.05,3.96-6.56,7.56-10.41,10.75-1.96,1.62-4.01,3.14-6.14,4.54-.49.32-.99.64-1.49.95-.2.12-.4.25-.61.37l.06-.04c-.61.36-.18.11,1.28-.74.59-.34.76-.43.33-.19-1.06.58-2.14,1.13-3.23,1.65-8.5,4.05-18.05,6.33-27.49,5.48-4.54-.41-9-1.56-13.13-3.5-4.55-2.14-8.61-5.21-12.02-8.9-7.91-8.57-11.85-19.95-14.04-31.22-1.13-5.83-1.82-11.73-2.32-17.64-.64-7.47-1.11-14.96-1.45-22.45-.69-15.26-.77-30.54-.26-45.8.51-15.26,1.62-30.51,3.32-45.68.41-3.67.86-7.34,1.34-11l-4.33,2.5c2.73,7.47,5.13,15.06,7.18,22.74s3.77,15.45,5.15,23.27,2.42,15.65,3.13,23.53,1.1,15.87,1.15,23.82-.22,15.91-.83,23.85-1.54,15.84-2.8,23.7-2.84,15.65-4.75,23.38c-1.9,7.68-4.12,15.29-6.66,22.79s-5.42,14.95-8.61,22.23-6.7,14.43-10.52,21.4c-.93,1.71-1.89,3.4-2.86,5.09l4.33-2.5c-6-7.98-11.69-16.2-17.04-24.62-5.35-8.42-10.38-17.05-15.07-25.86s-9.05-17.8-13.06-26.94c-4.01-9.14-7.68-18.43-11-27.85-3.31-9.39-6.27-18.89-8.88-28.5-2.62-9.64-4.87-19.37-6.77-29.18s-3.41-19.61-4.57-29.49-1.95-19.87-2.36-29.85-.44-19.96-.09-29.94,1.09-19.94,2.23-29.86c.28-2.41.57-4.82.9-7.23,0,.03-.72.39-.64.35-.51.29-1.02.58-1.53.88s-1.02.59-1.53.89c-.1.06-.61.29-.63.38h0Z"/><path class="cls-1" d="M1731.35,43.8c-2.02,11.1-3.4,22.32-4.16,33.57s-.88,22.56-.38,33.83c.49,11.24,1.61,22.44,3.33,33.56s4.06,22.13,6.99,32.99,6.5,21.62,10.65,32.11c.51,1.3,1.04,2.59,1.57,3.88,0-.02,2.01-1.13,2.18-1.23.19-.11,2.19-1.12,2.15-1.27-2.41-9.26-4.79-18.54-6.37-27.98-1.56-9.27-2.34-18.73-1.47-28.11.73-7.87,2.66-15.52,6.22-22.6,3.19-6.35,7.52-12.18,12.87-16.88,1.32-1.16,2.7-2.25,4.15-3.26.72-.5,1.45-.97,2.19-1.43-.68.43-1.67,1-2.39,1.38.18-.1.36-.19.54-.29.39-.21.79-.41,1.19-.6,3.09-1.49,6.38-2.58,9.76-3.16,7.39-1.28,14.96-.02,21.79,2.99,7.17,3.16,13.47,8.04,19.04,13.49s10.93,12.01,15.68,18.57c4.94,6.82,9.4,13.99,13.24,21.48s7.01,15.21,9.38,23.22c2.35,7.93,3.9,16.1,4.44,24.35.5,7.52.14,15.06-1.2,22.48s-3.39,13.99-6.3,20.55-6.57,12.73-11.02,18.33-9.49,10.42-15.26,14.44c-.75.52-1.52,1.03-2.29,1.53-.33.21-.66.42-.99.62-.17.1-.31.22-.07.04-.46.33,1.16-.69,1.73-1-.12.07-.24.13-.36.2-1.56.85-3.16,1.63-4.79,2.35-2.95,1.29-6,2.33-9.13,3.09-6.15,1.5-12.55,1.96-18.86,1.48-6.34-.48-12.62-1.9-18.55-4.2s-11.36-5.4-16.2-9.38-8.84-8.61-11.85-13.98c-1.48-2.64-2.7-5.42-3.63-8.29.01.05-2.01,1.13-2.18,1.23s-2.19,1.15-2.15,1.27c1.96,6.02,5.17,11.57,9.34,16.33s9.21,8.69,14.73,11.75,11.75,5.35,18.06,6.64,12.89,1.65,19.33.97,12.94-2.52,18.9-5.39c1.92-.92,3.78-1.96,5.63-3.02,2.12-1.22,4.25-2.44,6.29-3.79,2.96-1.96,5.77-4.15,8.4-6.54,5.34-4.85,9.93-10.5,13.72-16.63s6.88-12.93,9.08-19.9c2.2-6.99,3.57-14.25,4.03-21.56.51-8.18-.12-16.43-1.6-24.48s-4.02-16.46-7.23-24.29-7.22-15.5-11.75-22.74-9.57-14.13-15.1-20.61c-5.23-6.13-11.04-11.89-17.74-16.42s-13.86-7.54-21.71-8.11c-7.11-.52-14.11,1.23-20.34,4.64-3.96,2.16-7.87,4.44-11.33,7.33-2.76,2.31-5.27,4.92-7.5,7.75-4.52,5.74-7.96,12.35-10.07,19.35-2.61,8.67-3.17,17.93-2.66,26.93.55,9.69,2.38,19.25,4.6,28.68,1.08,4.57,2.25,9.12,3.43,13.67l4.33-2.5c-4.3-10.43-8-21.11-11.1-31.96s-5.59-21.87-7.46-33c-1.87-11.09-3.13-22.28-3.78-33.51s-.67-22.49-.07-33.72c.6-11.27,1.83-22.5,3.69-33.63.23-1.38.47-2.75.72-4.13,0,.03-.72.39-.64.35-.51.29-1.02.58-1.53.88s-1.02.59-1.53.89c-.1.06-.61.28-.63.38h0Z"/></svg>