<svg preserveAspectRatio="xMidYMid meet" width="100%" height="100%" overflow="visible" style="display: block;" viewBox="0 0 98.2438 110.389" fill="none" xmlns="http://www.w3.org/2000/svg">
<path id="Vector" d="M18.3908 2.54697C18.3544 9.58174 18.3222 16.6165 18.2858 23.6574L18.1809 44.6148C18.1446 51.6496 18.1123 58.6843 18.076 65.7252C18.0397 72.7661 18.0074 79.7458 17.9711 86.7561C17.9348 93.7664 17.9025 100.777 17.8662 107.787L17.854 110.389L18.9033 109.471C16.3529 104.456 13.8065 99.4358 11.2561 94.4215C9.98496 91.9235 8.71784 89.4255 7.44668 86.9275C6.17552 84.4295 4.93261 82.0601 3.72198 79.5744C2.6768 77.4315 1.67198 75.1049 1.2523 72.4784C0.877005 70.1151 1.09895 67.66 1.98271 65.6212C2.38222 64.6967 2.89068 63.8885 3.45564 63.2028C3.60495 63.0191 3.7583 62.8477 3.91568 62.6824C4.00042 62.5966 4.08517 62.5109 4.16991 62.4252C4.21027 62.3823 4.25466 62.3456 4.29905 62.3027C4.55731 62.0517 3.45161 63.013 3.81883 62.7252C4.18605 62.4374 4.52907 62.1987 4.89629 61.9844C6.58713 61.0048 8.41115 60.7966 10.2069 60.8211C12.2085 60.8456 14.206 61.164 16.2076 61.115C17.7935 61.0721 19.3754 60.8089 20.9331 60.3435C24.0847 59.3946 27.0589 57.5823 29.8433 55.17C31.3001 53.9027 32.7165 52.5496 34.0361 50.97C35.2831 49.4822 36.4453 47.8352 37.5066 46.0413C39.7018 42.3372 41.425 38.027 42.5872 33.3677C43.7494 28.7085 44.3789 23.5288 44.3991 18.4471C44.4193 13.3655 43.8543 8.23479 42.684 3.4531C42.3975 2.2837 42.0747 1.13267 41.7155 0.00612383C41.7155 0.00612383 41.2272 0.422454 41.1869 0.459189C41.0618 0.569394 40.9407 0.673476 40.8156 0.783682C40.7954 0.802049 40.6663 0.893889 40.6623 0.924502C40.6461 6.28171 40.626 11.6328 40.6098 16.99C40.5937 22.3472 40.5735 27.6493 40.5574 32.9759C40.5412 38.3025 40.521 43.6842 40.5049 49.0414C40.4888 54.3986 40.4686 59.7007 40.4524 65.0273C40.4363 70.3539 40.4161 75.7356 40.4 81.0928C40.4 81.754 40.3959 82.4213 40.3919 83.0826C40.3919 83.0152 40.864 82.6785 40.9205 82.6295C41.0456 82.5193 41.1667 82.4152 41.2918 82.305C41.3201 82.2805 41.4371 82.2071 41.4451 82.1642C42.3975 76.7886 43.3499 71.4069 44.2982 66.0314C45.2506 60.6558 46.2029 55.2741 47.1512 49.8985C47.692 46.8556 48.2287 43.8066 48.7694 40.7637L47.7202 41.6821C48.374 46.8128 49.0317 51.9373 49.6855 57.068C50.3392 62.1987 50.997 67.3232 51.6507 72.4539C52.3045 77.5846 52.9098 82.6356 53.5999 87.699C53.8299 89.3888 54.1487 91.0847 54.6773 92.6215C55.1575 94.0235 55.8597 95.3521 56.8605 95.9276C57.377 96.2215 57.946 96.3133 58.4868 96.1725C59.1687 96.0011 59.7458 95.4562 60.3309 94.9358C60.8798 94.4521 61.3802 93.9378 61.8241 93.246C62.268 92.5541 62.6311 91.7949 62.962 90.9929C63.7247 89.1377 64.2857 87.0806 64.8304 85.0663C65.4237 82.8805 65.9442 80.6458 66.4002 78.3805C67.3163 73.807 67.9539 69.111 68.2928 64.3599C68.4623 62.0089 68.5592 59.6456 68.5834 57.2762C68.6036 55.17 68.6036 53.0455 68.4341 50.9516C68.1718 47.7801 67.5221 44.1372 65.803 42.0433C64.9515 41.0086 63.8539 40.4943 62.7643 40.6596C62.2034 40.7454 61.6667 41.0086 61.1663 41.3943C60.5206 41.8903 59.8669 42.4474 59.2817 43.1087C57.2721 45.3862 56.1624 49.0475 55.4884 52.6108C54.8145 56.1741 54.5724 59.6088 54.6531 63.166C54.7338 66.7232 55.1616 70.2498 55.892 73.6233C56.6224 76.9968 57.6635 80.2295 58.9831 83.1744C60.3027 86.1194 61.8846 88.752 63.7126 90.9561C65.5407 93.1602 67.6351 94.9297 69.8586 96.1113C72.0619 97.2807 74.3863 97.9052 76.7188 98.0093C79.0513 98.1134 81.416 97.7154 83.684 96.8338C85.9519 95.9521 88.1673 94.5501 90.2254 92.7623C92.2835 90.9745 94.3536 88.8133 96.0687 86.1255C96.8637 84.8826 97.59 83.5418 98.2438 82.1152C98.2276 82.152 98.0945 82.2377 98.0864 82.2438C97.9613 82.3479 97.8402 82.4581 97.7151 82.5683C97.59 82.6785 97.469 82.7826 97.3439 82.8928C97.3035 82.9295 97.2188 82.9785 97.1905 83.0336C95.8871 85.8744 94.281 88.3786 92.461 90.4725C91.9969 91.0112 91.5167 91.5194 91.0244 91.997C90.8226 92.1929 90.5603 92.4317 90.3908 92.597C90.9598 92.0521 90.5321 92.4684 90.3908 92.5847C90.2496 92.7011 90.1084 92.8113 89.9671 92.9215C88.9341 93.7235 87.8647 94.4092 86.7711 94.9848C82.4814 97.2378 77.7721 97.7583 73.3331 96.2399C68.8659 94.7092 64.8668 91.0296 61.8483 85.8193C58.8298 80.6091 56.8403 74.1437 56.0534 67.3538C55.6579 63.9497 55.5732 60.4599 55.8355 57.0251C56.0978 53.5904 56.6708 50.0087 57.7604 46.9352C58.3334 45.3189 59.0679 43.7882 59.992 42.5944C60.222 42.3005 60.4641 42.0372 60.7103 41.7862C59.7014 42.8087 59.9032 42.4719 60.1816 42.2637C60.2583 42.2086 60.3309 42.1535 60.4076 42.1046C60.5529 42.0127 60.7022 41.927 60.8515 41.8535C61.3963 41.5903 61.9693 41.4984 62.5383 41.5841C64.7376 41.927 66.0895 44.7617 66.7594 47.7128C67.5786 51.3067 67.5786 55.2068 67.518 58.966C67.4414 63.6007 67.0822 68.2293 66.4527 72.7723C65.8232 77.3152 64.9192 81.7662 63.757 86.052C63.2364 87.9745 62.6957 89.9398 61.9814 91.7215C61.6626 92.5174 61.3035 93.2827 60.8878 93.9684C60.6941 94.2868 60.4924 94.5868 60.2704 94.8623C60.1534 95.0092 60.0283 95.1501 59.9032 95.2786C59.6086 95.5786 59.3907 95.5174 60.5085 94.7582C60.4157 94.8256 60.3229 94.8929 60.226 94.9541C59.2252 95.5725 58.0792 95.3827 57.1954 94.4399C56.3117 93.497 55.7749 92.0582 55.3795 90.601C54.9235 88.9112 54.6814 87.1296 54.4554 85.3418C54.1406 82.8928 53.8299 80.4377 53.5151 77.9886C52.2359 67.9783 50.9566 57.9741 49.6815 47.9638C49.3748 45.5638 49.0681 43.1576 48.7614 40.7576C48.7654 40.7943 48.2771 41.1678 48.2327 41.2107C48.1076 41.3209 47.9866 41.425 47.8615 41.5352C47.8332 41.5597 47.7162 41.6331 47.7081 41.676C46.7558 47.0516 45.8034 52.4332 44.8551 57.8088C43.9068 63.1844 42.9504 68.5661 42.002 73.9417C41.4613 76.9846 40.9246 80.0336 40.3838 83.0765L41.433 82.1581C41.4492 76.8009 41.4694 71.4498 41.4855 66.0926C41.5016 60.7354 41.5218 55.4333 41.538 50.1067C41.5541 44.7801 41.5743 39.3984 41.5904 34.0412C41.6066 28.684 41.6267 23.3819 41.6429 18.0553C41.659 12.7287 41.6792 7.34702 41.6953 1.98982C41.6953 1.32859 41.6994 0.661232 41.7034 0L40.6542 0.918378C42.107 5.50414 42.9746 10.4879 43.2409 15.5573C43.5073 20.6268 43.1925 25.7636 42.3007 30.6616C41.4088 35.5596 39.9601 40.0964 37.9747 44.125C35.9893 48.1536 33.6891 51.3496 31.0257 54.0129C30.6907 54.3435 30.3518 54.668 30.0128 54.9802C29.811 55.1639 30.3477 54.6986 30.146 54.8639C30.0531 54.9435 29.9563 55.0231 29.8635 55.1027C29.6819 55.2496 29.5003 55.3966 29.3187 55.5374C28.5963 56.1006 27.8579 56.6149 27.1032 57.0802C25.6343 57.9925 24.117 58.715 22.5674 59.2354C21.0178 59.7558 19.44 60.0742 17.854 60.1721C15.9211 60.2884 13.9962 60.0191 12.0672 59.9272C10.1383 59.8354 8.30219 59.9027 6.5145 60.7538C5.80426 61.0905 5.13034 61.5558 4.48064 62.1068C3.72198 62.7558 2.95121 63.4048 2.2773 64.2497C1.15545 65.664 0.303974 67.5742 0.0699195 69.7845C-0.21256 72.4233 0.396789 75.0253 1.2523 77.2907C2.18852 79.7825 3.41529 82.0111 4.56538 84.2765C5.83654 86.7745 7.10367 89.2724 8.37483 91.7704C10.9131 96.7664 13.4514 101.762 15.9937 106.758L17.8379 110.383C17.8379 110.383 18.8871 109.575 18.8871 109.465C18.9234 102.43 18.9557 95.395 18.992 88.3541L19.097 67.3967C19.1333 60.3619 19.1656 53.3271 19.2019 46.2862C19.2382 39.2453 19.2705 32.2657 19.3068 25.2554L19.4117 4.22454L19.4238 1.62247C19.4238 1.68982 18.9517 2.02655 18.8952 2.07553C18.7701 2.18574 18.649 2.28982 18.5239 2.40003C18.5037 2.41839 18.3746 2.51023 18.3706 2.54085L18.3908 2.54697Z" fill="var(--fill-0, white)"/>
</svg>
