<svg preserveAspectRatio="xMidYMid meet" width="100%" height="100%" overflow="visible" style="display: block;" viewBox="0 0 77.1915 114.989" fill="none" xmlns="http://www.w3.org/2000/svg">
<path id="Vector" d="M3.57263 11.5884C3.39138 7.73385 3.20612 3.87928 3.02487 0.0247082C3.02487 0.080303 2.54961 0.43858 2.49725 0.481821C2.37239 0.59301 2.25157 0.698023 2.12671 0.809213C2.10254 0.827744 1.97768 0.914225 1.97366 0.951288C1.41381 8.33304 0.974781 15.7333 0.652567 23.1521C0.330354 30.571 0.128991 38.0454 0.0444098 45.5012C-0.0401713 52.9324 -0.00393898 60.3636 0.15314 67.7886C0.310219 75.2136 0.584117 82.688 0.974801 90.1192C1.36548 97.5503 1.877 104.92 2.50934 112.283C2.58587 113.185 2.66641 114.087 2.74696 114.989C2.74696 114.945 3.22625 114.575 3.27459 114.531C3.39944 114.42 3.52029 114.315 3.64515 114.204C3.67737 114.173 3.78207 114.111 3.79818 114.062C4.95815 109.516 5.94494 104.864 6.77866 100.151C7.61239 95.4377 8.28905 90.7122 8.85696 85.9372C9.42486 81.1622 9.88804 76.2637 10.2666 71.3961C10.6452 66.5284 10.9513 61.6114 11.2091 56.7129C11.4669 51.8143 11.6844 46.9591 11.8938 42.0729C11.922 41.4552 11.9462 40.8375 11.9744 40.2197L10.9272 41.1463C11.7166 50.3627 12.506 59.5729 13.2954 68.7893C14.0849 78.0057 14.8541 87.185 15.6556 96.3767C15.9174 99.3664 16.3726 102.356 17.1499 105.13C17.8548 107.644 18.8939 110.183 20.5009 111.529C21.2622 112.166 22.1201 112.474 22.986 112.444C24.1138 112.406 25.0603 111.733 26.0189 110.881C26.9774 110.028 27.8394 109.034 28.5724 107.712C29.3054 106.39 29.8814 104.957 30.3929 103.45C30.9729 101.745 31.4602 99.9656 31.9355 98.1928C32.4551 96.2531 32.9424 94.2888 33.3935 92.3059C34.2957 88.3401 35.0569 84.3064 35.6732 80.2171C36.9177 71.9953 37.5823 63.5634 37.6467 55.1253C37.679 50.931 37.5662 46.7305 37.3004 42.5485C37.1916 40.8189 37.1312 38.9967 36.6439 37.3968C36.2572 36.1304 35.496 35.0618 34.5213 35.4509C34.2877 35.5436 34.0863 35.7289 33.8768 35.9081C33.5627 36.1799 33.2364 36.4393 32.9424 36.7543C32.5397 37.1867 32.2456 37.8292 32.0241 38.4901C31.4965 40.0591 31.3031 41.8752 31.0655 43.5863C30.5178 47.5274 30.1432 51.524 29.9418 55.5392C29.535 63.4893 29.7968 71.5134 30.695 79.3585C31.5931 87.2035 33.1519 94.9744 35.3308 102.257C35.8625 104.03 36.4304 105.772 37.0305 107.489C37.0144 107.446 38.0253 106.711 38.0777 106.563C40.4258 99.978 42.1779 92.8989 43.2935 85.5913C44.4092 78.2836 44.8925 70.7475 44.7113 63.2422C44.6106 59.0417 44.3045 54.8597 43.7889 50.7333C43.793 50.7704 43.3056 51.1472 43.2613 51.1905C43.1365 51.3016 43.0156 51.4067 42.8908 51.5178C42.8666 51.5426 42.7418 51.6229 42.7377 51.6599C41.763 61.0801 40.7762 70.6548 41.4126 80.2109C41.9161 87.7471 43.5513 95.2339 46.6566 101.207C48.312 104.395 50.3822 107.063 52.7787 108.842C52.8391 108.886 53.2419 108.447 53.3063 108.385C53.4312 108.274 53.552 108.169 53.6769 108.058C53.701 108.033 53.8219 107.953 53.8299 107.916C54.6959 101.473 55.3685 94.9683 55.8558 88.4328C56.3432 81.8973 56.6332 75.3309 56.7379 68.7522C56.8426 62.1982 56.754 55.6442 56.4801 49.1026C56.2063 42.5609 55.739 35.9945 55.0866 29.4899C54.4341 22.9854 53.5963 16.5796 52.5693 10.2171C52.4404 9.41405 52.3075 8.61102 52.1705 7.80798C52.1746 7.83269 51.6872 8.22803 51.6429 8.26509C51.5865 8.31451 51.1193 8.6419 51.1233 8.73456C51.3811 14.3558 51.6389 19.9771 51.8926 25.5983C52.1464 31.2196 52.4081 36.8408 52.6619 42.4621C52.9197 48.0833 53.1774 53.7046 53.4312 59.3258C53.689 64.9471 53.9467 70.5683 54.2005 76.1896C54.4542 81.8108 54.716 87.4321 54.9698 93.0533L55.0664 95.1351C55.0664 95.0795 55.5417 94.7212 55.594 94.6779C55.6504 94.6285 56.1176 94.3011 56.1136 94.2085C55.7994 85.999 55.6263 77.7771 55.59 69.5491C55.5538 61.3211 55.6545 53.0992 55.8921 44.8835C56.0129 40.8004 56.166 36.7234 56.3512 32.6465C56.4439 30.608 56.5486 28.5695 56.6574 26.5372C56.754 24.752 56.8225 22.9545 56.9916 21.1816C57.2373 18.5934 57.7126 15.9186 58.6551 13.7072C58.8685 13.2069 59.1102 12.7374 59.38 12.3112C59.5089 12.1073 59.6499 11.9158 59.7949 11.7429C59.8634 11.6626 59.9359 11.5822 60.0084 11.5019C60.5441 10.9398 58.9169 12.3791 59.4888 11.9652C60.1977 11.4525 61.0193 11.3475 61.7846 11.6193C63.6413 12.2741 64.7973 15.0168 65.5706 17.4753C66.0539 19.0072 66.4406 20.6133 66.8393 22.1947C67.2944 23.9922 67.7334 25.8022 68.1564 27.6244C69.856 34.9444 71.302 42.4003 72.4861 49.955C73.6702 57.5097 74.5885 65.1633 75.241 72.8662C75.5632 76.6838 75.825 80.5136 76.0103 84.3497C76.1513 87.2468 76.1875 90.1748 75.966 93.0595C75.7445 95.9443 75.2974 98.6684 74.3388 101.09C73.8877 102.239 73.3198 103.283 72.6512 104.148C72.478 104.37 72.3008 104.58 72.1196 104.778C72.0229 104.883 71.9182 104.981 71.8175 105.08C71.5436 105.352 72.6109 104.413 72.2525 104.691C72.1679 104.759 72.0833 104.821 71.9987 104.883C71.5517 105.204 71.0804 105.457 70.5971 105.636C68.6195 106.371 66.5493 105.822 64.6724 104.741C62.5941 103.548 60.681 101.738 58.8967 99.7371C58.0388 98.7734 57.2051 97.7542 56.3955 96.6979C56.3674 96.6608 55.9163 97.1118 55.8679 97.155C55.8196 97.1982 55.3725 97.6554 55.3484 97.6245C57.0843 99.8791 58.9169 101.992 60.9065 103.703C62.7794 105.315 64.8496 106.631 67.0125 106.866C68.0113 106.971 69.0223 106.835 69.9809 106.384C71.0683 105.871 72.1035 104.951 73.0379 103.981C74.5483 102.424 75.5914 100.095 76.2157 97.5009C77.6536 91.5399 77.1864 84.8747 76.7917 78.6975C76.2882 70.8216 75.5028 62.9827 74.4435 55.2365C73.3802 47.4409 72.035 39.7379 70.4239 32.1709C69.6224 28.4089 68.7524 24.6779 67.822 20.9901C67.081 18.0621 66.3681 14.8623 64.902 12.5706C64.2696 11.5761 63.4762 10.8225 62.57 10.6063C61.7967 10.4209 61.0153 10.631 60.3266 11.1931C59.4687 11.8973 58.639 12.6138 58.0147 13.7813C57.4709 14.7944 57.0762 15.9742 56.7661 17.1911C56.0411 20.0512 55.8599 23.0471 55.6867 26.0801C55.4531 30.2559 55.2517 34.4317 55.0906 38.6137C54.7643 47.0023 54.5791 55.4033 54.5428 63.8043C54.5026 72.2053 54.6113 80.6125 54.861 89.0073C54.9214 91.0457 54.9899 93.0904 55.0705 95.1289L56.1176 94.2023C55.8599 88.581 55.6021 82.9598 55.3484 77.3385C55.0906 71.7173 54.8328 66.096 54.5791 60.4748C54.3253 54.8535 54.0635 49.2323 53.8098 43.611C53.552 37.9898 53.2942 32.3685 53.0405 26.7473C52.7867 21.126 52.525 15.5048 52.2712 9.88352L52.1746 7.8018L51.1273 8.72838C52.2027 15.0971 53.0928 21.5337 53.7937 28.026C54.4945 34.5182 55.006 41.0537 55.3242 47.6139C55.6424 54.174 55.7753 60.7033 55.7189 67.2573C55.6625 73.8114 55.4128 80.4086 54.9778 86.9503C54.5428 93.4672 53.9185 99.9594 53.1009 106.39C52.9962 107.205 52.8915 108.015 52.7827 108.824L53.8299 107.897C49.5082 104.691 46.3908 98.6869 44.5381 92.0032C42.3349 84.0532 42.0006 75.3062 42.4195 66.7817C42.6853 61.389 43.2331 56.0457 43.7849 50.7086L42.7377 51.6352C43.6601 59.0108 43.9138 66.5717 43.5151 74.0523C43.1163 81.5329 42.0691 88.9331 40.4017 95.9937C39.4672 99.9409 38.3395 103.783 37.0265 107.465L38.0737 106.538C35.6329 99.6012 33.7882 92.1823 32.5719 84.5226C31.3595 76.9061 30.7635 69.0611 30.7997 61.2222C30.8198 57.2812 30.997 53.3463 31.3394 49.4361C31.5086 47.5027 31.718 45.5816 31.9677 43.6728C32.0926 42.7153 32.2255 41.764 32.3705 40.8189C32.4994 39.985 32.6242 39.1511 32.8256 38.3542C33.0069 37.6439 33.2405 36.9397 33.5748 36.3652C33.6432 36.2478 33.7157 36.1304 33.7923 36.0316C33.8366 35.9698 33.8849 35.9142 33.9332 35.8586C34.2313 35.5065 34.5776 35.6301 33.1559 36.532C33.3975 36.3775 33.6231 36.2663 33.8929 36.2725C34.8596 36.2972 35.4396 37.5883 35.7417 38.8484C36.1364 40.5039 36.1807 42.3323 36.2854 44.0681C36.4102 46.1375 36.4948 48.2069 36.5472 50.2824C36.7486 58.529 36.374 66.8126 35.4396 74.9418C34.5052 83.071 33.0069 91.0952 30.9689 98.7611C30.0989 102.035 29.1927 105.383 27.7467 108.175C27.4245 108.799 27.0741 109.392 26.6874 109.929C26.5022 110.189 26.3088 110.436 26.1034 110.671C25.9987 110.788 25.894 110.899 25.7893 111.01C25.5315 111.27 25.2173 111.406 26.337 110.535C26.2605 110.597 26.184 110.658 26.1075 110.714C25.2214 111.363 24.2225 111.61 23.2478 111.418C21.5159 111.072 20.1586 109.281 19.2201 107.119C18.1568 104.666 17.5285 101.788 17.1097 98.934C16.872 97.3341 16.727 95.7219 16.586 94.0973C16.3927 91.8549 16.2034 89.6188 16.0101 87.3765C15.6234 82.8486 15.2328 78.3145 14.8461 73.7867C14.0728 64.7741 13.3035 55.7678 12.5302 46.7552C12.3409 44.5685 12.1556 42.3756 11.9663 40.1889C11.9663 40.2321 11.487 40.6027 11.4387 40.646C11.3138 40.7572 11.193 40.8622 11.0681 40.9734C11.048 40.9919 10.9191 41.0846 10.9151 41.1154C10.7057 46.0201 10.4922 50.9187 10.2425 55.8172C9.99274 60.7157 9.70678 65.5772 9.34832 70.4386C8.98986 75.3001 8.55486 80.1739 8.0071 85.0044C7.45934 89.835 6.81088 94.6038 6.0134 99.3294C5.21592 104.055 4.28152 108.675 3.16586 113.228C3.02489 113.809 2.87988 114.383 2.73086 114.958L3.77804 114.031C3.12153 106.668 2.57782 99.2799 2.15894 91.8797C1.74006 84.4794 1.43395 77.0111 1.24868 69.5553C1.06341 62.0994 0.998947 54.6991 1.05533 47.2679C1.11172 39.8368 1.28493 32.3562 1.57492 24.9188C1.86491 17.4815 2.27976 10.0935 2.80739 2.71179C2.87183 1.80992 2.9403 0.901871 3.00877 0L1.96156 0.92658C2.14281 4.78115 2.3281 8.63573 2.50934 12.4903C2.50934 12.4347 2.98461 12.0764 3.03697 12.0332C3.09335 11.9838 3.56056 11.6502 3.55653 11.5637L3.57263 11.5884Z" fill="var(--fill-0, white)"/>
</svg>
